<?xml version="1.0" encoding="UTF-8"?>
<svg id="Layer_1" xmlns="http://www.w3.org/2000/svg" version="1.1" viewBox="0 0 88 78">
  <!-- Generator: Adobe Illustrator 29.6.1, SVG Export Plug-In . SVG Version: 2.1.1 Build 9)  -->
  <defs>
    <style>
      .st0 {
        fill: #1d1d1d;
        stroke: #4b4b4b;
        stroke-miterlimit: 10;
        stroke-width: 2.5px;
      }

      .st1 {
        fill: #d3d3d3;
      }
    </style>
  </defs>
  <rect class="st0" x="7.18" y="7.95" width="74.63" height="62.1" rx="14.01" ry="14.01"/>
  <g>
    <path class="st1" d="M27.01,25.88c-2.42,0-4.4-1.97-4.4-4.4s1.97-4.4,4.4-4.4,4.4,1.97,4.4,4.4-1.97,4.4-4.4,4.4Z"/>
    <path class="st1" d="M61.99,26.21c-2.42,0-4.4-1.97-4.4-4.4s1.97-4.4,4.4-4.4,4.4,1.97,4.4,4.4-1.97,4.4-4.4,4.4Z"/>
    <path class="st1" d="M44.65,44.62c-3.03,0-5.49-2.47-5.49-5.49s2.47-5.49,5.49-5.49,5.5,2.47,5.5,5.49-2.47,5.49-5.5,5.49Z"/>
    <path class="st1" d="M27.34,60.92c-2.42,0-4.4-1.97-4.4-4.4s1.97-4.4,4.4-4.4,4.4,1.97,4.4,4.4-1.97,4.4-4.4,4.4Z"/>
    <path class="st1" d="M61.82,60.92c-2.42,0-4.4-1.97-4.4-4.4s1.97-4.4,4.4-4.4,4.4,1.97,4.4,4.4-1.97,4.4-4.4,4.4Z"/>
    <g>
      <path class="st1" d="M38.95,34.43c-.21,0-.42-.08-.57-.24l-6.65-6.65c-.15-.15-.24-.35-.24-.57s.08-.42.24-.57.35-.24.57-.24.42.08.57.24l6.65,6.65c.15.15.24.35.24.57s-.08.42-.24.57-.35.24-.57.24Z"/>
      <path class="st1" d="M32.59,34.43c-.44,0-.8-.36-.8-.8s.36-.8.8-.8h5.55v-5.55c0-.44.36-.8.8-.8s.8.36.8.8v7.16h-7.16.01Z"/>
    </g>
    <g>
      <path class="st1" d="M38.78,44.09c-.21,0-.42.08-.57.24l-6.65,6.65c-.15.15-.24.35-.24.57s.08.42.24.57.35.24.57.24.42-.08.57-.24l6.65-6.65c.15-.15.24-.35.24-.57s-.08-.42-.24-.57-.35-.24-.57-.24Z"/>
      <path class="st1" d="M32.43,44.09c-.44,0-.8.36-.8.8s.36.8.8.8h5.55v5.55c0,.44.36.8.8.8s.8-.36.8-.8v-7.16h-7.16.01Z"/>
    </g>
    <g>
      <path class="st1" d="M50.93,34.59c.21,0,.42-.08.57-.24l6.65-6.65c.15-.15.24-.35.24-.57s-.08-.42-.24-.57-.35-.24-.57-.24-.42.08-.57.24l-6.65,6.65c-.15.15-.24.35-.24.57s.08.42.24.57.35.24.57.24Z"/>
      <path class="st1" d="M57.28,34.59c.44,0,.8-.36.8-.8s-.36-.8-.8-.8h-5.55v-5.55c0-.44-.36-.8-.8-.8s-.8.36-.8.8v7.16h7.16-.01Z"/>
    </g>
    <g>
      <path class="st1" d="M50.93,43.93c.21,0,.42.08.57.24l6.65,6.65c.15.15.24.35.24.57s-.08.42-.24.57-.35.24-.57.24-.42-.08-.57-.24l-6.65-6.65c-.15-.15-.24-.35-.24-.57s.08-.42.24-.57.35-.24.57-.24Z"/>
      <path class="st1" d="M57.28,43.93c.44,0,.8.36.8.8s-.36.8-.8.8h-5.55v5.55c0,.44-.36.8-.8.8s-.8-.36-.8-.8v-7.16h7.16-.01Z"/>
    </g>
  </g>
</svg>