<?xml version="1.0" encoding="UTF-8"?>
<svg id="Layer_1" xmlns="http://www.w3.org/2000/svg" width="88" height="78" version="1.1" viewBox="0 0 88 78">
  <!-- Generator: Adobe Illustrator 29.8.2, SVG Export Plug-In . SVG Version: 2.1.1 Build 3)  -->
  <defs>
    <style>
      .st0 {
        fill: #1d1d1d;
        stroke: #4b4b4b;
        stroke-miterlimit: 10;
        stroke-width: 2.5px;
      }

      .st1 {
        fill: #d3d3d3;
      }
    </style>
  </defs>
  <rect class="st0" x="7.18" y="7.95" width="74.63" height="62.1" rx="14.01" ry="14.01"/>
  <g>
    <path class="st1" d="M26.3,20c-.44,0-.8.36-.8.8v24.15c0,.44.36.8.8.8h24.15c.44,0,.8-.36.8-.8v-24.15c0-.44-.36-.8-.8-.8h-24.15ZM27.11,21.61h22.54v22.54h-22.54v-22.54Z"/>
    <path class="st1" d="M38.55,32.25c-.44,0-.8.36-.8.8v24.15c0,.44.36.8.8.8h24.15c.44,0,.8-.36.8-.8v-24.15c0-.44-.36-.8-.8-.8h-24.15ZM39.35,33.85h22.54v22.54h-22.54v-22.54Z"/>
    <rect class="st1" x="38.38" y="33.22" width="11.81" height="11.81"/>
  </g>
</svg>