<?xml version="1.0" encoding="UTF-8"?>
<svg id="Layer_1" xmlns="http://www.w3.org/2000/svg" xmlns:xlink="http://www.w3.org/1999/xlink" version="1.1" viewBox="0 0 88 78">
  <!-- Generator: Adobe Illustrator 29.6.1, SVG Export Plug-In . SVG Version: 2.1.1 Build 9)  -->
  <defs>
    <style>
      .st0 {
        fill: none;
      }

      .st1 {
        fill: #1d1d1d;
        stroke: #4b4b4b;
        stroke-miterlimit: 10;
        stroke-width: 2.5px;
      }

      .st2 {
        fill: #d3d3d3;
      }

      .st3 {
        clip-path: url(#clippath);
      }
    </style>
    <clipPath id="clippath">
      <path class="st0" d="M27.43,15.33l.35,48.74,41.25-1.4-.35-48.74-41.25,1.4ZM53.48,25.16h-12.44v-4.41c0-.83.67-1.5,1.5-1.5.45,0,.88-.2,1.16-.55l1.03-1.25c.29-.35.71-.55,1.16-.55h2.72c.45,0,.88.21,1.17.56l.99,1.23c.29.35.72.56,1.17.56h.03c.83,0,1.5.67,1.5,1.5v4.41h0Z"/>
    </clipPath>
  </defs>
  <rect class="st1" x="7.18" y="7.95" width="74.63" height="62.1" rx="14.01" ry="14.01"/>
  <g>
    <rect class="st2" x="41" y="31.72" width="12.61" height="1.71"/>
    <polygon class="st2" points="42.44 40.15 41 41.58 41 41.86 53.62 41.86 53.62 40.15 42.44 40.15"/>
    <rect class="st2" x="41" y="44.36" width="12.61" height="1.71"/>
    <polygon class="st2" points="41.35 35.94 41.76 36.34 42.81 37.4 43.06 37.64 53.62 37.64 53.62 35.94 41.35 35.94"/>
    <g class="st3">
      <g>
        <rect class="st2" x="32.79" y="37.09" width="1.85" height="2.99"/>
        <path class="st2" d="M61.11,19.03h-29.15c-.16,0-.58.42-.58.92v7.2c.55.14,1.05.41,1.46.82l.38.38.03-7.65,26.92.17.35,35.59h-27.3v-7.67l-.38.38c-.41.41-.92.68-1.46.82v7.39c0,.51.42.92.92.92h29.15c.51,0,.92-.42.92-.92V19.94c0-.51-.42-.92-1.27-.92h0Z"/>
      </g>
    </g>
    <path class="st2" d="M30.61,48.44c.38,0,.77-.15,1.06-.44l9.42-9.42-1.06-1.06-8.36-8.36c-.29-.29-.67-.44-1.06-.44s-.77.15-1.06.44c-.58.58-.58,1.53,0,2.11l5.81,5.81h-13.89c-.4,0-.78.15-1.06.44s-.44.66-.44,1.06.16.78.44,1.06.66.44,1.06.44h13.89l-5.81,5.81c-.58.58-.58,1.53,0,2.11.29.29.67.44,1.06.44h0Z"/>
    <g>
      <g>
        <path class="st2" d="M37.09,24.72h3.95v-1.68h-4.26c-.76,0-1.37.61-1.37,1.37v5.48l1.68,1.68v-6.85Z"/>
        <path class="st2" d="M56.92,23.04h-3.45v1.68h3.14v21.88h-4.16c-.79,0-1.43.64-1.43,1.43v4.36h-13.94v-6.79l-1.68,1.68v5.47c0,.73.59,1.32,1.32,1.32h15.48l6.08-6.08v-23.56c0-.76-.62-1.38-1.38-1.38h.02ZM52.71,51.2v-2.92h2.92l-2.92,2.92Z"/>
      </g>
      <path class="st2" d="M54.32,25.59h-14.11v-5.25c0-1.29,1.05-2.34,2.34-2.34.2,0,.39-.09.51-.24l1.03-1.25c.45-.54,1.11-.85,1.81-.85h2.72c.71,0,1.38.32,1.82.87l.99,1.23c.13.16.31.25.52.25,1.32,0,2.37,1.05,2.37,2.34v5.25h0ZM41.88,23.91h10.76v-3.57c0-.37-.3-.66-.66-.66-.74,0-1.41-.32-1.85-.87l-.99-1.23c-.13-.16-.31-.25-.52-.25h-2.72c-.2,0-.39.09-.51.24l-1.03,1.25c-.45.54-1.11.85-1.81.85-.37,0-.66.3-.66.66v3.57h-.01Z"/>
    </g>
  </g>
</svg>