<?xml version="1.0" encoding="UTF-8"?>
<svg id="Layer_1" xmlns="http://www.w3.org/2000/svg" version="1.1" viewBox="0 0 88 78">
  <!-- Generator: Adobe Illustrator 29.6.1, SVG Export Plug-In . SVG Version: 2.1.1 Build 9)  -->
  <defs>
    <style>
      .st0 {
        fill: #fff;
        stroke: #d3d3d3;
        stroke-width: 1.01px;
      }

      .st0, .st1 {
        stroke-miterlimit: 10;
      }

      .st1 {
        fill: #1d1d1d;
        stroke: #4b4b4b;
        stroke-width: 2.5px;
      }

      .st2 {
        fill: #d3d3d3;
      }
    </style>
  </defs>
  <rect class="st1" x="7.18" y="7.95" width="74.63" height="62.1" rx="14.01" ry="14.01"/>
  <g>
    <g>
      <polygon class="st2" points="45.68 18.61 46.6 20.19 46.6 50.48 45.68 50.07 45.68 18.61"/>
      <polygon class="st2" points="48.19 51.17 48.19 49.1 55.88 52.47 54.88 42.41 61.6 34.86 51.73 32.7 48.19 26.66 48.19 22.9 52.95 31.02 65.17 33.7 56.85 43.05 58.09 55.51 48.19 51.17"/>
    </g>
    <rect class="st0" x="54.54" y="40.93" width="3.12" height="3.12"/>
    <rect class="st0" x="62.06" y="32.41" width="3.12" height="3.12"/>
    <rect class="st0" x="50.58" y="30.31" width="3.12" height="3.12"/>
    <rect class="st0" x="56.03" y="52.8" width="3.12" height="3.12"/>
    <polygon class="st2" points="30.57 39.83 23.32 35.05 32.02 34.21 27.28 28.08 35.48 29.89 34.53 21.62 40.74 27.36 42.04 24.43 42.04 29.13 41.41 30.56 37 26.49 37.68 32.32 31.99 31.06 35.63 35.77 28.85 36.42 34.22 39.95 29.47 42.62 35.65 43.89 31.63 48.29 38.3 46.73 35.78 53.41 42.04 49.52 42.04 51.76 32.03 57.98 35.27 49.39 26.09 51.53 32 45.08 24.12 43.46 30.57 39.83"/>
    <rect class="st0" x="32.42" y="54.41" width="3.12" height="3.12"/>
    <rect class="st0" x="26.66" y="48.39" width="3.12" height="3.12"/>
    <rect class="st0" x="24.15" y="41.38" width="3.12" height="3.12"/>
    <rect class="st0" x="24.02" y="34.36" width="3.12" height="3.12"/>
    <rect class="st0" x="27.86" y="27.95" width="3.12" height="3.12"/>
    <rect class="st0" x="34" y="21.96" width="3.12" height="3.12"/>
    <path class="st2" d="M45.11,17.03c.82,0,1.49.67,1.49,1.49v40.96c0,.82-.67,1.49-1.49,1.49s-1.49-.67-1.49-1.49V18.52c0-.82.67-1.49,1.49-1.49Z"/>
  </g>
</svg>