<?xml version="1.0" encoding="UTF-8"?>
<svg id="Layer_1" xmlns="http://www.w3.org/2000/svg" version="1.1" viewBox="0 0 88 78">
  <!-- Generator: Adobe Illustrator 29.6.1, SVG Export Plug-In . SVG Version: 2.1.1 Build 9)  -->
  <defs>
    <style>
      .st0 {
        fill: #1d1d1d;
        stroke: #4b4b4b;
        stroke-miterlimit: 10;
        stroke-width: 2.5px;
      }

      .st1 {
        fill: #d3d3d3;
      }
    </style>
  </defs>
  <rect class="st0" x="7.18" y="7.95" width="74.63" height="62.1" rx="14.01" ry="14.01"/>
  <g>
    <path class="st1" d="M44.28,39.31c-5.35,0-10.38-2.08-14.15-5.85-.14-.15-.23-.34-.23-.54s.08-.4.23-.54c.14-.15.34-.23.54-.23s.4.08.55.23c3.48,3.48,8.12,5.4,13.06,5.4s9.58-1.92,13.06-5.4c.14-.15.34-.23.55-.23s.4.08.54.23.23.34.23.54-.08.4-.23.54c-3.77,3.77-8.8,5.85-14.15,5.85Z"/>
    <path class="st1" d="M44.28,45.85c-.42,0-.77-.35-.77-.77v-6.07c0-.42.35-.77.77-.77s.77.35.77.77v6.07c0,.42-.35.77-.77.77Z"/>
    <path class="st1" d="M36.02,44.22c-.4-.13-.63-.56-.5-.97l1.85-5.78c.13-.4.56-.63.97-.5s.63.56.5.97l-1.85,5.78c-.13.4-.56.63-.97.5Z"/>
    <path class="st1" d="M52.76,44.22c.4-.13.63-.56.5-.97l-1.85-5.78c-.13-.4-.56-.63-.97-.5s-.63.56-.5.97l1.85,5.78c.13.4.56.63.97.5Z"/>
    <path class="st1" d="M28.81,40c-.21,0-.4-.08-.54-.23-.3-.3-.3-.79,0-1.09l3.83-3.83c.14-.14.34-.23.54-.23s.4.08.54.23.23.34.23.55-.08.4-.23.54l-3.83,3.83c-.14.14-.34.23-.54.23Z"/>
    <path class="st1" d="M60.19,39.67c-.21,0-.4-.08-.55-.23l-3.83-3.83c-.3-.3-.3-.79,0-1.09.14-.14.34-.23.54-.23s.4.08.54.23l3.83,3.83c.3.3.3.79,0,1.09-.14.14-.34.23-.54.23h0Z"/>
  </g>
</svg>