<?xml version="1.0" encoding="UTF-8"?>
<svg id="Layer_1" xmlns="http://www.w3.org/2000/svg" version="1.1" viewBox="0 0 88 78">
  <!-- Generator: Adobe Illustrator 29.6.1, SVG Export Plug-In . SVG Version: 2.1.1 Build 9)  -->
  <defs>
    <style>
      .st0 {
        fill: none;
      }

      .st1 {
        fill: #1d1d1d;
        stroke: #4b4b4b;
        stroke-miterlimit: 10;
        stroke-width: 2.5px;
      }

      .st2 {
        fill: #d3d3d3;
      }
    </style>
  </defs>
  <rect class="st1" x="7.18" y="7.95" width="74.63" height="62.1" rx="14.01" ry="14.01"/>
  <g>
    <path class="st2" d="M52.57,29.78c-.43,0-.77.35-.77.77v15.14h-16.36c-.42,0-.77.35-.77.77v8.2c0,.43.35.77.77.77h24.11c.42,0,.77-.35.77-.77v-24.11c0-.43-.35-.77-.77-.77h-6.98ZM36.21,47.23h16.36c.42,0,.77-.35.77-.77v-15.14h5.44v22.57h-22.57v-6.66Z"/>
    <polygon class="st0" points="55.84 31.25 58.85 34.26 58.85 31.25 55.84 31.25"/>
    <path class="st2" d="M29.45,22.57c-.42,0-.77.35-.77.77v23.12c0,.42.35.77.77.77h23.12c.42,0,.77-.35.77-.77v-23.12c0-.42-.35-.77-.77-.77h-23.12ZM30.22,24.11h21.58v21.58h-21.58v-21.58Z"/>
    <polygon class="st2" points="43.11 47.16 41.03 47.16 47.74 53.96 49.91 53.96 43.11 47.16"/>
    <polygon class="st2" points="43.15 53.96 41.07 53.96 36.14 48.93 36.21 47.23 36.45 47.16 43.15 53.96"/>
    <polygon class="st2" points="54.4 53.96 56.48 53.96 49.68 47.16 47.6 47.16 54.4 53.96"/>
    <polygon class="st2" points="58.85 51.65 53.27 46.07 53.27 43.99 58.85 49.57 58.85 51.65"/>
    <polygon class="st2" points="58.85 44.99 53.27 39.5 53.27 37.32 58.85 42.91 58.85 44.99"/>
    <polygon class="st2" points="58.85 38.32 53.27 32.84 53.34 31.32 53.86 31.25 58.85 36.24 58.85 38.32"/>
  </g>
</svg>