<?xml version="1.0" encoding="UTF-8"?>
<svg id="Layer_1" xmlns="http://www.w3.org/2000/svg" width="88" height="78" version="1.1" viewBox="0 0 88 78">
  <!-- Generator: Adobe Illustrator 29.8.5, SVG Export Plug-In . SVG Version: 2.1.1 Build 2)  -->
  <defs>
    <style>
      .st0 {
        stroke-linecap: round;
      }

      .st0, .st1, .st2 {
        stroke: #d3d3d3;
      }

      .st0, .st2 {
        fill: none;
        stroke-linejoin: bevel;
        stroke-width: 2.57px;
      }

      .st1 {
        fill: #fff;
        stroke-width: 1.71px;
      }

      .st1, .st3 {
        stroke-miterlimit: 10;
      }

      .st2 {
        stroke-dasharray: 5 6.67;
      }

      .st3 {
        fill: #1d1d1d;
        stroke: #4b4b4b;
        stroke-width: 2.5px;
      }

      .st4 {
        fill: #d3d3d3;
      }
    </style>
  </defs>
  <rect class="st3" x="7.18" y="7.95" width="74.63" height="62.1" rx="14.01" ry="14.01"/>
  <g>
    <rect class="st0" x="32.01" y="27.14" width="24.04" height="24.1"/>
    <rect class="st1" x="28.63" y="23.76" width="6.76" height="6.76" transform="translate(64.02 54.28) rotate(180)"/>
    <rect class="st1" x="52.67" y="23.76" width="6.76" height="6.76" transform="translate(112.11 54.28) rotate(180)"/>
    <rect class="st1" x="28.63" y="47.86" width="6.76" height="6.76" transform="translate(64.02 102.49) rotate(180)"/>
    <rect class="st1" x="52.67" y="47.86" width="6.76" height="6.76" transform="translate(112.11 102.49) rotate(180)"/>
  </g>
  <circle class="st2" cx="44.03" cy="39.19" r="26.03"/>
  <path class="st4" d="M49.96,32.02c.69,0,1.25.56,1.25,1.25s-.56,1.25-1.25,1.25h-8.82l9.63,9.63c.24.24.37.55.37.89s-.13.65-.37.89-.55.37-.89.37-.65-.13-.89-.37l-9.63-9.63v8.82c0,.69-.56,1.25-1.25,1.25s-1.25-.56-1.25-1.25v-13.1h13.1Z"/>
</svg>