<?xml version="1.0" encoding="UTF-8"?>
<svg id="Layer_1" xmlns="http://www.w3.org/2000/svg" version="1.1" viewBox="0 0 88 78">
  <!-- Generator: Adobe Illustrator 29.6.1, SVG Export Plug-In . SVG Version: 2.1.1 Build 9)  -->
  <defs>
    <style>
      .st0 {
        fill: none;
      }

      .st1 {
        fill: #1d1d1d;
        stroke: #4b4b4b;
        stroke-miterlimit: 10;
        stroke-width: 2.5px;
      }

      .st2 {
        fill: #d3d3d3;
      }
    </style>
  </defs>
  <rect class="st1" x="7.18" y="7.95" width="74.63" height="62.1" rx="14.01" ry="14.01"/>
  <g>
    <path class="st0" d="M65.75,59.51h-2.37v-2.37h2.37v-2.37h-2.37v-2.37h2.37v-2.37h-2.37v-2.37h2.37v-2.37h-2.37v-2.37h2.37v2.37h.52v-2.05c0-.59-.48-1.08-1.08-1.08h-15.59c-.59,0-1.08.48-1.08,1.08v15.59c0,.59.48,1.08,1.08,1.08h1.86v-.36h-2.37v-2.37h2.37v-2.37h-2.37v-2.37h2.37v-2.37h-2.37v-2.37h2.37v-2.37h-2.37v-2.37h2.37v2.37h2.37v2.37h-2.37v2.37h2.37v2.37h-2.37v2.37h2.37v2.37h-2.37v2.37h2.37v.36h2.38v-.36h-2.37v-2.37h2.37v-2.37h-2.37v-2.37h2.37v-2.37h-2.37v-2.37h2.37v-2.37h-2.37v-2.37h2.37v2.37h2.37v2.37h-2.37v2.37h2.37v2.37h-2.37v2.37h2.37v2.37h-2.37v2.37h2.37v.36h2.38v-.36h-2.37v-2.37h2.37v-2.37h-2.37v-2.37h2.37v-2.37h-2.37v-2.37h2.37v-2.37h-2.37v-2.37h2.37v2.37h2.37v2.37h-2.37v2.37h2.37v2.37h-2.37v2.37h2.37v2.37h-2.37v2.37h2.37v.36h1.83c.21,0,.39-.07.56-.18v-.18l.03-.04Z"/>
    <g>
      <path class="st0" d="M66.03,59.72h.25c.18-.2.3-.46.3-.75v-1.73h-.54v2.47h-.01Z"/>
      <rect class="st0" x="66.03" y="52.32" width=".54" height="2.47"/>
      <rect class="st0" x="66.03" y="47.38" width=".54" height="2.47"/>
      <rect class="st2" x="48.69" y="57.25" width="2.47" height="2.47"/>
      <rect class="st2" x="53.64" y="57.25" width="2.47" height="2.47"/>
      <rect class="st2" x="58.6" y="57.25" width="2.47" height="2.47"/>
      <rect class="st2" x="63.55" y="57.25" width="2.47" height="2.47"/>
      <rect class="st2" x="51.17" y="59.72" width="2.47" height=".38"/>
      <rect class="st2" x="56.11" y="59.72" width="2.47" height=".38"/>
      <rect class="st2" x="61.06" y="59.72" width="2.47" height=".38"/>
      <rect class="st2" x="48.69" y="52.32" width="2.47" height="2.47"/>
      <rect class="st2" x="53.64" y="52.32" width="2.47" height="2.47"/>
      <rect class="st2" x="58.6" y="52.32" width="2.47" height="2.47"/>
      <rect class="st2" x="63.55" y="52.32" width="2.47" height="2.47"/>
      <rect class="st2" x="51.17" y="54.78" width="2.47" height="2.47"/>
      <rect class="st2" x="56.11" y="54.78" width="2.47" height="2.47"/>
      <rect class="st2" x="61.06" y="54.78" width="2.47" height="2.47"/>
      <rect class="st2" x="66.03" y="54.78" width=".54" height="2.47"/>
      <rect class="st2" x="48.69" y="47.38" width="2.47" height="2.47"/>
      <rect class="st2" x="53.64" y="47.38" width="2.47" height="2.47"/>
      <rect class="st2" x="58.6" y="47.38" width="2.47" height="2.47"/>
      <rect class="st2" x="63.55" y="47.38" width="2.47" height="2.47"/>
      <rect class="st2" x="51.17" y="49.85" width="2.47" height="2.47"/>
      <rect class="st2" x="56.11" y="49.85" width="2.47" height="2.47"/>
      <rect class="st2" x="61.06" y="49.85" width="2.47" height="2.47"/>
      <rect class="st2" x="66.03" y="49.85" width=".54" height="2.47"/>
      <rect class="st2" x="48.69" y="42.44" width="2.47" height="2.47"/>
      <rect class="st2" x="53.64" y="42.44" width="2.47" height="2.47"/>
      <rect class="st2" x="58.6" y="42.44" width="2.47" height="2.47"/>
      <rect class="st2" x="63.55" y="42.44" width="2.47" height="2.47"/>
      <rect class="st2" x="51.17" y="44.91" width="2.47" height="2.47"/>
      <rect class="st2" x="56.11" y="44.91" width="2.47" height="2.47"/>
      <rect class="st2" x="61.06" y="44.91" width="2.47" height="2.47"/>
      <rect class="st2" x="66.03" y="44.91" width=".54" height="2.47"/>
    </g>
    <circle class="st2" cx="57.39" cy="51" r="4.92"/>
    <polygon class="st2" points="27.08 29.44 22.42 24.75 28.94 23.71 31.95 17.84 34.97 23.71 41.47 24.75 36.83 29.44 37.83 35.96 31.95 32.97 26.06 35.96 27.08 29.44"/>
    <path class="st2" d="M47.17,41.75c-.21,0-.42-.08-.57-.24l-7.04-7.04c-.15-.15-.24-.35-.24-.57s.08-.42.24-.57.35-.24.57-.24.42.08.57.24l7.04,7.04c.15.15.24.35.24.57s-.08.42-.24.57-.35.24-.57.24Z"/>
    <path class="st2" d="M40.83,41.75c-.44,0-.8-.36-.8-.8s.36-.8.8-.8h5.55v-5.55c0-.44.36-.8.8-.8s.8.36.8.8v7.16h-7.16,0Z"/>
    <path class="st2" d="M49.61,60.16c-.75,0-1.37-.61-1.37-1.37v-15.59c0-.75.61-1.37,1.37-1.37h15.59c.75,0,1.37.61,1.37,1.37v15.59c0,.75-.61,1.37-1.37,1.37h-15.59ZM48.81,59.53l17.1.06.05-.79v-16.31l-17.1-.06-.06,17.1h0Z"/>
  </g>
</svg>