<?xml version="1.0" encoding="UTF-8"?>
<svg id="Layer_1" xmlns="http://www.w3.org/2000/svg" version="1.1" viewBox="0 0 88 78">
  <!-- Generator: Adobe Illustrator 29.6.1, SVG Export Plug-In . SVG Version: 2.1.1 Build 9)  -->
  <defs>
    <style>
      .st0 {
        fill: #1d1d1d;
        stroke: #4b4b4b;
        stroke-miterlimit: 10;
        stroke-width: 2.5px;
      }

      .st1 {
        fill: #d3d3d3;
      }
    </style>
  </defs>
  <rect class="st0" x="7.18" y="7.95" width="74.63" height="62.1" rx="14.01" ry="14.01"/>
  <g>
    <path class="st1" d="M59.22,59.29c-3.03,0-5.49-2.47-5.49-5.49s2.47-5.49,5.49-5.49,5.5,2.47,5.5,5.49-2.47,5.49-5.5,5.49Z"/>
    <path class="st1" d="M45.6,48.11c-.42,0-.77-.35-.77-.77s.35-.77.77-.77h5.41l-6.75-6.75c-.14-.14-.23-.34-.23-.54s.08-.4.23-.55.34-.23.54-.23.4.08.54.23l6.75,6.75v-5.41c0-.42.35-.77.77-.77s.77.35.77.77v7.27c0,.1-.02.2-.06.3-.08.18-.23.34-.42.41-.1.04-.2.06-.29.06h-7.27.01Z"/>
    <path class="st1" d="M25.04,36.99c-.1,0-.2-.02-.3-.06-.18-.08-.34-.23-.41-.42-.04-.09-.06-.19-.06-.29v-16.75c0-.1.02-.2.06-.29.08-.19.23-.34.42-.42.1-.04.19-.06.29-.06h16.75c.1,0,.2.02.29.06.19.08.34.23.42.42.04.1.06.2.06.29v16.75c0,.1-.02.2-.06.3-.08.18-.23.33-.42.41-.1.04-.2.06-.29.06h-16.75ZM26.9,35.45h13.03l-6.52-6.52-6.52,6.52h0ZM34.51,27.84l6.52,6.52v-13.03l-6.52,6.52h0ZM25.81,34.36l6.52-6.52-6.52-6.52v13.03h0ZM33.43,26.76l6.52-6.52h-13.03l6.52,6.52h0Z"/>
  </g>
</svg>