<?xml version="1.0" encoding="UTF-8"?>
<svg id="Layer_1" xmlns="http://www.w3.org/2000/svg" version="1.1" viewBox="0 0 88 78">
  <!-- Generator: Adobe Illustrator 30.6.0, SVG Export Plug-In . SVG Version: 2.1.4 Build 109)  -->
  <defs>
    <style>
      .st0 {
        opacity: .3;
      }

      .st0, .st1, .st2 {
        fill: #d3d3d3;
      }

      .st1 {
        opacity: .7;
      }

      .st3 {
        fill: #1d1d1d;
        stroke: #4b4b4b;
        stroke-miterlimit: 10;
        stroke-width: 2.5px;
      }
    </style>
  </defs>
  <rect class="st3" x="7.18" y="7.95" width="74.63" height="62.1" rx="14.01" ry="14.01"/>
  <g>
    <path class="st1" d="M54.5,36.29c-.82-5.35-5.43-9.46-11.02-9.46-6.16,0-11.16,5-11.16,11.16,0,5.58,4.11,10.2,9.46,11.02.33-6.88,5.84-12.39,12.72-12.72Z"/>
    <path class="st0" d="M42.84,24.65c-.81-5.36-5.43-9.48-11.02-9.48-6.16,0-11.16,5-11.16,11.16,0,5.59,4.11,10.21,9.48,11.02.33-6.87,5.83-12.37,12.7-12.7Z"/>
    <circle class="st2" cx="55.14" cy="49.65" r="11.16"/>
  </g>
</svg>