<?xml version="1.0" encoding="UTF-8"?>
<svg id="Layer_1" xmlns="http://www.w3.org/2000/svg" version="1.1" viewBox="0 0 88 78">
  <!-- Generator: Adobe Illustrator 29.6.1, SVG Export Plug-In . SVG Version: 2.1.1 Build 9)  -->
  <defs>
    <style>
      .st0 {
        fill: #1d1d1d;
        stroke: #4b4b4b;
        stroke-miterlimit: 10;
        stroke-width: 2.5px;
      }

      .st1 {
        fill: #d3d3d3;
      }
    </style>
  </defs>
  <rect class="st0" x="7.18" y="7.95" width="74.63" height="62.1" rx="14.01" ry="14.01"/>
  <g>
    <path class="st1" d="M40.21,42.72c-.42,0-.77-.35-.77-.77s.35-.77.77-.77h5.41l-5.91-5.91c-.15-.14-.23-.34-.23-.54s.08-.4.23-.54.34-.23.54-.23.4.08.54.23l5.91,5.91v-5.41c0-.42.35-.77.77-.77s.77.35.77.77v8.04h-8.04.01Z"/>
    <path class="st1" d="M49.19,61.12l-.18-.02-.06.02c-.18-.02-.34-.09-.47-.22-.15-.15-.22-.35-.22-.57v-16.65c0-.27.08-.47.23-.62.18-.18.4-.22.54-.22h16.71c.26,0,.45.08.59.22.15.15.22.35.22.57v16.62c0,.31-.08.51-.23.65-.13.13-.3.21-.49.22l-.17-.02-.07.02h-16.4ZM50.88,59.58h13.03l-6.52-6.52-6.52,6.52h0ZM58.49,51.97l6.52,6.52v-13.03l-6.52,6.52h0ZM49.79,58.49l6.52-6.52-6.52-6.52v13.03h0ZM57.4,50.89l6.52-6.52h-13.03l6.52,6.52h0Z"/>
    <path class="st1" d="M29.12,25.22h-4.28l3.7-5.98,2.88,4.13h2.04l-4.28-6.13c-.16-.23-.43-.34-.71-.36-.28,0-.54.16-.69.4l-5.16,8.34c-.16.26-.17.58-.02.85s.43.43.73.43h5.78v-1.67h.01Z"/>
    <path class="st1" d="M33.44,29.55c-.16-.16-.34-.29-.52-.43-.05-.04-.09-.08-.14-.12-.2-.15-.41-.29-.62-.41-.11-.07-.23-.13-.34-.2-.17-.09-.34-.16-.52-.23-.18-.07-.36-.14-.55-.2-.13-.04-.27-.07-.4-.1-.23-.05-.47-.1-.71-.12-.11,0-.21-.02-.32-.03-.14,0-.28-.04-.42-.04-.11,0-.21.03-.32.03-.15,0-.3.03-.45.05-.25.03-.5.06-.74.12-.09.02-.18.06-.27.08-2.66.78-4.62,3.21-4.62,6.11,0,3.11,2.23,5.7,5.18,6.27v-.02c2.01.39,4.17-.17,5.73-1.73,2.49-2.49,2.49-6.55,0-9.04h.03ZM32.26,37.41c-1,1-2.34,1.43-3.64,1.34-.22,0-.44-.04-.66-.08-.12-.03-.24-.06-.36-.1-.16-.05-.32-.1-.47-.16s-.29-.14-.44-.22c-.11-.06-.23-.12-.33-.19-.17-.11-.34-.24-.5-.38-1.01-.86-1.67-2.13-1.67-3.56,0-1.35.58-2.56,1.49-3.43h0c1.38-1.31,3.37-1.63,5.04-.94,1.65.69,2.83,2.31,2.9,4.2h0c.05,1.26-.4,2.54-1.36,3.51h0Z"/>
    <path class="st1" d="M39.08,23.37h-9.13c-.46,0-.83.37-.83.83v3.49c.07,0,.14,0,.21.02.11,0,.21.02.32.03.24.03.47.07.71.12.13.03.27.07.4.1.01,0,.02,0,.03,0v-2.94h7.46v6.9h-3.33c.19.54.3,1.1.34,1.67h3.82c.46,0,.83-.37.83-.83v-8.57c0-.46-.37-.83-.83-.83h0Z"/>
  </g>
</svg>