<?xml version="1.0" encoding="UTF-8"?>
<svg id="Layer_1" xmlns="http://www.w3.org/2000/svg" version="1.1" viewBox="0 0 88 78">
  <!-- Generator: Adobe Illustrator 29.6.1, SVG Export Plug-In . SVG Version: 2.1.1 Build 9)  -->
  <defs>
    <style>
      .st0 {
        fill: #1d1d1d;
        stroke: #4b4b4b;
        stroke-miterlimit: 10;
        stroke-width: 2.5px;
      }

      .st1 {
        fill: #d3d3d3;
      }
    </style>
  </defs>
  <rect class="st0" x="7.18" y="7.95" width="74.63" height="62.1" rx="14.01" ry="14.01"/>
  <g>
    <g>
      <polygon class="st1" points="57.86 23.67 55.08 21.14 52.89 21.14 52.89 19 55.91 19 57.79 20.71 59.51 19 62.54 19 62.54 21.14 60.4 21.14 57.86 23.67"/>
      <polygon class="st1" points="62.54 59 59.51 59 57.79 57.29 55.91 59 52.89 59 52.89 56.86 55.08 56.86 57.86 54.33 60.4 56.86 62.54 56.86 62.54 59"/>
      <rect class="st1" x="56.64" y="21.87" width="2.14" height="35.1"/>
    </g>
    <g>
      <path class="st1" d="M26.46,27.43h6.41l1.73,1.73v9.12l-1.53,1.53,1.73,9.55h-2.68l-1.7-9.35h-1.18v9.35h-2.77v-21.93h0ZM31.84,37.18v-6.87l-.58-.58h-2.02v8.02h2.02l.58-.58h0Z"/>
      <path class="st1" d="M36.57,27.43h6.84v2.37h-4.07v7.27h3.55v2.37h-3.55v7.56h4.13v2.37h-6.9v-21.93h0Z"/>
      <path class="st1" d="M44.94,51.72v-2.37h9.35v2.37h-9.35Z"/>
    </g>
  </g>
</svg>