<?xml version="1.0" encoding="UTF-8"?>
<svg id="Layer_1" xmlns="http://www.w3.org/2000/svg" version="1.1" viewBox="0 0 88 78">
  <!-- Generator: Adobe Illustrator 29.6.1, SVG Export Plug-In . SVG Version: 2.1.1 Build 9)  -->
  <defs>
    <style>
      .st0 {
        fill: #1d1d1d;
        stroke: #4b4b4b;
        stroke-miterlimit: 10;
        stroke-width: 2.5px;
      }

      .st1 {
        fill: #d3d3d3;
      }
    </style>
  </defs>
  <rect class="st0" x="7.18" y="7.95" width="74.63" height="62.1" rx="14.01" ry="14.01"/>
  <g>
    <circle class="st1" cx="44.49" cy="38.94" r="3.96"/>
    <path class="st1" d="M58.11,39.7c-.21,0-.4-.08-.55-.23-3.48-3.48-8.12-5.4-13.06-5.4s-9.58,1.92-13.06,5.4c-.14.15-.34.23-.55.23s-.4-.08-.54-.23-.23-.34-.23-.54.08-.4.23-.54c3.78-3.78,8.81-5.87,14.15-5.87s10.37,2.08,14.15,5.87c.14.15.23.34.23.54s-.08.4-.23.54c-.15.15-.34.23-.54.23Z"/>
    <path class="st1" d="M44.5,45.46c-5.35,0-10.38-2.08-14.15-5.85-.14-.15-.23-.34-.23-.54s.08-.4.23-.54c.14-.15.34-.23.54-.23s.4.08.55.23c3.48,3.48,8.12,5.4,13.06,5.4s9.58-1.92,13.06-5.4c.14-.15.34-.23.55-.23s.4.08.54.23.23.34.23.54-.08.4-.23.54c-3.77,3.77-8.8,5.85-14.15,5.85Z"/>
    <path class="st1" d="M44.49,29.29c-.42,0-.77-.35-.77-.77v-6.07c0-.42.35-.77.77-.77s.77.35.77.77v6.07c0,.42-.35.77-.77.77Z"/>
    <path class="st1" d="M44.49,56.32c-.42,0-.77-.35-.77-.77v-6.07c0-.42.35-.77.77-.77s.77.35.77.77v6.07c0,.42-.35.77-.77.77Z"/>
    <path class="st1" d="M53.47,30.79c-.21,0-.4-.08-.54-.23s-.23-.34-.23-.54.08-.4.23-.54l3.83-3.83c.14-.15.34-.23.55-.23s.4.08.54.23.23.34.23.54-.08.4-.23.54l-3.83,3.83c-.14.15-.34.23-.54.23h0Z"/>
    <path class="st1" d="M31.68,52.58c-.21,0-.4-.08-.54-.23-.3-.3-.3-.79,0-1.09l3.83-3.83c.14-.14.34-.23.54-.23s.4.08.54.23.23.34.23.55-.08.4-.23.54l-3.83,3.83c-.14.14-.34.23-.54.23Z"/>
    <path class="st1" d="M35.51,30.79c-.21,0-.4-.08-.54-.23l-3.83-3.83c-.14-.15-.23-.34-.23-.54s.08-.4.23-.54c.14-.15.34-.23.54-.23s.4.08.54.23l3.83,3.83c.14.15.23.34.23.54s-.08.4-.23.54-.34.23-.54.23Z"/>
    <path class="st1" d="M57.3,52.58c-.21,0-.4-.08-.55-.23l-3.83-3.83c-.3-.3-.3-.79,0-1.09.14-.14.34-.23.54-.23s.4.08.54.23l3.83,3.83c.3.3.3.79,0,1.09-.14.14-.34.23-.54.23h0Z"/>
  </g>
</svg>