<?xml version="1.0" encoding="UTF-8"?>
<svg id="Layer_1" xmlns="http://www.w3.org/2000/svg" version="1.1" viewBox="0 0 88 78">
  <!-- Generator: Adobe Illustrator 29.6.1, SVG Export Plug-In . SVG Version: 2.1.1 Build 9)  -->
  <defs>
    <style>
      .st0 {
        fill: #1d1d1d;
        stroke: #4b4b4b;
        stroke-miterlimit: 10;
        stroke-width: 2.5px;
      }

      .st1 {
        fill: #d3d3d3;
      }
    </style>
  </defs>
  <rect class="st0" x="7.18" y="7.95" width="74.63" height="62.1" rx="14.01" ry="14.01"/>
  <g>
    <path class="st1" d="M59.41,35.67c-.21,0-.4-.08-.55-.23-3.49-3.49-8.13-5.42-13.06-5.42s-9.57,1.92-13.06,5.42c-.15.15-.34.23-.54.23s-.4-.08-.54-.23c-.3-.3-.3-.79,0-1.09,3.78-3.78,8.81-5.87,14.15-5.87s10.37,2.08,14.15,5.87c.14.15.23.34.23.54s-.08.4-.23.54-.34.23-.54.23h-.01Z"/>
    <path class="st1" d="M45.8,43.36c-2.61,0-4.73-2.12-4.73-4.73s2.12-4.73,4.73-4.73,4.73,2.12,4.73,4.73-2.12,4.73-4.73,4.73Z"/>
  </g>
</svg>