<?xml version="1.0" encoding="UTF-8"?>
<svg id="Layer_1" xmlns="http://www.w3.org/2000/svg" version="1.1" viewBox="0 0 88 78">
  <!-- Generator: Adobe Illustrator 29.6.1, SVG Export Plug-In . SVG Version: 2.1.1 Build 9)  -->
  <defs>
    <style>
      .st0 {
        fill: #1d1d1d;
        stroke: #4b4b4b;
        stroke-miterlimit: 10;
        stroke-width: 2.5px;
      }

      .st1 {
        fill: #d3d3d3;
      }
    </style>
  </defs>
  <rect class="st0" x="7.18" y="7.95" width="74.63" height="62.1" rx="14.01" ry="14.01"/>
  <g>
    <path class="st1" d="M48.47,54.53c.23-.55.23-1.18,0-1.73h9.84v-14.79l-3.66,3.66c-.16.16-.38.25-.61.25s-.45-.09-.61-.25-.25-.38-.25-.61.09-.45.25-.61l5.14-5.14c.16-.16.38-.25.61-.25s.45.09.61.25l5.14,5.14c.16.16.25.38.25.61s-.09.45-.25.61-.38.25-.61.25-.45-.09-.61-.25l-3.66-3.66v15.66c0,.48-.39.87-.87.87h-10.71Z"/>
    <path class="st1" d="M58.31,28.58h-12.87v-1.74h13.73c.48,0,.87.39.87.87v5.93c-.27-.11-.57-.17-.87-.17s-.6.06-.87.17v-5.06h0Z"/>
    <path class="st1" d="M41.06,59.67c-.23,0-.45-.09-.61-.25-.34-.34-.34-.89,0-1.23l3.66-3.66h-10.88c-.48,0-.87-.39-.87-.87v-13.73h1.74v12.87h10.01l-3.66-3.66c-.16-.16-.25-.38-.25-.61s.09-.45.25-.61.38-.25.61-.25.45.09.61.25l5.14,5.14c.34.34.34.89,0,1.23l-5.14,5.14c-.16.16-.38.25-.61.25h0Z"/>
    <path class="st1" d="M24.58,36.61c-.1,0-.2-.02-.3-.06-.19-.08-.34-.23-.41-.42-.04-.1-.06-.19-.06-.29v-16.75c0-.1.02-.2.06-.29.08-.19.23-.34.42-.42.1-.04.2-.06.29-.06h16.75c.1,0,.2.02.3.06.18.08.34.23.42.42.04.09.06.19.06.29v16.75c0,.1-.02.2-.06.3-.08.19-.23.34-.42.41-.1.04-.2.06-.29.06h-16.76ZM26.44,35.07h13.04l-6.52-6.52-6.52,6.52h0ZM34.04,27.46l6.52,6.52v-13.03l-6.52,6.52h0ZM25.35,33.98l6.52-6.52-6.52-6.52v13.03h0ZM32.95,26.38l6.52-6.52h-13.04l6.52,6.52h0Z"/>
  </g>
</svg>