<?xml version="1.0" encoding="UTF-8"?>
<svg id="Layer_1" xmlns="http://www.w3.org/2000/svg" width="88" height="78" version="1.1" viewBox="0 0 88 78">
  <!-- Generator: Adobe Illustrator 29.8.5, SVG Export Plug-In . SVG Version: 2.1.1 Build 2)  -->
  <defs>
    <style>
      .st0 {
        fill: #fff;
        stroke: #d3d3d3;
        stroke-width: 1.21px;
      }

      .st0, .st1 {
        stroke-miterlimit: 10;
      }

      .st1 {
        fill: #1d1d1d;
        stroke: #4b4b4b;
        stroke-width: 2.5px;
      }

      .st2 {
        fill: #d3d3d3;
      }
    </style>
  </defs>
  <rect class="st1" x="7.18" y="7.95" width="74.63" height="62.1" rx="14.01" ry="14.01"/>
  <polygon class="st2" points="64.1 31.48 58.11 35.51 58.11 38.53 63.55 34.88 63.55 58.58 39.98 58.58 43.8 53.15 40.77 53.15 36.54 59.11 37.56 61.09 64.8 61.09 66.05 59.83 66.05 32.52 64.1 31.48"/>
  <rect class="st0" x="62.94" y="30.66" width="3.73" height="3.73" transform="translate(129.6 65.05) rotate(180)"/>
  <rect class="st0" x="35.7" y="57.97" width="3.73" height="3.73" transform="translate(75.12 119.66) rotate(180)"/>
  <rect class="st0" x="62.94" y="57.97" width="3.73" height="3.73" transform="translate(129.6 119.66) rotate(180)"/>
  <polygon class="st2" points="57.45 24.78 51.43 28.56 51.43 31.52 56.86 28.11 56.86 51.89 33.19 51.89 36.75 46.46 33.75 46.46 29.83 52.46 30.88 54.4 58.11 54.4 59.37 53.15 59.37 25.84 57.45 24.78"/>
  <rect class="st0" x="56.25" y="23.97" width="3.73" height="3.73" transform="translate(116.23 51.67) rotate(180)"/>
  <rect class="st0" x="29.01" y="51.28" width="3.73" height="3.73" transform="translate(61.75 106.29) rotate(180)"/>
  <rect class="st0" x="56.25" y="51.28" width="3.73" height="3.73" transform="translate(116.23 106.29) rotate(180)"/>
  <path class="st2" d="M51.43,47.71h-27.24l-1.04-1.96,11.48-16.88.34-.34,15.76-10.43,1.94,1.04v27.31l-1.25,1.25ZM26.56,45.21h23.62v-23.72l-13.61,9.01-10.01,14.71Z"/>
  <rect class="st0" x="49.56" y="17.29" width="3.73" height="3.73" transform="translate(102.86 38.3) rotate(180)"/>
  <rect class="st0" x="22.33" y="44.6" width="3.73" height="3.73" transform="translate(48.38 92.92) rotate(180)"/>
  <rect class="st0" x="49.56" y="44.6" width="3.73" height="3.73" transform="translate(102.86 92.92) rotate(180)"/>
  <rect class="st0" x="33.83" y="27.72" width="3.73" height="3.73" transform="translate(71.4 59.17) rotate(180)"/>
  <path class="st2" d="M23.51,29.58c-.64,0-1.16-.52-1.16-1.16s.52-1.16,1.16-1.16h8.18l-8.94-8.94c-.22-.22-.34-.51-.34-.82s.12-.6.34-.82.51-.34.82-.34.6.12.82.34l8.94,8.94v-8.18c0-.64.52-1.16,1.16-1.16s1.16.52,1.16,1.16v12.16h-12.16Z"/>
</svg>