<?xml version="1.0" encoding="UTF-8"?>
<svg id="Layer_1" xmlns="http://www.w3.org/2000/svg" version="1.1" viewBox="0 0 88 78">
  <!-- Generator: Adobe Illustrator 29.6.1, SVG Export Plug-In . SVG Version: 2.1.1 Build 9)  -->
  <defs>
    <style>
      .st0 {
        fill: #1d1d1d;
        stroke: #4b4b4b;
        stroke-miterlimit: 10;
        stroke-width: 2.5px;
      }

      .st1 {
        fill: #d3d3d3;
      }
    </style>
  </defs>
  <rect class="st0" x="7.18" y="7.95" width="74.63" height="62.1" rx="14.01" ry="14.01"/>
  <path class="st1" d="M44.5,52.39c-5.04,0-9.15-4.1-9.15-9.15v-8.48c0-2.02.66-3.94,1.9-5.56l.05-.06c1.78-2.25,4.39-3.53,7.2-3.53,5.04,0,9.15,4.1,9.15,9.15v8.48c0,1.94-.61,3.81-1.78,5.39-1.73,2.35-4.48,3.75-7.37,3.75h0ZM37.43,32.02c-.35.9-.53,1.83-.53,2.74v8.48c0,4.19,3.41,7.61,7.61,7.61,1.99,0,3.87-.77,5.31-2.17l.43-.42-12.33-17.46-.47,1.21h-.02ZM44.5,27.16c-1.88,0-3.7.72-5.12,2.02l-.45.42,12.3,17.4.44-1.29c.3-.86.44-1.66.44-2.46v-8.48c0-4.19-3.41-7.61-7.61-7.61Z"/>
</svg>