<?xml version="1.0" encoding="UTF-8"?>
<svg id="Layer_1" xmlns="http://www.w3.org/2000/svg" version="1.1" viewBox="0 0 741.52 283.09">
  <!-- Generator: Adobe Illustrator 29.6.1, SVG Export Plug-In . SVG Version: 2.1.1 Build 9)  -->
  <defs>
    <style>
      .st0 {
        stroke-width: 3.03px;
      }

      .st0, .st1, .st2, .st3 {
        fill: #231f20;
      }

      .st0, .st1, .st4, .st5, .st3, .st6 {
        stroke-miterlimit: 10;
      }

      .st0, .st1, .st4, .st5, .st6 {
        stroke: #e74935;
      }

      .st1, .st4, .st5 {
        stroke-width: 2.84px;
      }

      .st7 {
        fill: #eceaea;
      }

      .st8 {
        fill: #e74935;
        font-family: SofiaPro-SemiBolditalic, 'Sofia Pro';
        font-size: 94.68px;
        font-style: italic;
        font-weight: 600;
        letter-spacing: -.02em;
      }

      .st4, .st9 {
        fill: #fff;
      }

      .st10 {
        fill: #e9e8e8;
        font-family: SofiaPro-Light, 'Sofia Pro';
        font-size: 80px;
        font-weight: 300;
      }

      .st5, .st11, .st6 {
        fill: none;
      }

      .st11 {
        stroke: #fff;
        stroke-linejoin: round;
        stroke-width: 3.52px;
      }

      .st11, .st6 {
        stroke-linecap: round;
      }

      .st3 {
        stroke: #eae8e8;
        stroke-width: 2.84px;
      }

      .st12 {
        fill: #eae8e8;
      }

      .st6 {
        stroke-width: 5.67px;
      }
    </style>
  </defs>
  <text class="st10" transform="translate(368.6 130.39)"><tspan x="0" y="0">CLEANUP </tspan></text>
  <text class="st8" transform="translate(353.73 211.55)"><tspan x="0" y="0">MASTER</tspan></text>
  <g>
    <g>
      <path class="st7" d="M147.58,259.53c1.33-.15-.68-.87.88-.32-.19.37-.46.65-.88.32Z"/>
      <path class="st7" d="M137.09,24.3c-.52.33-1.06.57-1.62.76-.56.22-1.13.38-1.71.5-1.17.24-2.4.31-3.65.36-1.25.07-2.5.2-3.73.39-1.22.21-2.41.48-3.46,1.13-.51.21-.11-1.36-1.25-.79-4.06,2.63-10.95,3.42-16.67,4.05l.18-.48c-1.09.12-1.82,1.77-2.92,2-.11-.23.19-.46-.18-.69.03.81-1.7,1.15-1.9,1.86-.52-.09-.73-.66-1.39-.73l-.22,1.06c-.18.65-.52,1.08-.95,1.38-.42.32-.93.54-1.48.72-1.09.38-2.32.7-3.13,1.72,0-.23.14-.48-.12-.56-1.39,1.49-3.1,2.82-4.91,4.09-.89.66-1.78,1.34-2.67,2-.44.33-.88.67-1.32,1-.42.35-.83.72-1.22,1.08-.04-.35-.24-.9-.65-1.03.37.87-.56,1.84-1.36,2.66-.49-.22-.76.24-1.07.81-.29.59-.63,1.28-1.3,1.5l-.04-.24c-.13,1.39-1.5.49-1.36,1.91l-.96-.17c.52,1.27-1.52.43-1.69,1.48l.2.19c-.35.76-1.1.53-1.48,1.18l-.16-.07c-1.01,1.36-2.2,1.53-1.45,2.25-.99-.18.88-1.42-.6-1.64-3.25,4.61-7.16,8.68-10.58,13.07-.71.25-1.05.49-1.45.37-.17.57-1.11,1.8-.99,2.51.1-.16-.65-.02-.87.18-.9.61.31,1.57-.7,2.22.02-.52-.17-.84-.57-.94.13,1.25-.69,2.22-1.11,3.29-.05-.24.02-.52-.28-.66.07,1.51-1.36,1.79-1.45,3.01l-.3-.66c-1.54,1.1.8,1.09-.36,2.14.03-.4-.24-.42-.42-.6.16,1.73-1.2,3.53-1.57,4.92-.03-.11-.19-.17-.19-.17-.64,1.37-1.65,2.63-1.97,4.33-.51.42-1.22-.83-1.75.71.56.24.35.9.24,1.47-.1.58-.14,1.07.67.93-.73,1.15-2.03,2.94-2.03,3.93-.17-.74-1.63.03-1.26-1.05-.34.17-.69.33-1.02.51-.42-.32.52-.75-.17-.75-.21.55-.36,2.3-.74,2.7.3,1.28,1.19,2.66.76,4.31-.18-.92-1.4-.02-1.41-.61l1.39,3.02c-.13.55-.94-.19-.91.68.32.06.38.46.55.77-.23.15-.42,2.31-1.62,2.2-.52.1.03-.96-.56-.48-.29,1.01.08,1.17-.2,2.18l-.16-.03c-.37.62-.1,2.09.75,1.55.17-.45-.74-.02-.2-.6.51.65.38,1.86.15,2.87-.1-.39-.42-.43-.7-.65.57,1.6.47,3.08.51,4.67.54.15-.89-.79-.53-.95-1.2,1.78.25,4.23-1.2,5.63-.05-.29.81,0,.65-.01-.22.93-1.02.75-.82,1.41-.48-.02.03.8.07,1.45.29.38-.26.13-.22-.43.13.47.24,1.62.19,2.88,0,1.27-.14,2.66-.6,3.64.33,0,1,1.36.94,1.82l-.73-.25c-.47.39-.04,1.58-.68,1.61.42.54.29-.45.13-1.39-.15-.95-.26-1.85,0-1.13-.68.3,1.01,2,.03,1.62-.04.96.74,1.92-.02,2.78.14-.25-.97-.83-.97-.06.04,1.36.33.41.5,1.51l.29.7c.72.07-.12,1.2.7.73-.6.15.33,1.96-.87,1.8l-.94-.2c.06.59.98.97,1.38,1.43-.09.08-.28.23-.43.2,1.42.09-.12,1.4,1.02,2.08-.47,1.23.04,3.1-.85,3.72.44.93,1.07,1.75.82,2.83-.15-.2-.21-.49-.53-.54-.38.7.02.84.29,1.44-.22-.12-.74,1.41-1.2,2.21.5.9,1.25.5,1.74.55-1.32,1,1.22,2.51.06,3.72-.23-.29-.85-1.28-1.12-.46-1.29,1.04,1.22,1.6.76,3.05l1.12-.5c-.62.71,1.01,1.89-.21,1.94.5.39-.12,1.67.99,1.32-.15.6-.13,1.23-.05,1.87.1.63.28,1.27.42,1.89.27,1.23.39,2.38-.47,3.3.24.28.25,1.11.79.81.48-.67-.61-.63-.23-.92.09.28.42.27.58.26-.1.74-.02,1.3-1.13.88-.29,1.7,2.31,1.09,2.38,3.12-.48.04-.62.23-.4.78.36.28.7.57,1.07.84.2,1.27-.82,1-1.59,1.26.34.62.56,1.45,1.23,1.56l-.72,1.11c.52-.81.63.4.92.64l-.29-.25c-.28.23.15.93.37,1.28.44-.25.39-1.09.4-1.56.44.22.52.77,1.07,1.08-.8.11-.15,1.23-.04,1.77.05.65.91.42.95.6-.38.16.29.98-.42.72-.2-.16.21-.6-.25-.8-.15.49-.83.7-.05,1.32.59.47,1.41-.71,1.36.62-.29-.23-.61-.17-.96-.31v1.23s.7-.22.7-.22c-.12.21-.21.13-.28.24.83.04.89,1.53,1.78,1.44.29.5,0,1.31.15,1.85l-.1-.07c-.12.79.46,1.52,1.15,1.82l-.16.04c.11.35.59,1.09,1.17,1.32-.09,1.07-2.33,1.45-1.06,2,.44.85,1.83.76,2.08.21.29,1.76,2.29,2.85,2.03,4.77.37.07.46-.15.84.2.48,1.15,1.36,2.14,2.06,3.17.35.51.66,1.03.87,1.57.23.53.37,1.08.35,1.69-.66-.43-.63.35-.97.59.87.14-.16.97.89.53.51-.41.81-.54.64-1.26,1.13,1.02,2.32,2.9,2.35,3.89,0-.51.35-.37.7-.22-.91.52-.38,1.5.41,1.94l.58-.29-.2.82c.35.13,1.26-.53,1.27.5-.17.18-.34.37-.39.61.94.35,2.39.71,2.55,1.76l-.23,1.18c.33.24,1.17.39.94-.32.55,1.59,1.22,2.35.96,3.27,3.26.75,6,3.43,8.2,5.66l-.39.29c.32.89.89-.32,1.1.32-.51.15-.18,1.16-1.05,1.13.57,1.19,1.71.44,2.44.8.5-.39-.73-.12-.1-.61.24-.08.91,1.49,1.69.87,0,.47-.64.86-1.01,1.04l.87.12c0,1.43-2.88.19-3.02,1.83l.64.33c-.11,1.18-2.17-.33-1.01,1.05.9.14,2.28-.51,2.02-1.26,1.39.79,2-1.28,3.23-.17,0,.72-1.11-.74-1.36.07.14,1.09,1.49.67,1.87,1.32-.38-.77.71-1.1,1.21-.94.41.85-.99.38-.08,1.17.49-.31,1.62,0,1.08-.86,1.09-.73.79,1,1.88.61-.19.93-2.18.89-1.37,2.02.33-.8,1.97.04,2.14-1.38.27.5-.07,1.07-.67,1.27.29.88,2.32-.23,1.58,1.27l.69-.57c.03.36.19.71.25,1.3.54.37,2.37.18,1.62,1.23.24,0,1.46.86,1.45-.21-.47-.96-1.23-.03-1-1.33,0,1.18,1.16.63,1.78.61l-.19.47c.37,0,.94.45,1.38.09-.35.12-.42.48-.27.71l.67-.49c1.28.32-.43,1.3.75,1.74l-1.11.03c.24,0,.25.83.89.93.55-.48,1.33-.98,1.77-1.35.74.09-.12.85.83.55-.4.11-.8.21-1.19.29-.23.13-.04,1.31.81,1.73.65.07,1.94-.38,1.29-1.15.42.21.8.89.23,1.16,1.05.28.23-.72,1.23-.68.12.58.84,1.72,1.18,2.64-.46.21-.92.4-1.38.59l.57.31c-1.16.44.06.84-.8,1.49.33.35.98.26,1.48.22-.49-1.96,2.25-1.32,2.51-2.78,1.73.38-.45,3.63,2.13,2.36-.12-.47,1.1-1.1-.07-1.19.92.61,1.24-1.01,2.18.02-1.11.18.38,1.72-1.23,1.99.27-.4-.57-.62-.82-.58.2.68-.67,1.29.39,1.72.7.13,1.59.47,1.74-.27.29-.77-1.01-.31-.28-.92,1.37.25,1.12,1.49,2.18.36-.84-.22-.72-1.08-.49-1.6l1.04.05-.38.43c1.32.96.79-.73,2.15-.05l.3,1.25c-.68.77-1.95-1.17-2.23.33.91.45,1.5-.17,2.26.51-.24.05-.53,0-.77.05.32.17-.02,2.17,1.75,1.55.86-.18.36-.44.57-.97,1.59.36,2.21.02,3.23.22-.54.99,1.73.62.29,1.37-.33-.74-2.54-1.44-3.43-.64.13,1.43-1.15-.6-1.93.53,1.23.46.75,1.66.68,2.53.33.18.79-.04,1.04-.09.4-.7-.06-.85.18-1.63,1.31.72,2.82.7,3.82.19.35.51-.02,1.23-.61,1.13.88.14,1.76.37,2.61.65.43.14.85.3,1.26.46.41.15.82.3,1.21.46-.72-1.51,1.88.15,1.43-1.07-.79-.49-1.29-1.57-.67-2.01.51.21-.16.54,0,.87.85-.52.78,1.36,1.72.44-1.63.03-.68,1.46-1.21,2.37,1.27-.28-.22.69.9.96.63-.13,1.32-.23,2.01-.27.69-.06,1.39-.1,2.04-.08,1.4,1.24,4,.85,5.43.98.67.62-.02,1.68.77,1.99.96.12-.53-1.33.81-.6l-.17.21c.46-.2,2.51,1.16,3.13-.42l-.59,1.18c.25.16.53-.1.77-.21-.04.4.23.8-.24,1.02.79.94,1.89.05,2.85.11l-.54-.79c1.7-.42,2.73.46,4.34.3l-.1.72.98-.38c-.28.68.57,1.18,1.11.62l-2.61,1.62c-.66-.46.82-.83.44-1.56-.32-.61-1.81-.58-2.11.08.56.14.6-.02,1.06-.23.11,1.02-.75.89-1.24,1.51.3-.01.71.34.8.03-.63.43-1.24.44-2.23.37.71-.32-.3-.65-.02-.91-.16.87-1.14,1.04-2.33.68-.75-1.07-2.36.35-3.75-.13.7-.8,1.52-1.4,2.41-1.63-.81-.57-.97-.12-1.78-.7-.52.6-.97,1.56-2.18,1.79l.04-.66c-1.09.16-1.26,1.17-2.56.73-2.21-.78-4.54-1.17-6.23-1.69l.08-.66c-1.27,1.14-3.28-.27-4.72.02-1.99-1.21-4.88-.79-5.65-2.19-1.95-.39-3.79-.79-5.62-1.26-1.82-.52-3.6-1.21-5.46-2.09l1.02-.62c-.96.37-.23-.68-.94-.83.45,1.04-1.31.5-2.01.8-1.35-1.47-3.85-1.67-5.6-1.88l.24-.62c-2.02.3-3.33-1.51-4.96-2.76-.07-.36-.07-1.08-.64-1.33-1.5.34-1.98,0-3.72-.31-1.01-.66-2.49-1.97-3.27-2.98-2.28-.66-4.2-1.94-6.1-3.28-.92-.71-1.83-1.43-2.78-2.13-.47-.35-.96-.69-1.45-1.01-.48-.34-.97-.68-1.49-.99l.26-.81c-1.12-.46-2.17-1.11-3.16-1.86-.95-.79-1.84-1.69-2.7-2.59-.43-.45-.85-.9-1.26-1.34-.4-.45-.8-.9-1.18-1.33-.78-.85-1.56-1.61-2.38-2.2l1.25-.6c-.53-1.15-2.07-1.89-2.59-1.04-.47-1.21-2.46-1.98-2.11-3.26-.59-1.13-1.41-.85-2.19-1.58-1.11-2.33-1.78-2.99-3.3-4.85l.26.54c.39.05.86-.25.6-.78-.8-.53-1.52-2.9-2.35-1.3-.35-1.29-1.24-2.48-2.14-3.67-.89-1.19-1.76-2.4-1.79-3.8-.28.4-.65-.12-1.03-.21-.54-.99-.9-2.1-1.3-3.12-.38-1.03-.78-1.99-1.5-2.63.04-.42.9.19.55-.65-.38-.42-.51.23-1.02-.27-1.18-1.46-1.69-3.26-2.12-5.03-.21-.88-.42-1.75-.63-2.61-.19-.85-.43-1.67-.76-2.43-1.45-2.58-2.38-5.44-3.29-8.26-.75-2.87-1.5-5.7-2.1-8.44h.32c-.79-.8-.71-1.94-.7-3.01.04-1.08.05-2.09-.98-2.68.23-.49-.13-1.7.52-1.47-1.13-1.35.22-4.23-1.11-6.24,0,.2.07.31.23.52.4-2.22-.65-4.05-.19-6.39.15.22.28.64.6.68.54-.91-1.49-2.01,0-2.57-.04-.5-.79-.32-.72-.01.43-5-.68-10.35-.55-15.65,1.18-3.68,2.53-.02,1.7-3.05.32-.21-.56-.23-.24-.24-.3-1.19,1.89-1.57,1.19-2.44-.97.21-.46-.59-1.02-.68.88-2.19,1.85-2.49,1.4-4.38l.47.21c-1.09-2.32.19-4.56-1.03-6.66,1.14-5.76,2.41-11.41,4.14-16.9,1.74-5.48,3.76-10.87,6.38-16.04,2.83-4.97,5.65-9.89,8.92-14.55,3.3-4.64,6.91-9.11,11.23-13.05,2.82-1.07,2.95-1.19,4.68-3.68.06.24-.04.4.24.4-.65-.89,1.47-1.49.98-2.43,1.66-1.38,3.16-2.79,4.77-4.12.79-.68,1.58-1.37,2.39-2.06.84-.66,1.7-1.31,2.59-1.98-.5.51-.26,1.41.36.87l.3-1.06.29.16c.36-.46.56-1.26-.11-1.19,1.04-.95,2.21-1.73,3.35-2.54,1.15-.79,2.31-1.58,3.54-2.24,1.22-.68,2.45-1.34,3.69-1.97,1.26-.59,2.54-1.14,3.81-1.69.64-.27,1.26-.56,1.91-.81l1.95-.72c1.3-.47,2.57-.99,3.88-1.42,2.62-.85,5.17-1.8,7.77-2.65,2.58-.44,6.03-1.72,8.73-2.63,8.51-.45,15.85-.12,24.17-1.15,0,0-1.1,2.78-4.4,3.51Z"/>
      <path class="st7" d="M145.98,259.55c-.26-.55-1.16-.89-.39-1.56.06.5.51,1.09.39,1.56Z"/>
      <path class="st7" d="M122.74,250.76c-.07.15-.28-.29-.33-.4.29.03.66-.34.82-.01-.3-.03-.31.22-.49.41Z"/>
      <path class="st7" d="M116.96,248.88c.22-.43,1.56-.42,2.3-.26l-2.3.26Z"/>
      <path class="st7" d="M112.24,245.32c-.32-.54-.12-.7.48-.48-.04.25-.28.3-.48.48Z"/>
      <path class="st7" d="M111.51,246.2c-.44-.14-.57-.48-.69-.81-.12.39,1.1.11.69.81Z"/>
      <path class="st7" d="M100.91,240.33c-.28-.09-1.02,0-1.03-.58.11.46,1.53.05,1.03.58Z"/>
      <path class="st7" d="M95.61,238.42c-.15-.11-.17-.22-.42-.2-.19-.34.29-.48.56-.39l-.14.6Z"/>
      <polygon class="st7" points="38.89 157.27 39.19 157.85 38.72 157.83 38.89 157.27"/>
      <path class="st7" d="M41.32,112.09c-.14-.67.53-.31.63-.39-.09.55-.51-.35-.63.39Z"/>
      <polygon class="st7" points="47.66 88.04 47.58 88.21 46.74 87.73 47.66 88.04"/>
    </g>
    <g>
      <path class="st7" d="M32.82,141.25c-.3.67.87.26-.02.59-.24-.3-.37-.61.02-.59Z"/>
      <path class="st7" d="M169.9,118c-1.73,2.46-3.89-.07-5.76,1.49-.22.1.08-1.35-.42-1.03-1.81,1.9-4.59.72-6.76-.78l.13-.38c-.41-.28-.92.98-1.36.8,0-.25.14-.36.04-.71-.11.76-.79.34-.98.91-.17-.3-.15-.91-.38-1.25l-.25.87c-.7,2.07-1.69-.17-2.64.9.05-.2.14-.36.06-.56-1.52,1.24-3.43,1.08-5.13,1.57.06-.31.12-.87.02-1.22-.07.92-.6,1.16-1.05,1.35-.22-.94-.77.88-1.31.37l.04-.21c-.38,1-.6-.56-.9.63l-.26-.74c-.15,1.33-.59-.68-.9,0l.02.27c-.3.33-.48-.33-.76-.1l-.03-.15c-.66.37-1.07-.37-1.03.67-.25-.82.64-.39.25-1.59-2.18,1.11-4.46.95-6.68,1.01-.27-.41-.43-.54-.5-.93-.21.21-.83.21-1.01.74.07-.02-.16-.53-.28-.58-.42-.37-.4,1.16-.86.72.17-.29.21-.62.14-1.01-.35.83-.86.73-1.29,1.02.06-.18.17-.29.14-.61-.45.94-.9-.15-1.3.46l.13-.61c-.72-.69-.15,1.26-.76.87.13-.2.07-.43.09-.67-.51,1.12-1.42.81-1.96,1.21.03-.08.01-.25.01-.25-.6.17-1.25-.14-1.88.38-.26-.25,0-1.47-.63-1.21.09,1.2-1.06.55-.61,1.89-.56-.17-1.45-.57-1.78-.14.22-.47-.35-1.45.09-1.58l-.39-.71c.02-.5.36.15.22-.47-.23.06-.86.57-1.08.39-.38.76-.68,2.15-1.35,2.34.29-.49-.27-1.31-.06-1.53l-.8,2.35c-.22.07-.11-.95-.42-.61.04.32-.09.52-.17.78-.09-.13-.92.35-1.1-.83-.13-.46.35-.27.07-.68-.42.04-.41.44-.83.48l-.02-.16c-.29-.17-.78.57-.43,1.2.19.02-.12-.7.18-.39-.14.71-.61.94-1.03.99.13-.2.09-.52.12-.86-.49.98-1.06,1.33-1.65,1.77.04.56.15-1.04.27-.75-.86-.71-1.56,1.26-2.32.18.1-.11.13.79.11.63-.39-.04-.44-.85-.67-.53-.07-.48-.3.18-.55.35-.1.36-.09-.23.13-.3-.33.44-1.69,1.3-2.59.68.05.32-.4,1.21-.59,1.19v-.75c-.21-.43-.63.12-.72-.51-.32.93,1.5-.91,1.01-.16-.2-.6-.65,1.25-.63.23-.38.06-.67.93-1.11.27.12.11.21-1.05-.1-.97-.53.18-.12.37-.54.65l-.25.33c.06.72-.5-.05-.21.73-.13-.59-.75.44-.82-.76l-.02-.94c-.23.09-.28,1.02-.42,1.46-.04-.09-.12-.27-.13-.42.12,1.44-.58-.07-.73,1.07-.55-.46-1.26.08-1.59-.78-.33.48-.61,1.05-1.08.8.07-.15.18-.2.17-.51-.32-.39-.34,0-.56.27.03-.22-.64-.77-1-1.24-.32.48-.1,1.23-.08,1.71-.52-1.37-.94,1.05-1.53-.17.1-.21.46-.77.1-1.08-.52-1.36-.56,1.14-1.2.53l.29,1.16c-.34-.69-.72.79-.82-.42-.13.45-.7-.3-.49.83-1.04-.85-2.12.87-2.97-1.1-.1.21-.46.06-.3.63.31.61.24-.5.38-.07-.11.05-.09.37-.08.52-.32-.22-.55-.28-.43-1.26-.73-.62-.36,2.02-1.23,1.68-.03-.48-.12-.65-.35-.54l-.32.87c-.54-.12-.46-1.03-.59-1.83-.26.17-.6.2-.63.82l-.49-.94c.36.68-.15.52-.25.74l.1-.22c-.1-.33-.39-.06-.53.07.12.49.47.63.67.74-.08.38-.31.33-.43.78-.07-.79-.54-.48-.77-.52-.28-.12-.16.75-.24.74-.07-.41-.42,0-.32-.6.06-.14.26.36.34-.02-.21-.27-.31-.98-.57-.41-.19.43.33,1.53-.24,1.12.1-.22.07-.53.12-.83l-.53-.32.1.71c-.09-.17-.06-.24-.11-.33,0,.77-.66.35-.61,1.21-.22.11-.57-.41-.8-.45l.03-.07c-.34-.37-.65-.03-.79.49l-.02-.16c-.16-.03-.48.14-.59.59-.47-.47-.62-2.66-.87-1.69-.37.09-.35,1.41-.11,1.83-.77-.36-1.31.93-2.15-.06-.04.3.06.47-.11.68-1.06-.12-1.9,1.26-2.97.04.22-.36-.13-.71-.22-1.11-.1.69-.42-.59-.28.51.16.63.2.95.53,1.14-.51.48-1.39.68-1.84.15.23.26.15.48.06.7-.18-1.02-.65-1.08-.89-.65l.1.63-.36-.59c-.08.23.16,1.33-.3.81-.07-.23-.15-.47-.25-.64-.22.58-.49,1.54-.98,1.11l-.51-.83c-.13.13-.26.73.07.93-.75-.4-1.17-.38-1.56-1.11-.62,2.11-2.09,2.63-3.34,2.84l-.09-.47c-.44-.34.05.85-.26.6-.01-.47-.51-.88-.4-1.49-.61-.35-.38.97-.63,1.26.12.61.14-.45.29.32,0,.23-.78-.28-.59.64-.22-.32-.32-1.02-.36-1.4l-.16.52c-.66-.96.26-2.12-.49-3.32l-.23.22c-.53-.88.41-1.28-.37-1.41-.17.53-.03,1.92.34,2.24-.53.42.35,2.24-.31,2.35-.33-.48.48-.27.13-.99-.52-.64-.49.58-.84.4.4.26.42,1.24.28,1.46-.46-.33-.05-.92-.54-.88.08.54-.22,1.05.25,1.31.2,1.23-.58-.19-.55.79-.41-.79-.12-2.05-.76-2.32.33.78-.29,1.27.35,2.37-.27-.18-.49-.8-.5-1.33-.44-.41-.21,1.69-.81.13l.17.85c-.17-.24-.36-.39-.65-.78-.25.07-.42,1.37-.81.14-.04.15-.61.29-.11,1.07.52.4.19-.76.76.32-.55-.85-.46.29-.55.67l-.19-.46c-.06.22-.36.22-.26.75,0-.3-.16-.61-.3-.69l.13.76c-.35.52-.55-1.22-.95-.85l.16-.68c-.04.15-.43-.47-.58-.17.14.69.26,1.53.37,2.06-.16.38-.38-.7-.4.06l.06-.9c-.03-.23-.62-1-.97-.86-.15.3-.15,1.37.34,1.6-.17.07-.57-.24-.6-.76-.32.36.31.68.12,1.2-.3-.38-.97-.85-1.48-1.38l-.05-1.21-.25.08c-.01-.98-.41-.61-.58-1.59-.23-.09-.31.3-.37.61,1.04,1.27.25,2.23.91,3.5-.48.63-1.69-3.07-1.52-.71.25.3.35,1.44.59.89-.45.02.28,1.44-.41,1.09.12-.69-.93-1.19-.76-2.18.15.45.42.22.44.06-.37-.44-.51-1.35-.93-1.17-.2.23-.54.4-.2,1.07.33.75.35-.24.51.59-.38.47-.96-.64-.59.78.27-.23.68.51.89,1.03l-.22.46-.15-.53c-.73-.12.22.98-.38,1.07l-.69-.88c-.24-.9.97.04.27-1.3-.39.1-.2.85-.7.64.02-.15.11-.23.14-.38-.15,0-1.1-1.76-1.15-.47-.08.53.15.52.38,1.04-.52.4-.42,1.03-.74,1.28-.4-1.03-.68.22-.77-.99.47.5,1.22.02,1.01-1.02-.76-1.1.54-.03.13-1.29-.49.17-1-1.01-1.43-1.74-.16,0-.15.38-.17.54.28.75.44.65.79,1.39-.61.06-.92.71-.86,1.55-.34-.27-.64-1.01-.46-1.18-.51.52-1.21.75-1.91.83.97.96-.51.59.25,1.42.45.1,1.13.79,1.23,1.39-.23.02-.26-.51-.46-.71.09.75-.91-.81-.62.29.35-.64-.64-1.45-1.01-2.39-.14.71-.32-.65-.73-.44-.15.69-.39,1.39-.71,1.82-1.02-.51-1.37.79-1.82,1.1-.53-.28-.98-1.36-1.36-1.34-.3.24.91.88.16.76l-.08-.22c.02.31-1.28-.05-.46,1.39l-.58-1.11c-.15-.03-.07.26-.06.41-.24-.33-.56-.55-.57-.87-.79-.49-.53.54-.82.79l.64.44c-.18.82-.91.54-1.23,1.13l-.46-.56v.56c-.39-.58-.97-.7-.71-.12-.17-.66-.29-1.3-.4-1.97.49.14.33.86.93,1.28.52.38.83-.13.47-.74-.23.08-.14.21-.1.53-.7-.72-.41-.91-.68-1.55-.07.11-.4-.01-.22.25-.12-.53.03-.77.34-1.04.01.47.5.4.59.69-.51-.72-.35-1.16.21-1.26.88.62.4-1.08,1.05-1.2.3.88.46,1.64.39,2.13.54.17.31-.25.85-.07-.23-.64-.7-1.59-.51-2.17l.38.54c.18-.5-.33-1.33.24-1.45.98-.21,1.81-.7,2.47-.99l.34.56c-.33-1.43.92-1.05,1.11-1.84,1.09.16,1.49-1.45,2.4-.64,1.21-1.17,2.33-2.1,3.94-2.54l.11.99c0-.76.39.44.6.2-.6-.58,0-1.07-.04-1.7.95.4,1.52-.72,1.91-1.54l.26.61c.19-1.37,1.31-.62,2.15-.7.18.23.52.76.73.61.07-1.15.31-1.15.72-2,.45-.16,1.27-.16,1.85.07,1.25-1.99,3.3-1.52,4.84-2.91l.34.71c1.3-2.09,3.83-1.27,5.12-2.39l.17,1.32c.56.29.98-.58.64-1.46.56.29,1.03-.89,1.58.1.54.13.45-.73.81-.99,1.08.27,1.41.08,2.26-.37l-.24-.03c-.04.31.07.86.32.89.26-.43,1.32.06.65-1.4.58.34,1.11.03,1.64-.25.54-.25,1.08-.45,1.67.06-.16-.41.06-.53.11-.84.86-.17,1.92.53,2.47-.31.18.19-.08.76.27.74.18-.2-.1-.55.11-.84,1.25-1.04,2.96.32,4.18-.11,1.05-.6,2.18-.94,3.32-1.11,1.14-.17,2.27-.25,3.34-.46l.02.32c.56-1.29,1.86,1,2.19-.88.21.28.67.06.62.68.46-.92,1.71.59,2.4-.6-.08-.02-.12.05-.19.2.92.58,1.55-.47,2.51.05-.07.15-.23.27-.21.59.41.56.65-1.44,1.02.06.19-.04.05-.78-.06-.72,2,.34,3.97-.77,5.96-1.32,1.54.78.34,2.55,1.37,1.31.12.28.01-.59.06-.28.4-.46.85,1.64,1.08.81-.21-.92.16-.54.11-1.11.94.53,1.19,1.35,1.82.58v.5c.69-1.46,1.7-.81,2.26-2.47,1.12-.17,2.24-.4,3.34-.61,1.1-.2,2.2-.4,3.29-.59,2.18-.4,4.36-.79,6.57-1,2.19.03,4.35-.19,6.52-.34,2.17-.1,4.35-.1,6.57.28,1.07,1.28,1.15,1.24,2.27.69-.04.21-.11.26-.03.46.03-1.06.8-.12.89-1.13,1.64.17,3.14-.15,4.83-.2-.27.12-.39.99-.07.92l.32-.69.06.29c.21-.16.44-.69.22-1.03,4.24-1.06,8.4,1.2,12.53.96.98.46,2.38.06,3.45-.14,3.15,1.45,5.96,2.63,9.19,1.67,0,0-.49,2.74-1.82,3.36Z"/>
      <path class="st7" d="M33.25,140.67c.47.28.94.23,1.22.95-.37-.34-.91-.59-1.22-.95Z"/>
      <path class="st7" d="M44.27,139.65c-.06-.14.22.13.29.2-.08.08.04.53-.18.32.08-.09-.05-.3-.11-.52Z"/>
      <path class="st7" d="M46.52,138.88c.18.44-.1,1-.33,1.18l.33-1.18Z"/>
      <path class="st7" d="M49.3,139.69c.34.29.38.51.14.6-.12-.22-.1-.37-.14-.6Z"/>
      <path class="st7" d="M49,138.65c.16-.08.36.14.55.35-.17-.37-.28.39-.55-.35Z"/>
      <path class="st7" d="M53.9,138.09c.09-.08.17-.55.46-.09-.25-.31-.29.77-.46.09Z"/>
      <path class="st7" d="M55.74,136.67c.08,0,.14.08.17-.07.2.16.18.53.1.61l-.27-.54Z"/>
      <polygon class="st7" points="95.82 125.86 95.61 126.12 95.58 125.66 95.82 125.86"/>
      <path class="st7" d="M114.2,123.94c.23-.32.21.43.25.49-.22.07.04-.59-.25-.49Z"/>
      <polygon class="st7" points="124.04 120.99 123.97 121 123.94 120.04 124.04 120.99"/>
    </g>
    <path class="st6" d="M151.19,259.23c65.66,0,118.89-53.23,118.89-118.89S216.85,21.45,151.19,21.45"/>
    <g>
      <path class="st7" d="M149.2,21.07c-.76-.68-.34.93-.68-.31.38-.13.75-.13.68.31Z"/>
      <path class="st7" d="M147.85,257.98c-.35-1.89.42-3.37,1.3-4.86.9-1.48,1.82-3.01,1.79-4.77.06-.38,1.19.65,1.25-.25-.26-1.82.34-3.72,1.37-5.54.99-1.84,2.36-3.62,3.75-5.14l.27.35c.53-.58-.35-1.84.06-2.51.24.08.26.35.64.3-.66-.44.12-1.43-.31-1.93.38-.19.94.04,1.39-.22l-.68-.7c-1.58-1.82,1.12-2.74.61-4.66.17.14.27.34.5.28-.44-2.93.79-6.02,1.16-8.99.27.2.78.46,1.16.38-.85-.39-.84-1.34-.81-2.15,1-.1-.49-1.54.25-2.3l.18.13c-.78-.92.81-.84-.19-1.68l.83-.24c-1.21-.62.92-.79.41-1.51l-.27-.05c-.18-.6.54-.7.45-1.24h.16c-.08-1.23.78-1.71-.23-1.93.9-.21.12,1.19,1.44.84-.1-2,.11-3.94.45-5.86.35-1.92.83-3.81,1.14-5.71.49-.35.66-.6,1.07-.63-.14-.42.07-1.47-.38-1.91,0,.13.57-.15.65-.34.51-.62-.99-.96-.39-1.63.22.35.53.51.93.48-.68-.79-.4-1.63-.51-2.44.15.15.22.35.55.38-.75-.99.47-1.5.03-2.32l.54.37c.93-1.07-1.16-.55-.58-1.51.15.28.4.23.63.31-.94-1.13-.37-2.62-.6-3.63.07.07.24.08.24.08.01-1.06.5-2.1.19-3.31.32-.38,1.43.34,1.37-.8-1.2-.12-.23-1.94-1.67-1.47.33-.91.99-2.34.67-3.02.4.48,1.53-.28,1.52.51l.8-.51c.49.15-.24.59.4.48,0-.4-.36-1.61-.13-1.94-.66-.82-1.96-1.64-1.99-2.84.41.61,1.35-.17,1.52.23l-2.13-1.89c-.02-.4.95.01.7-.59-.32,0-.49-.27-.73-.47.15-.13-.14-1.65,1.06-1.71.48-.13.19.66.65.27.06-.73-.34-.8-.28-1.52h.16c.22-.46-.36-1.46-1.07-.99-.07.33.72-.06.33.4-.65-.4-.76-1.25-.7-1.98.17.26.48.26.81.39-.81-1.05-1.05-2.1-1.38-3.22-.56-.06,1,.48.69.62.86-1.34-.93-2.95.28-4.03.09.2-.8.05-.65.05.11-.67.92-.58.65-1.04.48-.01-.12-.56-.24-1.02-.33-.25.24-.1.27.29-.37-.65-.95-3.2-.17-4.61-.32.01-1.11-.94-1.05-1.27l.73.16c.46-.28,0-1.12.64-1.15-.86-.75.6,2.77-.04,1.78.63-.22-1.1-1.39-.1-1.14.02-.67-.79-1.35-.09-1.96-.12.18,1.02.58.98.04-.11-.96-.35-.28-.58-1.07l-.29-.5c-.72-.06.11-.85-.7-.52.6-.1-.34-1.39.86-1.26l.94.16c-.06-.41-.98-.7-1.39-1.04.09-.05.28-.15.43-.13-1.44-.1.14-.98-.97-1.49.52-.85.09-2.19,1-2.58-.42-.67-.93-1.28-.61-2.03.13.15.17.36.48.41.43-.47.06-.59-.17-1.03.21.1.86-.94,1.39-1.47-.42-.66-1.2-.44-1.68-.51,1.45-.6-.9-1.86.37-2.61.2.23.72.96,1.07.41,1.41-.61-1.08-1.21-.41-2.19l-1.18.25c.72-.44-.71-1.42.49-1.33-.43-.32.37-1.15-.78-1.03.94-1.61-.66-3.85,1.38-4.89-.2-.22-.01-.8-.6-.67-.63.4.47.52.03.67-.04-.2-.36-.24-.51-.26.25-.5.33-.9,1.3-.46.69-1.13-1.98-1.08-1.56-2.49.48.05.66-.07.57-.48-.27-.25-.56-.5-.85-.75.14-.91,1.05-.56,1.86-.62-.17-.48-.16-1.08-.78-1.27l.98-.64c-.71.46-.51-.38-.72-.59l.21.22c.33-.11.09-.66-.03-.94-.5.09-.66.68-.79.99-.37-.23-.31-.62-.75-.92.8.07.52-.82.58-1.21.14-.45-.74-.46-.72-.59.41-.04.03-.72.62-.41.14.14-.38.37,0,.59.29-.31,1.01-.32.45-.89-.42-.43-1.56.21-1.11-.68.21.21.53.24.82.39l.36-.83h-.72c.18-.11.24-.04.34-.09-.77-.19-.31-1.22-1.17-1.34-.1-.4.45-.89.51-1.29l.07.07c.4-.51.08-1.12-.43-1.48h.16c.04-.25-.11-.86-.55-1.15.49-.7,2.7-.44,1.72-1.09-.09-.66-1.42-.93-1.86-.62.37-1.23-.94-2.47.06-3.68-.31-.14-.48-.02-.68-.35.11-1.78-1.22-3.58.05-5.13.35.47.72-.05,1.13-.11-.68-.34.62-.58-.5-.6-.64.12-.96.12-1.18.64-.43-1-.67-2.57-.15-3.22-.26.33-.49.13-.72-.07,1.04-.06,1.09-.84.64-1.37h-.64s.59-.46.59-.46c-.23-.19-1.35-.06-.83-.72.24-.06.48-.13.64-.26-.6-.53-1.59-1.24-1.15-1.96l.84-.67c-.14-.26-.76-.64-.95-.12.39-1.19.36-1.91,1.1-2.39-2.18-1.6-2.84-4.28-3.09-6.5l.48-.02c.33-.67-.87-.15-.63-.62.48.11.88-.64,1.51-.28.33-.94-1.01-.93-1.32-1.43-.63.04.47.36-.32.41-.24-.05.26-1.26-.69-1.2.32-.28,1.03-.26,1.43-.22l-.54-.42c.96-.86,2.2,1.04,3.41.11l-.24-.45c.88-.66,1.33,1.05,1.44-.23-.55-.43-1.98-.6-2.3-.05-.46-1.03-2.3-.04-2.48-1.2.47-.43.34.89,1.05.51.62-.7-.67-1-.52-1.53-.22.61-1.26.36-1.51.06.3-.68.96.18.86-.66-.56-.02-1.14-.68-1.35.05-1.27-.02.14-.93-.9-1.16.78-.46,2.16.4,2.37-.61-.79.33-1.37-.86-2.47-.1.15-.41.79-.6,1.35-.46.38-.63-1.77-.87-.19-1.43l-.87.03c.23-.22.39-.5.77-.87-.09-.45-1.46-1.15-.19-1.43-.15-.12-.38-1.13-1.13-.52-.35.75.81.56-.27,1.21.86-.69-.34-.88-.76-1.15l.47-.18c-.25-.16-.28-.68-.84-.68.32.09.63-.08.7-.28l-.8-.03c-.61-.77,1.23-.55.79-1.34l.75.49c-.16-.11.44-.58.1-.93-.71.02-1.6-.05-2.16-.04-.42-.39.69-.42-.12-.7l.98.39c.25.03.99-.72.79-1.36-.34-.35-1.48-.7-1.67.05-.1-.32.18-.88.74-.77-.43-.66-.69.3-1.28-.2.37-.38.79-1.36,1.3-2.04l1.29.33-.11-.44c1.05.3.6-.49,1.63-.45.07-.35-.36-.62-.7-.83-1.22,1.32-2.37-.34-3.66.34-.75-1.05,3.09-1.78.55-2.33-.29.31-1.52.07-.88.68-.09-.78-1.53-.05-1.24-1.09.77.45,1.16-1.14,2.27-.48-.47.09-.18.63,0,.73.42-.47,1.39-.38,1.15-1.14-.28-.42-.51-1.04-1.19-.71-.77.28.31.67-.57.64-.57-.82.57-1.37-.93-1.28.29.54-.46.95-1,1.12l-.54-.55.56-.05c.03-1.19-1.03,0-1.23-1.06l.84-.83c.98-.07.12,1.62,1.49.95-.15-.7-.96-.66-.82-1.41.17.1.28.27.46.36-.04-.25,1.76-1.16.3-1.71-.61-.33-.55.06-1.09.24-.56-1-1.21-1.11-1.55-1.76,1.08-.25-.35-1.24.99-.89-.47.58.15,2.08,1.28,2.1,1.08-.84.14.9,1.47.68-.29-.87.93-1.27,1.67-1.7-.04-.26-.46-.38-.63-.47-.78.17-.65.48-1.41.78-.16-1.04-.92-1.81-1.83-2.06.25-.46,1.02-.65,1.24-.29-.63-1.07-1.03-2.31-1.26-3.47-.91,1.18-.78-1.07-1.58-.18-.03.68-.68,1.52-1.34,1.43-.07-.38.53-.21.72-.46-.84-.17.75-1.14-.46-1.14.81.85,1.54-.42,2.55-.63-.84-.52.68-.25.37-.99-.84-.52-1.6-1.26-2.19-1.96.4-1.41-1.19-2.56-1.65-3.44.24-.7,1.42-.9,1.33-1.49-.33-.58-.87,1-.87-.12l.25-.02c-.37-.14-.16-1.98-1.75-1.45l1.24-.32c.01-.22-.32-.23-.51-.31.35-.2.57-.57.95-.42.47-.96-.73-1.09-1.1-1.64l-.42.73c-1.07-.69-.81-1.73-1.6-2.53l.63-.35-.72-.32c.68-.23.73-.99.05-.97.8.16,1.61.34,2.42.53-.11.63-1.02,0-1.47.63-.38.53.28,1.32.97,1.11-.13-.38-.28-.32-.65-.45.79-.63,1.06-.09,1.79-.16-.14-.16-.03-.58-.32-.45.63.11.91.43,1.27,1.02-.57-.21-.41.53-.75.52.78-.39,1.38.04,1.55.92-.61,1.02,1.32,1.11,1.54,2.12-.98.05-1.85-.07-2.45-.42-.11.75.34.59.22,1.34.73-.04,1.74-.32,2.47.22l-.57.33c.61.51,1.49.08,1.72,1.01.39,1.59,1.12,3.06,1.49,4.22l-.58.31c1.55.06,1.35,1.87,2.28,2.47.05,1.65,1.81,2.92,1.04,4.06.71,1.19,1.39,2.31,2,3.47.56,1.17,1.02,2.4,1.34,3.79l-1.06-.15c.82.26-.42.48-.14.91.55-.78,1.16.35,1.82.51-.32,1.42.96,2.72,1.88,3.62l-.62.23c1.49.75.81,2.36.99,3.76-.22.23-.75.63-.57,1.02,1.23.46,1.27.87,2.21,1.78.19.8.23,2.16.02,3.07,2.12,2.66,2.01,5.93,3.42,8.91l-.72.38c1.1,1.37,1.45,3.07,1.7,4.73.12.83.22,1.65.37,2.42.13.77.29,1.49.59,2.11l-1.34-.05c-.28.88.61,1.82,1.51,1.47-.28.88.93,1.97-.07,2.65-.12.88.75.95,1.03,1.63-.26,1.76-.04,2.37.41,3.93.01-.14.03-.27.04-.41-.31-.14-.87-.09-.9.32.42.55-.13,2.23,1.38,1.45-.73,1.81,1.14,3.91.09,5.7.42-.18.54.23.85.38.17,1.5-.55,3.15.31,4.29-.19.26-.77-.32-.75.29.2.35.57-.04.84.39.95,2.38-.53,4.99-.19,7.19.53,1.94.76,3.95.89,5.94.07,1.99.03,3.96.14,5.85l-.32-.04c1.23,1.24-1.18,2.98.66,3.96-.3.3-.12,1.14-.74.93.87,1-.75,2.82.36,4.27.03-.13-.04-.21-.18-.36-.7,1.46.21,2.76-.45,4.31-.13-.16-.23-.44-.54-.49-.62.59,1.31,1.43-.23,1.74,0,.34.76.25.72.04-.67,3.37.25,7.01.5,10.56-1.06,2.49-2.58.04-1.56,2.08-.3.15.58.15.26.16.38.79-1.78,1.11-1.01,1.68.95-.17.5.38,1.07.43-.7,1.51-1.57,1.76-.93,3.02l-.49-.12c1.31,1.51.46,3.11,1.99,4.43-.02.99-.04,1.97-.06,2.95-.04.98-.08,1.96-.12,2.93-.06,1.95-.11,3.89-.17,5.82-.08,1.93-.06,3.87-.24,5.79-.16,1.92-.34,3.85-.56,5.77-.35,1.89-.62,3.77-.88,5.66l-.96,5.63c-.32,1.88-.67,3.76-1.07,5.64-.45,1.87-1,3.73-1.63,5.59-1.67,1.5-1.66,1.63-1.58,3.7-.19-.13-.21-.26-.43-.18,1.01.34-.21,1.4.73,1.82-.93,2.74-1.32,5.38-2.08,8.26.01-.49-.77-.94-.84-.39l.5.75h-.31c.05.42.45.97.88.68-1.25,7.47-5.48,13.85-7.98,20.74-1.01,1.47-1.62,3.91-2.18,5.75-.44.58-.87,1.15-1.29,1.72-.44.56-.87,1.12-1.3,1.67-.86,1.11-1.6,2.22-2.38,3.35-.78,1.13-1.43,2.29-2.11,3.51-.67,1.25-1.2,2.45-1.89,4.01,0,0-.44-.58-.82-1.43-.41-.83-.71-1.92-.44-3.09Z"/>
      <path class="st7" d="M149.94,21.95c-.32.47-.23,1.17-1.09,1.13.39-.33.66-.92,1.09-1.13Z"/>
      <path class="st7" d="M152.9,39.4c.15-.04-.11.3-.17.38-.11-.17-.6-.17-.41-.43.12.17.33.04.58.04Z"/>
      <path class="st7" d="M154.22,43.41c-.46.11-1.13-.59-1.4-1.05.47.34.95.69,1.4,1.05Z"/>
      <path class="st7" d="M153.76,47.76c-.26.45-.5.44-.64.01.23-.12.4-.02.64-.01Z"/>
      <path class="st7" d="M154.87,47.65c.12.3-.08.55-.28.78.38-.15-.5-.62.28-.78Z"/>
      <path class="st7" d="M156.25,56.12c.1.18.62.49.16.82.3-.32-.88-.77-.16-.82Z"/>
      <path class="st7" d="M158.02,59.72c0,.13-.07.21.1.31-.15.28-.55.14-.64-.04l.54-.27Z"/>
      <polygon class="st7" points="168.99 131.51 168.75 131.08 169.22 131.14 168.99 131.51"/>
      <path class="st7" d="M167.85,163.62c.25.46-.47.26-.55.33,0-.39.57.19.55-.33Z"/>
      <polygon class="st7" points="168.27 181.14 168.28 181.01 169.23 181.18 168.27 181.14"/>
    </g>
    <rect class="st1" x="145.61" y="14.41" width="13.33" height="13.33" transform="translate(131.2 173.35) rotate(-90)"/>
    <rect class="st0" x="143.76" y="254.44" width="14.25" height="14.25" transform="translate(-110.68 412.45) rotate(-90)"/>
    <g>
      <line class="st4" x1="269.09" y1="136.93" x2="269.09" y2="214.76"/>
      <g>
        <circle class="st2" cx="269.09" cy="213.29" r="5.14"/>
        <circle class="st5" cx="269.09" cy="213.29" r="5.14"/>
      </g>
    </g>
    <g>
      <line class="st1" x1="269.09" y1="137.16" x2="269.09" y2="59.33"/>
      <circle class="st1" cx="269.09" cy="60.8" r="5.14"/>
    </g>
    <rect class="st1" x="259.03" y="127.11" width="20.1" height="20.1" transform="translate(131.93 406.24) rotate(-90)"/>
    <path class="st3" d="M283.72,249.58c0,.18-7.8-29.73-7.8-29.73l28.26,10.33-9.49,5.48,14.13,11.6-7.17,6.96-11.6-13.92-6.33,9.28Z"/>
    <g>
      <path class="st9" d="M244.24,120.28c-.26,0-.5-.1-.68-.28-6.91-6.91-16.09-10.72-25.85-10.72s-18.94,3.81-25.85,10.72c-.18.18-.42.28-.68.28s-.5-.1-.68-.28c-.37-.37-.37-.98,0-1.36,7.27-7.27,16.93-11.28,27.2-11.28s19.93,4,27.2,11.28c.18.18.28.42.28.68s-.1.5-.28.68c-.18.18-.42.28-.68.28Z"/>
      <path class="st9" d="M217.7,134.62c-4.42,0-8.02-3.6-8.02-8.02s3.6-8.02,8.02-8.02,8.02,3.6,8.02,8.02-3.6,8.02-8.02,8.02Z"/>
    </g>
    <path class="st11" d="M168.75,197.08c11.75.46,24.9-1.83,36.93-10.35"/>
    <g>
      <path class="st12" d="M141.13,190.09s-.03,0,0,0h0Z"/>
      <path class="st12" d="M153.72,191.96s.01,0,.01,0c.02-.1.04-.19.06-.26l-.07.26Z"/>
      <path class="st12" d="M155.69,192.85s0,.02,0,.03c0-.06.01-.13,0-.03Z"/>
      <path class="st12" d="M148.88,192.23s-.03.01-.04.04c.01-.02.03-.04.04-.04Z"/>
      <path class="st12" d="M137.42,189.38s0,0,.01,0c0-.02,0-.04,0-.07v.07Z"/>
      <path class="st12" d="M137.52,189.23c.01.09-.07.13-.09.15,0,.15.04.18.11.14.06-.15-.04-.16-.02-.29Z"/>
      <path class="st12" d="M131.19,186.91l.05-.05s-.03.03-.05.05Z"/>
      <path class="st12" d="M147.64,200.12s-.03.02-.04.03c.02,0,.03,0,.04-.03Z"/>
      <path class="st12" d="M132,187.56l.14-.22c-.06.09-.1.16-.14.22Z"/>
      <path class="st12" d="M153.79,191.7l.03-.1s-.02.06-.03.1Z"/>
      <path class="st12" d="M157.59,193.15c0,.08,0,.14,0,.2h0s0-.2,0-.2Z"/>
      <path class="st12" d="M167.44,197.41v-.1s-.04.18-.04.18c.02-.02.03-.05.04-.08Z"/>
      <path class="st12" d="M160.17,194.43s0-.06.01-.09c-.04-.09-.16-.11-.32-.1l-.02.32.33-.12Z"/>
      <path class="st12" d="M163.04,201.89l-.3-.64c.98-.27,1.44.38,2.28-.17l-.04.14c.13.14.16-1.29,1.55.42v.06s.04-.14.14.03l-.24-.38c.14-.16.25-.47.43-.52.04.07.06.2.07.3l.45-.12.16.41c.13-.23.03-1.09.43-.62-.16-.6.17-.37.11-.67.02.07.07.18.11.29.22-.08.62-.26.71-.57,0,0-.92-1.25-1.17-1.88.31.16.08-.08,0-.28v.15c-.2-.14-.22-.52-.31-.63,0,.03,0,.07,0,.11v-.05c.02.07.02.11,0,.15,0,.08,0,.15-.05.12v-.04c-.07.06-.2,0-.26-.02v-.32c-.13.61-.94-.9-1.11-.91-.19-.4-.4.11-.62-.08-.36-.09-.18-.46-.37-.73-.22-.19.05.37-.04.39l-.27-.44c.15-.04.07-.23.04-.35-.23-.05-.59-.62-.66.02-.31-.3-.31-.56-.44-.59.04.12.13.22.13.35-.12-.28-.06.07,0,.13-.19.27-.96-1.18-1-.48v-.13c-.05.52.02,1.02-.12,1.31l-.08-.23-.14.22c-.09-.17-.04-.31-.04-.37-.22.24-.51-.06-.77-.13l.25,1.42c-.22-.33-.6-1-.65-.55l-.12-.48c-.41-.92-.32.39-.49.11l-.2-.52h.22c-.21-.25-.29-.42-.45-.77h0s.02.06.02.09h-.03c-.04.27-.16.44-.31.42-.22-.07-.41.29-.73-.28l-.11.52-.24-.33.02-.42c.25.04.74-.07,1.07-.09v-.19c-.18,0-.41.17-.54.12-.06-.09-.19-.54-.07-.81l-.14.4c-.65,0-.65.02-1.29-.5l.04.22c-.14.11-.28.23-.3-.12-.4-.1-.79-.39-1.01-.94l-.1.49c-.08-.03-.14-.79-.25-.1l-.2.21c-.11-.05-.21.23-.31-.06h0s0,0,0,0c0-.02-.01-.04-.02-.06v.04c-.24-.25-.04.44-.31.12-.06-.36-.17.62-.3.49l-.07-.73c-.22-.44-.34.27-.72.22-.16-.27-.17-.89,0-1.41-.24.63-.12.41-.38.7,0-.27.03-.32.1-.56-.16-.34-.15.23-.29.19-.1.5-.25,1.29-.3,1.32l.04.16c-.19.25-.38.35-.53.08l.04-.25-.21.1.03-.32-.29.07.03.09c-.07.03-.3.12-.4-.06l.03-.18c-.27-.6-.65.07-1.06.07l.11-.36c-.08-.39-.12.56-.26.35l.06-.45c-.24.56-.17-.16-.23-.39l-.05.59-.17-.15c-.17-.23,0-.76.08-1.06l-.21.44.06-.52c-.2.59-.08-.11-.31.18.02-.2.08-.3.04-.4l-.42.68.23-.29-.15.75c-.28.54-.24-.12-.4.07l.13-.21c-.25.15-.2-.18-.29-.36.01.15.03.36-.07.45-.07.03.01-.27-.03-.36-.11.5-.31.74-.41.48.02-.07.03-.14.05-.18-.05.08-.09.2-.13.07l.14-.55-.22.51c-.05-.16-.24.21-.16-.16l.07-.1-.57-.26.08-.45c-.18.6-.27-.3-.41.47-.03-.44-.5.2-.26-.65-.37-.15-.77.63-1.15.11,0-.77-.52-.62-.79-.78-.66.15-1.1.32-1.77.4-.08-1.1-1,.12-1.22-.57l-.22.36c-.07-.71-.69-.06-.86-.78-.14.15-.2.19-.23.19.01.02.01.11-.06.36-.05-.21-.32-.05-.15-.55l.04-.04c.18-.5-.38.14-.36-.33l-.11.55-.16-.15.09-.09c-1.24.9-1.02-.93-2.18-.13.32-.54-.27.25-.04-.38.1-.86-.42.04-.66.18-.01.03-.03.07-.06.11l-.25-.19c.48-.72-.46.57-.04-.04-.49-.87-1.66-.66-2.35-1.3l-.06.21c-.19-.13-.56,0-.56-.4,0-.39-.57.33-.65.33-.34.25-.16-.49-.1-.42-.22,0-.75.61-.85.19.26-.68-1,.26-.62-.46l-.04.06c-.04-.66-.79,0-.85-.62,0,0,.04-.05.08-.09-.63.57-1.29,1.13-1.96,1.66-.46.78-.88,1.59-1.29,2.39-.17.76-.3,1.55-.44,2.31.75.27,1.47.47,2.19.68l1.18,1.54,1.98.73,1.99.64.49-.46c.39,1.27,1.78.47,2.36,1.47l.18-.49c.24.04.13.35.15.45,2.22.59,4.62.52,6.44,1.6.12.38.74.3.82.7.78-.49,1.45-.33,2.09-.15l-.04.05.32-.05s0,.11-.02.14c.43-.4.89.14,1.28.4l-.03.05c.61.13,1.23.18,1.84.22.61.02,1.22-.01,1.82,0,1.21,0,2.39.1,3.59.53,1.09.92,2.49-.12,3.77.62.22.53,2.91.19,3.14-.05Z"/>
      <path class="st12" d="M166.93,201.12h-.01c0,.22.02.14.01,0Z"/>
      <polygon class="st12" points="161.62 195.11 161.64 195.11 161.59 194.8 161.62 195.11"/>
      <path class="st12" d="M164.9,194.95c-.15-.07-.15-.01-.13.08.05.01.1,0,.13-.08Z"/>
      <path class="st12" d="M168.19,200.67c.08.02.05-.12,0-.26-.09.03-.14.04-.14.04.05.05.1.17.15.22Z"/>
      <path class="st12" d="M167.73,197.68l.02-.18s-.04.11-.02.18Z"/>
    </g>
  </g>
</svg>