<?xml version="1.0" encoding="UTF-8"?>
<svg id="Layer_1" xmlns="http://www.w3.org/2000/svg" version="1.1" viewBox="0 0 513.05 513.05">
  <!-- Generator: Adobe Illustrator 30.6.0, SVG Export Plug-In . SVG Version: 2.1.4 Build 109)  -->
  <defs>
    <style>
      .st0 {
        fill: #edebeb;
      }

      .st1 {
        stroke-width: 14px;
      }

      .st1, .st2, .st3, .st4, .st5, .st6, .st7, .st8 {
        stroke-miterlimit: 10;
      }

      .st1, .st2, .st3, .st4, .st5, .st7 {
        stroke: #e84934;
      }

      .st1, .st5, .st9, .st7 {
        fill: none;
      }

      .st2 {
        stroke-width: 5.07px;
      }

      .st2, .st3, .st4, .st10 {
        fill: #231f20;
      }

      .st3 {
        stroke-width: 10px;
      }

      .st4 {
        stroke-width: 9.91px;
      }

      .st5 {
        stroke-width: 9.69px;
      }

      .st9 {
        stroke-linejoin: round;
        stroke-width: 6.28px;
      }

      .st9, .st6, .st8 {
        stroke: #fff;
      }

      .st9, .st7 {
        stroke-linecap: round;
      }

      .st11 {
        fill: #ecebeb;
      }

      .st6 {
        fill: #fff;
        stroke-width: 8px;
      }

      .st7 {
        stroke-width: 20px;
      }

      .st8 {
        fill: #1e1e1e;
        stroke-width: 1.05px;
      }
    </style>
  </defs>
  <circle class="st8" cx="256.53" cy="256.53" r="256"/>
  <g>
    <path class="st11" d="M249.31,467.22c2.37-.26-1.22-1.55,1.57-.58-.34.66-.82,1.16-1.57.58Z"/>
    <path class="st11" d="M230.58,47.14c-.93.58-1.89,1.02-2.89,1.36-.99.39-2.01.68-3.06.89-2.09.43-4.29.56-6.52.64-2.23.13-4.47.35-6.66.69-2.18.37-4.31.86-6.18,2.02-.91.38-.2-2.43-2.24-1.42-1.8,1.26-3.94,2.16-6.27,2.96-2.31.87-4.84,1.51-7.49,1.99-1.33.21-2.66.49-4,.73s-2.7.44-4.06.61c-1.37.15-2.72.31-4.05.46-1.32.19-2.62.34-3.89.48l.32-.85c-1.95.22-3.26,3.16-5.22,3.58-.19-.41.35-.83-.33-1.23.06,1.44-3.04,2.06-3.4,3.33-.93-.17-1.31-1.19-2.49-1.31l-.39,1.88c-.33,1.17-.93,1.93-1.69,2.47-.76.56-1.66.96-2.64,1.29-1.94.68-4.14,1.25-5.58,3.08,0-.41.25-.85-.22-1.01-1.27,1.28-2.61,2.61-4.1,3.8-1.47,1.22-3.08,2.33-4.67,3.5-1.57,1.21-3.18,2.39-4.77,3.57-.79.6-1.57,1.19-2.35,1.78-.75.63-1.47,1.28-2.18,1.92-.08-.63-.44-1.61-1.16-1.85.65,1.56-.99,3.29-2.44,4.76-.88-.4-1.36.42-1.9,1.44-.52,1.05-1.12,2.28-2.33,2.67l-.08-.42c-.24,2.48-2.68.88-2.42,3.41l-1.72-.3c.93,2.27-2.72.76-3.02,2.64l.36.34c-.63,1.35-1.96.95-2.63,2.1l-.28-.12c-1.81,2.43-3.93,2.74-2.59,4.02-1.77-.32,1.58-2.53-1.08-2.93-5.81,8.24-12.78,15.5-18.89,23.34-1.27.44-1.88.88-2.59.66-.3,1.02-1.99,3.21-1.76,4.48.17-.29-1.15-.04-1.55.32-1.6,1.1.55,2.81-1.25,3.97.04-.93-.3-1.5-1.02-1.67.23,2.23-1.24,3.96-1.98,5.88-.09-.43.03-.93-.5-1.19.13,2.7-2.43,3.2-2.59,5.38l-.53-1.18c-2.74,1.96,1.42,1.95-.64,3.82.05-.72-.43-.75-.74-1.07.29,3.09-2.14,6.31-2.8,8.78-.06-.2-.33-.31-.33-.31-.54,1.25-1.34,2.38-1.98,3.64-.65,1.26-1.25,2.58-1.53,4.09-.91.75-2.18-1.49-3.12,1.26,1,.43.63,1.6.43,2.63-.19,1.04-.25,1.9,1.19,1.65-1.31,2.06-3.63,5.25-3.62,7.01-.3-1.32-2.91.06-2.24-1.87-.6.3-1.23.59-1.82.91-.74-.57.92-1.35-.31-1.33-.37.98-.65,4.11-1.32,4.83.54,2.28,2.12,4.75,1.36,7.69-.32-1.64-2.49-.04-2.52-1.1.82,1.82,1.65,3.62,2.48,5.4-.23.98-1.68-.35-1.63,1.22.57.11.69.82.98,1.38-.16.14-.42,1.16-.8,2.14-.4.98-1.02,1.89-2.09,1.79-.92.18.05-1.72-.99-.86-.52,1.81.15,2.09-.35,3.89l-.28-.05c-.66,1.1-.17,3.73,1.34,2.76.31-.8-1.32-.03-.36-1.08.47.58.62,1.41.62,2.32.02.91-.14,1.9-.35,2.8-.18-.7-.74-.77-1.26-1.17,1.02,2.85.84,5.5.91,8.34.97.26-1.58-1.41-.95-1.69-1.1,1.57-.94,3.49-.9,5.29.06,1.81.04,3.5-1.25,4.77-.09-.51,1.45,0,1.17-.02-.4,1.65-1.82,1.33-1.46,2.52-.86-.03.05,1.43.13,2.6.52.68-.46.23-.4-.77.24.85.42,2.89.34,5.14.01,2.27-.25,4.75-1.08,6.51.58,0,1.79,2.44,1.69,3.26l-1.3-.44c-.84.7-.07,2.82-1.21,2.88.74.96.51-.79.24-2.48s-.47-3.3,0-2.03c-1.21.53,1.81,3.57.05,2.89-.06,1.71,1.32,3.43-.03,4.97.24-.45-1.74-1.49-1.74-.11.08,2.43.59.72.9,2.7.16.42.34.83.51,1.25,1.29.13-.21,2.14,1.24,1.3-1.07.27.59,3.49-1.55,3.21l-1.68-.36c.11,1.06,1.74,1.74,2.47,2.56-.16.13-.5.41-.78.36,1.29.09,1.21.7,1.09,1.46-.11.76-.28,1.65.73,2.25-.83,2.2.07,5.54-1.51,6.64.79,1.66,1.91,3.12,1.47,5.06-.27-.37-.38-.88-.94-.96-.67,1.25.03,1.51.52,2.57-.4-.22-1.33,2.52-2.14,3.96.89,1.61,2.24.9,3.1.99-2.35,1.78,2.18,4.49.11,6.65-.42-.53-1.52-2.28-2-.81-2.31,1.85,2.18,2.85,1.36,5.45l1.99-.9c-1.12,1.27,1.8,3.37-.37,3.46.89.69-.21,2.98,1.77,2.36-.27,1.07-.23,2.2-.09,3.33.18,1.13.51,2.27.75,3.37.49,2.2.69,4.26-.84,5.89.44.5.44,1.99,1.41,1.45.86-1.19-1.1-1.12-.42-1.65.17.49.74.48,1.03.46-.18,1.33-.04,2.32-2.02,1.57-.52,3.04,4.13,1.95,4.25,5.57-.86.07-1.11.41-.71,1.39.64.5,1.25,1.01,1.92,1.5.36,2.27-1.47,1.79-2.84,2.25.61,1.11.99,2.58,2.19,2.79l-1.28,1.98c.92-1.45,1.13.71,1.64,1.15l-.51-.44c-.51.41.27,1.66.67,2.29.78-.45.7-1.95.71-2.79.79.4.93,1.38,1.9,1.93-1.44.2-.27,2.2-.07,3.17.1,1.16,1.63.75,1.69,1.07-.68.28.51,1.75-.75,1.29-.35-.28.37-1.06-.45-1.44-.26.88-1.49,1.24-.09,2.36,1.05.84,2.52-1.26,2.43,1.1-.53-.41-1.09-.31-1.72-.55l.02,2.2,1.23-.39c-.21.38-.38.24-.5.42,1.48.07,1.6,2.73,3.18,2.58.52.89,0,2.34.26,3.31l-.18-.13c-.22,1.41.83,2.71,2.06,3.26l-.28.07c.19.63,1.05,1.95,2.09,2.37-.17,1.91-4.16,2.6-1.89,3.57.78,1.52,3.26,1.35,3.71.37.23,1.57,1.3,2.84,2.19,4.15.9,1.31,1.65,2.66,1.44,4.38.66.13.82-.27,1.5.36.85,2.06,2.44,3.83,3.67,5.66.63.91,1.18,1.84,1.56,2.8.4.95.66,1.93.62,3.01-1.17-.77-1.13.63-1.73,1.06,1.56.25-.28,1.73,1.58.95.91-.74,1.44-.96,1.14-2.25,2.01,1.82,4.14,5.17,4.2,6.94,0-.9.63-.66,1.25-.4-1.62.93-.68,2.67.72,3.46l1.03-.52-.36,1.47c.63.24,2.26-.94,2.26.89-.3.33-.6.67-.7,1.08,1.68.63,4.26,1.26,4.56,3.14l-.41,2.1c.59.43,2.1.7,1.68-.56.98,2.84,2.19,4.2,1.71,5.83,5.81,1.33,10.72,6.13,14.65,10.11l-.7.51c.58,1.59,1.58-.57,1.96.56-.91.27-.33,2.07-1.88,2.01,1.02,2.12,3.06.78,4.35,1.42.89-.7-1.31-.22-.17-1.1.44-.14,1.63,2.66,3.01,1.55-.01.84-1.14,1.53-1.81,1.86l1.55.21c0,2.55-5.15.34-5.4,3.27l1.14.59c-.2,2.11-3.88-.59-1.81,1.87,1.61.24,4.07-.91,3.61-2.24,2.48,1.42,3.56-2.28,5.77-.3.01,1.29-1.99-1.32-2.42.12.24,1.95,2.67,1.19,3.34,2.35-.68-1.38,1.27-1.97,2.16-1.67.73,1.52-1.76.68-.15,2.08.88-.56,2.89,0,1.94-1.53,1.94-1.31,1.41,1.79,3.35,1.1-.35,1.67-3.89,1.59-2.45,3.61.59-1.43,3.52.07,3.82-2.47.48.89-.12,1.91-1.19,2.26.27.76,1.29.69,2.1.72s1.38.2.73,1.54l1.24-1.02c.06.64.34,1.27.44,2.33.96.67,4.23.32,2.9,2.2.43.02,2.6,1.53,2.59-.37-.84-1.72-2.2-.05-1.78-2.37.01,2.1,2.06,1.13,3.18,1.09l-.34.83c.66-.01,1.67.81,2.47.16-.63.22-.76.85-.48,1.27l1.2-.87c2.29.57-.76,2.32,1.35,3.12l-1.99.05c.43,0,.45,1.48,1.58,1.66.98-.86,2.38-1.76,3.16-2.42,1.33.16-.21,1.52,1.49.98-.72.19-1.43.37-2.13.52-.2.12-.22.7,0,1.36.23.64.71,1.34,1.46,1.72,1.16.13,3.47-.68,2.3-2.06.75.37,1.43,1.58.42,2.07,1.88.51.4-1.29,2.2-1.21.21,1.03,1.5,3.08,2.11,4.72-.83.38-1.64.71-2.47,1.06l1.02.56c-2.08.78.11,1.49-1.42,2.66.59.62,1.75.47,2.64.39-.88-3.5,4.02-2.36,4.49-4.97,3.09.67-.81,6.49,3.8,4.22-.22-.84,1.96-1.97-.12-2.13,1.64,1.08,2.22-1.8,3.89.03-1.98.33.68,3.08-2.2,3.55.49-.72-1.02-1.11-1.47-1.04.35,1.21-1.19,2.3.69,3.07,1.24.24,2.83.84,3.11-.49.51-1.37-1.8-.56-.5-1.63,2.44.44,1.99,2.67,3.88.64-1.49-.39-1.28-1.94-.88-2.86l1.85.1-.67.78c2.36,1.71,1.41-1.31,3.85-.08l.54,2.23c-.59.66-1.49.18-2.26-.19-.77-.37-1.46-.57-1.73.78,1.62.8,2.67-.3,4.03.91-.44.09-.94-.02-1.38.09.57.3-.04,3.87,3.12,2.76,1.53-.33.65-.79,1.01-1.73,2.83.65,3.94.03,5.76.39-.97,1.77,3.09,1.12.52,2.45-.28-.7-1.44-1.26-2.69-1.59-1.25-.32-2.64-.28-3.43.44.24,2.56-2.05-1.07-3.44.95,2.2.83,1.34,2.96,1.21,4.52.59.32,1.41-.07,1.86-.16.72-1.25-.1-1.52.32-2.91,1.18.61,2.43.98,3.62,1s2.31-.21,3.2-.67c.63.92-.04,2.2-1.08,2.03,1.57.25,3.14.66,4.66,1.16.76.25,1.51.53,2.24.82.74.26,1.46.53,2.16.81-1.28-2.7,3.36.27,2.56-1.91-1.42-.88-2.3-2.8-1.2-3.6.91.38-.29.97,0,1.55,1.52-.93,1.4,2.43,3.07.79-2.92.05-1.21,2.6-2.15,4.24,2.26-.5-.4,1.23,1.61,1.72,1.13-.24,2.35-.4,3.58-.48,1.23-.11,2.49-.19,3.65-.15,1.24,1.12,3.04,1.48,4.83,1.61.9.06,1.79.09,2.63.08.84-.02,1.61-.03,2.24.05,1.19,1.1-.03,2.99,1.38,3.56,1.72.21-.94-2.38,1.45-1.07l-.3.37c.82-.36,4.48,2.08,5.59-.75l-1.06,2.1c.45.28.96-.18,1.38-.38-.07.72.41,1.43-.43,1.82,1.41,1.68,3.37.09,5.09.2l-.97-1.42c3.04-.76,4.87.82,7.76.53l-.18,1.28,1.75-.67c-.5,1.22,1.02,2.11,1.98,1.12l-4.67,2.9c-1.18-.82,1.47-1.48.78-2.78-.58-1.1-3.23-1.04-3.78.15,1,.24,1.08-.03,1.9-.41.19,1.82-1.35,1.59-2.22,2.7.54-.02,1.26.6,1.42.05-1.12.77-2.21.79-3.98.66,1.26-.57-.54-1.17-.04-1.63-.29,1.55-2.03,1.86-4.17,1.21-1.34-1.91-4.22.63-6.69-.23,1.25-1.43,2.72-2.5,4.31-2.92-1.45-1.03-1.74-.21-3.19-1.24-.92,1.07-1.73,2.79-3.9,3.2l.07-1.18c-1.95.29-2.25,2.09-4.56,1.3-1.98-.68-4-1.23-5.91-1.69-1.91-.47-3.72-.83-5.22-1.32l.15-1.17c-2.26,2.03-5.86-.49-8.43.03-3.55-2.17-8.71-1.4-10.08-3.91-3.49-.69-6.76-1.41-10.04-2.25-3.24-.93-6.42-2.17-9.76-3.74l1.82-1.11c-1.71.66-.4-1.22-1.68-1.48.8,1.86-2.33.89-3.59,1.44-2.41-2.62-6.88-2.98-10-3.36l.44-1.1c-1.81.29-3.29-.41-4.69-1.43-.7-.52-1.38-1.1-2.07-1.7-.67-.63-1.36-1.25-2.11-1.8-.12-.64-.13-1.93-1.13-2.37-2.67.6-3.53,0-6.65-.56-1.8-1.19-4.45-3.51-5.85-5.32-.51-.14-1.02-.3-1.52-.46-.48-.19-.96-.39-1.43-.61-.94-.43-1.86-.9-2.75-1.41-1.78-1.03-3.52-2.15-5.19-3.38-1.64-1.26-3.27-2.56-4.96-3.8-.85-.62-1.71-1.22-2.59-1.8-.86-.61-1.74-1.21-2.66-1.76l.46-1.44c-2.01-.81-3.88-1.98-5.65-3.33-1.7-1.42-3.29-3.02-4.82-4.62-.76-.8-1.52-1.6-2.26-2.39-.72-.8-1.41-1.61-2.11-2.37-1.39-1.52-2.79-2.88-4.25-3.93l2.23-1.06c-.95-2.05-3.69-3.37-4.63-1.85-.84-2.16-4.4-3.53-3.77-5.83-1.06-2.02-2.52-1.52-3.92-2.83-1.99-4.17-3.19-5.34-5.89-8.66l.47.96c.69.1,1.54-.44,1.07-1.4-1.42-.95-2.71-5.17-4.19-2.32-.63-2.31-2.22-4.43-3.82-6.56-1.59-2.13-3.15-4.29-3.19-6.79-.5.71-1.15-.21-1.84-.38-.97-1.76-1.6-3.75-2.33-5.57-.68-1.84-1.39-3.55-2.68-4.7.07-.74,1.61.35.99-1.15-.68-.74-.92.41-1.82-.48-2.11-2.6-3.01-5.83-3.79-8.97-.38-1.57-.76-3.13-1.13-4.65-.35-1.53-.76-2.99-1.35-4.33-2.59-4.61-4.25-9.71-5.88-14.75-1.35-5.12-2.68-10.18-3.74-15.08h.58c-1.41-1.42-1.27-3.47-1.25-5.38.08-1.93.08-3.73-1.75-4.79.4-.87-.24-3.03.93-2.62-.95-1.2-.97-3.09-.87-5.13.07-2.04.07-4.2-1.12-6.01,0,.36.13.55.42.92.72-3.97-1.17-7.24-.34-11.4.27.4.5,1.14,1.08,1.22.97-1.63-2.65-3.58,0-4.59-.07-.9-1.4-.57-1.29-.02.18-2.25.23-4.52.14-6.81-.08-2.29-.32-4.6-.43-6.96-.15-2.35-.34-4.71-.53-7.09-.12-2.37-.16-4.74-.17-7.1,1.04-3.3,2.19-3.29,2.87-3.16.68.13.88.41.16-2.3.57-.37-1-.41-.43-.43-.53-2.12,3.38-2.8,2.12-4.36-1.73.37-.82-1.05-1.83-1.22.74-1.96,1.64-3.07,2.14-4.12.52-1.05.74-2.02.36-3.71l.83.38c-1.94-4.14.34-8.15-1.84-11.89.42-2.6,1.05-5.13,1.58-7.68.27-1.27.54-2.55.81-3.82.26-1.27.62-2.52.92-3.77.64-2.5,1.22-5.02,1.91-7.5.73-2.47,1.45-4.94,2.17-7.4,3.11-9.79,6.72-19.41,11.4-28.64,1.21-2.25,2.56-4.42,3.8-6.64l1.88-3.32,2-3.24c1.35-2.15,2.6-4.36,4.01-6.47l4.25-6.32c5.88-8.28,12.35-16.27,20.05-23.3,5.04-1.91,5.26-2.12,8.36-6.57.11.42-.07.72.43.72-1.16-1.6,2.62-2.67,1.76-4.34,1.48-1.23,2.9-2.46,4.29-3.72,1.37-1.27,2.84-2.41,4.23-3.64,1.41-1.22,2.83-2.44,4.27-3.68,1.49-1.18,3.03-2.35,4.62-3.53-.89.91-.46,2.53.65,1.55l.53-1.9.51.28c.65-.83,1.01-2.25-.2-2.12l1.43-1.23c.49-.39,1-.76,1.5-1.13,1.01-.74,2.03-1.47,3.05-2.18,2.06-1.42,4.12-2.83,6.33-4,2.18-1.22,4.38-2.39,6.58-3.52,2.26-1.05,4.54-2.03,6.81-3.02,1.14-.48,2.26-1,3.42-1.44l3.48-1.29,3.46-1.29c1.15-.42,2.28-.9,3.46-1.25,2.33-.76,4.65-1.55,6.95-2.38l1.72-.63,1.74-.56c1.16-.38,2.32-.76,3.47-1.17,4.61-.79,10.77-3.07,15.58-4.69,3.76-.14,7.43-.27,11.06-.41,3.62.01,7.14-.09,10.66-.23,3.53,0,7.03-.14,10.57-.44,3.55-.12,7.15-.43,10.88-.98,0,0-1.96,4.96-7.85,6.27l.03.04Z"/>
    <path class="st11" d="M246.45,467.26c-.46-.98-2.07-1.58-.7-2.78.11.9.91,1.94.7,2.78Z"/>
    <path class="st11" d="M204.94,451.55c-.12.26-.5-.52-.59-.71.52.06,1.18-.61,1.47-.02-.53-.05-.55.4-.88.73h0Z"/>
    <path class="st11" d="M194.63,448.21c.4-.77,2.79-.75,4.11-.46l-4.11.46Z"/>
    <path class="st11" d="M186.2,441.83c-.57-.96-.21-1.25.86-.85-.07.45-.5.54-.86.85Z"/>
    <path class="st11" d="M184.9,443.42c-.79-.26-1.01-.86-1.23-1.45-.21.69,1.96.21,1.23,1.45Z"/>
    <path class="st11" d="M165.96,432.92c-.49-.16-1.82,0-1.83-1.04.2.82,2.73.09,1.83,1.04Z"/>
    <path class="st11" d="M156.51,429.53c-.26-.2-.3-.4-.75-.36-.34-.61.52-.87.99-.7l-.25,1.07h.01Z"/>
    <polygon class="st11" points="55.21 284.6 55.75 285.64 54.9 285.6 55.21 284.6"/>
    <path class="st11" d="M59.55,203.92c-.25-1.2.96-.54,1.12-.69-.16.98-.92-.62-1.12.69Z"/>
    <polygon class="st11" points="70.87 160.97 70.73 161.28 69.23 160.42 70.87 160.97"/>
  </g>
  <g>
    <path class="st11" d="M44.37,256c-.53,1.21,1.55.47-.03,1.05-.44-.54-.66-1.08.03-1.05Z"/>
    <path class="st11" d="M289.16,214.48c-3.09,4.39-6.95-.12-10.29,2.66-.39.18.14-2.42-.74-1.84-3.23,3.4-8.2,1.29-12.08-1.4l.24-.68c-.74-.5-1.65,1.75-2.43,1.42,0-.45.25-.64.07-1.27-.2,1.37-1.42.62-1.75,1.63-.31-.54-.28-1.62-.68-2.23l-.45,1.55c-1.24,3.69-3.03-.3-4.72,1.6.08-.36.25-.64.11-.99-2.72,2.21-6.13,1.93-9.17,2.8.11-.55.22-1.56.03-2.17-.13,1.64-1.07,2.08-1.88,2.42-.39-1.68-1.38,1.57-2.35.66l.08-.38c-.68,1.78-1.07-1-1.6,1.13l-.47-1.32c-.27,2.38-1.05-1.21-1.61,0l.03.49c-.54.59-.85-.6-1.35-.19l-.05-.28c-1.18.65-1.91-.66-1.84,1.19-.45-1.47,1.14-.7.44-2.84-3.9,1.99-7.96,1.7-11.93,1.81-.48-.73-.77-.96-.9-1.65-.38.38-1.48.37-1.81,1.32.13-.04-.29-.94-.5-1.03-.75-.66-.71,2.08-1.53,1.29.3-.51.38-1.12.25-1.8-.62,1.48-1.53,1.3-2.31,1.81.11-.32.3-.51.24-1.09-.8,1.69-1.61-.26-2.33.82l.24-1.09c-1.29-1.23-.27,2.26-1.36,1.55.24-.35.13-.77.16-1.2-.91,2-2.54,1.44-3.5,2.16.05-.15.02-.44.02-.44-1.07.3-2.22-.24-3.37.67-.46-.46,0-2.62-1.12-2.16.16,2.15-1.89.99-1.08,3.38-.99-.3-2.58-1.02-3.19-.26.39-.84-.63-2.6.17-2.83l-.69-1.26c.04-.88.65.26.39-.83-.4.11-1.54,1.02-1.93.69-.67,1.36-1.21,3.85-2.41,4.19.52-.87-.48-2.35-.11-2.74l-1.43,4.2c-.4.12-.2-1.69-.75-1.1.07.57-.16.93-.31,1.4-.17-.23-1.64.63-1.97-1.47-.24-.82.63-.48.13-1.21-.75.06-.73.78-1.47.86l-.03-.28c-.52-.3-1.39,1.03-.77,2.14.35.04-.22-1.26.33-.69-.26,1.26-1.09,1.68-1.84,1.77.23-.37.15-.92.21-1.53-.88,1.75-1.89,2.37-2.95,3.17.06,1.01.27-1.86.48-1.35-1.54-1.26-2.79,2.24-4.14.32.18-.2.23,1.41.19,1.13-.7-.06-.79-1.52-1.19-.94-.12-.85-.54.32-.98.62-.18.64-.16-.4.24-.54-.58.79-3.03,2.33-4.63,1.22.08.56-.71,2.15-1.06,2.12v-1.33c-.38-.76-1.13.22-1.29-.9-.57,1.67,2.68-1.62,1.81-.29-.36-1.08-1.17,2.22-1.13.41-.68.11-1.2,1.65-1.98.48.21.2.37-1.88-.17-1.73-.95.32-.21.65-.96,1.17l-.44.59c.1,1.28-.89-.09-.38,1.31-.23-1.05-1.35.78-1.47-1.36l-.04-1.69c-.41.16-.5,1.83-.76,2.6-.07-.15-.22-.48-.23-.75.21,2.57-1.03-.12-1.31,1.91-.98-.82-2.25.14-2.84-1.39-.59.87-1.09,1.87-1.92,1.42.13-.26.33-.36.31-.92-.57-.69-.61,0-1,.47.05-.4-1.14-1.37-1.79-2.21-.58.85-.18,2.2-.14,3.06-.93-2.44-1.68,1.88-2.74-.31.19-.38.82-1.37.18-1.93-.94-2.44-1,2.03-2.14.95l.52,2.06c-.61-1.24-1.29,1.4-1.47-.74-.23.8-1.26-.54-.87,1.49-1.86-1.51-3.78,1.56-5.31-1.96-.18.37-.82.1-.54,1.13.55,1.08.42-.89.68-.13-.2.09-.16.65-.15.94-.57-.4-.99-.5-.76-2.25-1.31-1.11-.65,3.62-2.19,3.01-.06-.85-.22-1.16-.62-.97l-.57,1.55c-.97-.21-.82-1.85-1.06-3.27-.46.3-1.07.36-1.12,1.46l-.88-1.69c.64,1.22-.27.93-.44,1.32l.17-.39c-.19-.58-.69-.11-.95.12.21.87.85,1.13,1.2,1.33-.15.67-.56.59-.77,1.39-.12-1.42-.96-.85-1.37-.93-.5-.22-.29,1.34-.43,1.32-.13-.73-.75,0-.57-1.07.11-.26.46.64.61-.04-.38-.49-.56-1.76-1.02-.73-.34.77.58,2.74-.44,2.01.17-.39.12-.95.21-1.48l-.94-.58.18,1.28c-.16-.3-.11-.43-.19-.59-.01,1.38-1.17.63-1.1,2.17-.39.2-1.02-.73-1.44-.8l.06-.12c-.61-.66-1.16-.06-1.41.87l-.03-.28c-.28-.05-.86.26-1.05,1.06-.84-.84-1.11-4.75-1.55-3.02-.67.16-.62,2.51-.2,3.27-1.37-.64-2.33,1.67-3.84-.1-.07.54.1.84-.2,1.21-1.88-.22-3.39,2.25-5.3.08.39-.65-.23-1.27-.4-1.99-.18,1.22-.76-1.06-.49.91.29,1.13.36,1.69.95,2.04-.91.85-2.48,1.21-3.29.28.41.46.26.86.11,1.25-.33-1.83-1.16-1.93-1.6-1.16l.17,1.13-.64-1.05c-.14.4.29,2.37-.53,1.44-.13-.42-.26-.85-.44-1.14-.39,1.04-.87,2.76-1.74,1.97l-.92-1.49c-.24.24-.47,1.31.13,1.67-1.34-.72-2.09-.67-2.79-1.98-1.1,3.77-3.73,4.7-5.97,5.07l-.16-.84c-.79-.6.09,1.52-.47,1.06-.03-.83-.92-1.57-.72-2.65-1.08-.62-.69,1.72-1.12,2.25.22,1.09.24-.81.52.58.02.41-1.39-.51-1.05,1.15-.39-.58-.57-1.81-.65-2.5l-.28.93c-1.18-1.71.46-3.79-.87-5.93l-.41.39c-.95-1.56.73-2.28-.65-2.51-.3.95-.06,3.42.61,4-.95.76.63,4-.56,4.19-.6-.86.85-.49.24-1.76-.93-1.15-.88,1.04-1.5.72.72.46.76,2.22.5,2.61-.81-.59-.08-1.63-.96-1.56.15.97-.4,1.88.45,2.34.35,2.19-1.04-.34-.98,1.42-.73-1.4-.21-3.67-1.35-4.15.59,1.39-.51,2.26.63,4.24-.48-.31-.87-1.42-.89-2.37-.79-.72-.37,3.01-1.44.24l.3,1.51c-.31-.42-.64-.7-1.15-1.4-.45.13-.75,2.45-1.44.25-.07.28-1.09.52-.2,1.9.92.71.34-1.35,1.36.58-.99-1.52-.81.52-.97,1.2l-.34-.82c-.1.4-.65.39-.46,1.35,0-.54-.29-1.09-.53-1.23l.22,1.36c-.63.94-.99-2.18-1.69-1.52l.29-1.22c-.06.26-.77-.83-1.04-.3.26,1.23.46,2.72.66,3.68-.28.67-.68-1.24-.71.11l.1-1.61c-.04-.42-1.1-1.79-1.73-1.53-.26.54-.26,2.44.6,2.86-.31.13-1.01-.43-1.07-1.36-.57.65.56,1.22.21,2.15-.54-.69-1.74-1.52-2.65-2.47l-.08-2.16-.44.13c-.02-1.75-.74-1.09-1.04-2.83-.4-.16-.55.54-.67,1.09,1.85,2.26.44,3.97,1.63,6.25-.86,1.12-3.02-5.48-2.71-1.27.45.54.62,2.57,1.06,1.59-.81.03.5,2.58-.73,1.94.21-1.23-1.66-2.12-1.35-3.9.26.81.75.39.79.1-.67-.78-.91-2.41-1.65-2.1-.36.42-.96.72-.35,1.91.59,1.34.62-.43.91,1.06-.68.84-1.71-1.15-1.05,1.39.48-.42,1.21.91,1.59,1.84l-.39.83-.26-.95c-1.3-.22.4,1.75-.69,1.92l-1.24-1.57c-.43-1.61,1.74.07.49-2.33-.7.17-.36,1.52-1.26,1.13.04-.27.2-.41.24-.68-.27,0-1.96-3.15-2.05-.85-.15.94.27.93.67,1.85-.93.71-.74,1.84-1.32,2.28-.72-1.85-1.21.39-1.37-1.78.84.88,2.19.04,1.8-1.81-1.35-1.96.97-.05.23-2.3-.88.31-1.79-1.8-2.56-3.11-.29,0-.26.68-.3.97.5,1.34.79,1.16,1.42,2.49-1.09.1-1.64,1.28-1.54,2.76-.61-.48-1.14-1.8-.83-2.1-.92.93-2.17,1.34-3.41,1.48,1.74,1.71-.91,1.06.45,2.53.8.18,2.02,1.41,2.2,2.48-.4.03-.46-.9-.83-1.27.16,1.33-1.62-1.45-1.11.52.62-1.14-1.14-2.58-1.81-4.27-.25,1.26-.58-1.15-1.3-.79-.27,1.24-.69,2.48-1.26,3.26-1.83-.91-2.45,1.42-3.25,1.97-.94-.5-1.76-2.42-2.43-2.4-.53.42,1.62,1.56.29,1.35l-.15-.39c.03.56-2.29-.08-.83,2.48l-1.04-1.99c-.27-.06-.12.46-.11.74-.43-.58-.99-.99-1.01-1.55-1.42-.87-.95.97-1.46,1.4l1.15.79c-.17.73-.56.98-1,1.17s-.93.32-1.2.84l-.82-1v1c-.69-1.03-1.74-1.25-1.27-.22-.31-1.18-.51-2.32-.72-3.53.88.25.58,1.54,1.65,2.29.92.67,1.48-.24.84-1.32-.4.15-.24.38-.18.94-1.25-1.29-.72-1.63-1.22-2.77-.13.2-.72-.02-.4.45-.21-.95.05-1.37.61-1.86.02.84.89.72,1.05,1.24-.91-1.28-.63-2.08.37-2.24,1.58,1.11.71-1.93,1.88-2.14.53,1.57.82,2.93.69,3.81.97.3.55-.44,1.51-.13-.41-1.15-1.25-2.83-.92-3.88l.68.97c.33-.89-.6-2.37.42-2.6,1.75-.37,3.23-1.25,4.4-1.77l.61,1c-.59-2.55,1.65-1.87,1.98-3.29,1.95.29,2.67-2.59,4.29-1.14,1.07-1.08,2.13-1.96,3.25-2.75,1.13-.78,2.35-1.41,3.79-1.78l.2,1.77c0-1.36.69.78,1.06.35-1.06-1.04,0-1.92-.06-3.03,1.7.72,2.72-1.29,3.41-2.76l.46,1.09c.34-2.45,2.35-1.11,3.84-1.24.32.4.94,1.36,1.3,1.09.12-2.05.56-2.06,1.28-3.57.81-.28,2.27-.29,3.31.13.55-.91,1.2-1.53,1.91-1.96.7-.45,1.46-.76,2.23-1.03,1.54-.55,3.13-.98,4.51-2.21l.61,1.26c1.15-1.86,2.88-2.42,4.58-2.79,1.7-.41,3.41-.42,4.56-1.48l.31,2.35c1,.52,1.75-1.04,1.15-2.61,1.01.51,1.84-1.6,2.81.17.96.23.8-1.3,1.45-1.77,1.92.48,2.51.13,4.04-.67l-.43-.05c-.07.55.13,1.53.57,1.59.47-.78,2.35.12,1.17-2.5,1.04.6,1.98.05,2.93-.44.96-.45,1.93-.81,2.99.12-.29-.73.11-.95.19-1.49,1.53-.31,3.43.95,4.41-.55.31.34-.15,1.35.49,1.33.32-.35-.17-.99.2-1.5,2.23-1.86,5.29.57,7.47-.2,1.88-1.07,3.9-1.68,5.93-1.97,2.03-.3,4.06-.44,5.97-.82l.04.57c.99-2.31,3.32,1.79,3.91-1.57.38.5,1.2.1,1.12,1.21.83-1.65,3.06,1.05,4.29-1.07-.14-.04-.21.09-.33.35,1.65,1.04,2.77-.83,4.48.08-.13.26-.4.48-.38,1.05.73,1,1.17-2.56,1.82.1.35-.07.09-1.39-.11-1.29,1.79.27,3.56-.02,5.33-.58,1.77-.54,3.53-1.3,5.31-1.77,2.74,1.39.6,4.56,2.44,2.35.22.51.02-1.05.1-.49.72-.83,1.51,2.92,1.92,1.45-.38-1.65.28-.97.2-1.98,1.68.94,2.12,2.42,3.26,1.03l-.02.89c1.24-2.61,3.04-1.44,4.05-4.42,2.01-.31,3.99-.71,5.96-1.09,1.97-.36,3.93-.71,5.88-1.06,3.9-.72,7.79-1.41,11.73-1.79,3.92.06,7.77-.33,11.64-.61,3.87-.17,7.76-.17,11.74.5,1.91,2.28,2.04,2.22,4.06,1.23-.07.38-.2.46-.06.81.06-1.9,1.43-.21,1.58-2.03,2.93.3,5.61-.28,8.62-.35-.47.21-.69,1.77-.13,1.64l.58-1.22.1.53c.38-.29.79-1.23.39-1.83,7.57-1.9,15,2.14,22.37,1.72,1.75.81,4.25.11,6.16-.26,5.62,2.6,10.64,4.7,16.41,2.99,0,0-.87,4.9-3.25,6.01v-.02Z"/>
    <path class="st11" d="M45.15,254.96c.84.51,1.68.41,2.18,1.7-.66-.6-1.63-1.05-2.18-1.7Z"/>
    <path class="st11" d="M64.82,253.14c-.11-.26.39.23.51.35-.15.15.06.94-.32.58.15-.16-.09-.53-.2-.93h.01Z"/>
    <path class="st11" d="M68.84,251.76c.32.79-.18,1.78-.6,2.11l.6-2.11Z"/>
    <path class="st11" d="M73.8,253.22c.6.52.68.91.26,1.07-.22-.4-.17-.66-.26-1.07Z"/>
    <path class="st11" d="M73.26,251.36c.29-.14.65.25.99.63-.31-.66-.51.7-.99-.63Z"/>
    <path class="st11" d="M82.01,250.36c.16-.14.31-.98.83-.15-.44-.55-.52,1.38-.83.15Z"/>
    <path class="st11" d="M85.29,247.82c.14,0,.24.14.3-.13.35.29.33.95.17,1.09l-.47-.96h0Z"/>
    <polygon class="st11" points="156.88 228.51 156.49 228.98 156.45 228.15 156.88 228.51"/>
    <path class="st11" d="M189.7,225.08c.4-.57.37.76.45.88-.39.12.07-1.05-.45-.88Z"/>
    <polygon class="st11" points="207.28 219.81 207.14 219.84 207.1 218.11 207.28 219.81"/>
  </g>
  <path class="st7" d="M255.75,466.69c117.26,0,212.32-95.06,212.32-212.32S373.01,42.05,255.75,42.05"/>
  <g>
    <path class="st11" d="M252.2,41.37c-1.37-1.21-.61,1.66-1.22-.55.67-.23,1.34-.23,1.22.55Z"/>
    <path class="st11" d="M249.79,464.46c-.33-1.7-.12-3.19.34-4.6.45-1.42,1.19-2.75,1.98-4.08.81-1.32,1.61-2.66,2.21-4.07.61-1.41,1.02-2.87.98-4.45.11-.68,2.13,1.16,2.24-.45-.46-3.25.6-6.64,2.44-9.89,1.76-3.28,4.22-6.47,6.69-9.17l.49.62c.94-1.04-.62-3.29.1-4.48.43.14.46.63,1.15.54-1.17-.79.21-2.55-.56-3.44.68-.33,1.69.08,2.48-.39l-1.21-1.25c-2.81-3.26,2.01-4.89,1.08-8.32.3.25.48.61.89.5-.78-5.24,1.4-10.75,2.07-16.06.48.35,1.39.82,2.07.68-1.51-.7-1.5-2.39-1.45-3.84,1.79-.18-.87-2.75.45-4.11l.33.23c-1.4-1.63,1.45-1.5-.35-3l1.48-.42c-2.17-1.11,1.65-1.41.74-2.69l-.48-.09c-.32-1.06.97-1.26.8-2.21l.29-.02c-.15-2.17,1.39-3.05-.42-3.42,1.6-.37.22,2.12,2.57,1.51-.18-3.57.2-7.04.81-10.47.31-1.71.67-3.41,1.05-5.11.39-1.69.66-3.4.98-5.09.87-.63,1.18-1.08,1.9-1.12-.24-.75.13-2.62-.69-3.41,0,.23,1.01-.26,1.17-.61.91-1.11-1.76-1.71-.7-2.92.39.63.94.91,1.66.86-1.21-1.41-.71-2.92-.92-4.36.27.26.39.63.97.67-1.35-1.77.84-2.67.06-4.15l.97.67c1.66-1.9-2.07-.98-1.04-2.69.27.49.71.41,1.13.55-1.68-2.02-.65-4.68-1.06-6.49.13.12.42.14.42.14.02-1.89.9-3.75.35-5.91.58-.68,2.56.6,2.45-1.42-2.14-.22-.4-3.46-2.98-2.62.59-1.63,1.76-4.18,1.2-5.39.71.85,2.73-.5,2.71.92l1.42-.9c.87.27-.43,1.06.71.86.02-.72-.64-2.88-.23-3.47-1.18-1.46-3.5-2.94-3.56-5.07.73,1.08,2.41-.31,2.71.41l-3.8-3.38c-.03-.71,1.71.02,1.25-1.05-.57,0-.87-.48-1.3-.83.27-.24-.24-2.95,1.9-3.06.86-.23.33,1.19,1.16.48.11-1.3-.6-1.42-.51-2.72h.28c.4-.83-.65-2.6-1.9-1.77-.13.59,1.29-.11.59.71-1.17-.71-1.35-2.24-1.25-3.53.3.47.86.46,1.44.69-1.46-1.87-1.88-3.75-2.46-5.75-1-.11,1.78.86,1.23,1.11,1.54-2.39-1.66-5.28.5-7.2.16.35-1.44.09-1.15.08.2-1.19,1.65-1.04,1.16-1.86.86-.02-.21-1-.42-1.82-.6-.45.43-.18.48.52-.66-1.17-1.7-5.71-.3-8.23-.57.02-1.98-1.68-1.88-2.27l1.31.29c.82-.51,0-1.99,1.14-2.05-1.53-1.34,1.07,4.95-.07,3.18,1.13-.4-1.96-2.48-.18-2.04.04-1.2-1.41-2.41-.16-3.51-.22.32,1.81,1.04,1.74.07-.2-1.71-.62-.51-1.04-1.9l-.53-.88c-1.29-.1.2-1.51-1.25-.93,1.07-.18-.6-2.49,1.53-2.25l1.68.29c-.11-.74-1.75-1.26-2.49-1.85.16-.09.5-.28.77-.23-2.57-.18.25-1.75-1.73-2.67.92-1.52.16-3.91,1.78-4.61-.76-1.2-1.67-2.29-1.08-3.63.24.27.3.64.86.72.78-.84.1-1.06-.3-1.84.38.18,1.54-1.68,2.48-2.63-.75-1.18-2.14-.78-2.99-.9,1.28-.53.9-1.37.46-2.23-.46-.86-.94-1.76.2-2.44.36.4,1.28,1.71,1.9.73,2.52-1.09-1.92-2.17-.73-3.91l-2.1.44c1.29-.78-1.27-2.54.88-2.38-.77-.57.66-2.05-1.4-1.83,1.68-2.88-1.18-6.88,2.47-8.73-.35-.4-.02-1.43-1.07-1.19-1.13.71.84.92.06,1.2-.07-.36-.64-.43-.92-.46.45-.9.59-1.6,2.32-.82,1.24-2.02-3.54-1.92-2.78-4.45.85.08,1.17-.12,1.02-.85-.49-.45-.99-.89-1.51-1.33.24-1.63,1.88-1,3.32-1.1-.3-.86-.29-1.92-1.39-2.26l1.75-1.14c-1.27.83-.91-.67-1.29-1.06l.38.39c.6-.19.16-1.17-.05-1.67-.89.17-1.19,1.21-1.41,1.78-.66-.41-.55-1.1-1.34-1.65,1.43.12.92-1.46,1.03-2.16.26-.81-1.32-.82-1.29-1.05.73-.06.05-1.29,1.11-.74.25.26-.68.66,0,1.06.51-.55,1.8-.57.8-1.59-.75-.77-2.78.38-1.98-1.22.38.38.95.42,1.47.7l.65-1.49-1.29.02c.31-.22.43-.09.6-.19-1.38-.34-.55-2.18-2.09-2.4-.18-.72.8-1.59.9-2.3l.12.13c.71-.9.14-2-.77-2.64l.28.02c.07-.47-.19-1.55-.98-2.07.87-1.25,4.82-.79,3.08-1.95-.16-1.19-2.54-1.66-3.32-1.11.65-2.2-1.69-4.41.11-6.57-.55-.25-.86-.03-1.22-.63.19-3.17-2.19-6.4.08-9.17.63.84,1.29-.09,2.02-.2-1.22-.61,1.1-1.04-.89-1.08-1.15.21-1.72.21-2.1,1.14-.76-1.79-1.2-4.58-.26-5.75-.46.58-.87.23-1.28-.13,1.86-.1,1.95-1.51,1.15-2.45h-1.15l1.06-.82c-.42-.35-2.42-.11-1.48-1.28.43-.11.86-.23,1.15-.47-1.07-.94-2.84-2.21-2.06-3.5l1.5-1.19c-.25-.47-1.35-1.15-1.7-.21.7-2.12.64-3.41,1.96-4.27-1.93-1.43-3.22-3.34-4.06-5.39-.83-2.05-1.21-4.24-1.45-6.21l.86-.04c.58-1.2-1.56-.27-1.12-1.11.86.19,1.58-1.13,2.7-.5.6-1.68-1.81-1.66-2.36-2.56-1.12.07.85.65-.58.73-.42-.09.46-2.25-1.23-2.14.58-.51,1.85-.47,2.55-.4l-.97-.75c1.72-1.53,3.93,1.86,6.08.2l-.42-.81c1.58-1.18,2.38,1.88,2.56-.4-.99-.78-3.53-1.07-4.1-.09-.82-1.84-4.11-.07-4.43-2.14.84-.77.61,1.59,1.88.9,1.1-1.25-1.19-1.78-.92-2.74-.4,1.09-2.25.64-2.69.1.53-1.21,1.71.33,1.54-1.18-1.01-.03-2.03-1.22-2.42.09-2.27-.04.24-1.66-1.61-2.07,1.4-.83,3.85.71,4.23-1.08-1.4.59-2.44-1.53-4.41-.18.28-.73,1.4-1.07,2.4-.81.68-1.12-3.16-1.56-.35-2.55l-1.56.05c.42-.4.69-.89,1.38-1.55-.16-.81-2.6-2.06-.35-2.56-.27-.21-.67-2.02-2.03-.93-.62,1.35,1.45,1-.49,2.16,1.54-1.23-.6-1.57-1.36-2.05l.83-.33c-.44-.29-.5-1.22-1.5-1.21.58.16,1.12-.14,1.25-.5l-1.42-.05c-1.08-1.37,2.2-.98,1.4-2.39l1.34.88c-.29-.19.79-1.04.18-1.66-1.28.04-2.85-.09-3.85-.08-.76-.7,1.24-.75-.22-1.25l1.74.7c.44.06,1.77-1.29,1.42-2.43-.62-.62-2.65-1.25-2.98.08-.18-.56.33-1.57,1.32-1.37-.77-1.18-1.23.54-2.28-.36.67-.68,1.4-2.44,2.31-3.64l2.31.58-.2-.79c1.88.54,1.07-.88,2.91-.81.12-.62-.64-1.1-1.25-1.48-2.18,2.35-4.23-.61-6.53.6-1.34-1.87,5.51-3.18.99-4.15-.52.56-2.71.13-1.58,1.22-.15-1.38-2.73-.09-2.21-1.94,1.37.81,2.07-2.03,4.05-.86-.84.15-.32,1.12,0,1.3.76-.84,2.49-.68,2.05-2.03-.5-.74-.91-1.86-2.12-1.27-1.38.5.55,1.2-1.02,1.14-1.01-1.46,1.01-2.45-1.66-2.28.52.96-.83,1.7-1.78,2l-.96-.98,1-.08c.05-2.12-1.85.01-2.2-1.9l1.5-1.48c1.75-.13.21,2.9,2.65,1.69-.28-1.24-1.71-1.18-1.47-2.52.31.17.5.49.82.65-.07-.45,3.14-2.07.53-3.06-1.09-.59-.99.1-1.94.42-.99-1.79-2.17-1.99-2.77-3.15,1.94-.45-.62-2.22,1.76-1.59-.85,1.04.27,3.72,2.29,3.75,1.93-1.49.25,1.61,2.63,1.22-.52-1.55,1.67-2.27,2.99-3.03-.06-.47-.82-.67-1.13-.84-1.4.31-1.17.86-2.53,1.4-.28-1.85-1.64-3.23-3.27-3.67.44-.82,1.83-1.16,2.21-.52-.58-.94-1.01-1.99-1.38-3.04-.39-1.04-.67-2.11-.88-3.15-1.62,2.11-1.4-1.91-2.81-.33-.05,1.22-1.21,2.71-2.4,2.55-.13-.68.94-.37,1.29-.82-1.5-.31,1.34-2.03-.83-2.04,1.45,1.51,2.74-.75,4.55-1.13-1.5-.93,1.21-.45.65-1.76-1.51-.92-2.85-2.25-3.92-3.51.71-2.52-2.13-4.58-2.95-6.14.42-1.25,2.54-1.6,2.38-2.66-.59-1.04-1.56,1.78-1.54-.21l.44-.04c-.67-.25-.28-3.53-3.12-2.6l2.21-.57c.02-.39-.57-.42-.9-.55.63-.35,1.03-1.01,1.69-.76.84-1.72-1.3-1.94-1.96-2.93l-.76,1.31c-1.92-1.23-1.45-3.08-2.86-4.51l1.13-.63-1.28-.58c1.21-.42,1.3-1.77.09-1.73,1.43.29,2.87.6,4.33.95-.2,1.13-1.83,0-2.62,1.13-.68.95.5,2.36,1.73,1.99-.23-.68-.49-.57-1.16-.8,1.42-1.12,1.9-.16,3.19-.29-.25-.29-.05-1.03-.58-.81,1.12.19,1.62.77,2.27,1.82-1.02-.38-.73.94-1.34.92,1.4-.69,2.47.08,2.77,1.65-1.1,1.82,2.36,1.98,2.75,3.79-1.75.09-3.31-.12-4.37-.75-.2,1.34.6,1.05.4,2.39,1.3-.08,3.11-.58,4.41.39l-1.02.59c1.09.91,2.66.14,3.08,1.8.69,2.84,2,5.47,2.66,7.54l-1.04.55c2.77.11,2.42,3.34,4.08,4.41.08,2.95,3.23,5.21,1.86,7.25,1.27,2.12,2.49,4.12,3.56,6.19,1,2.1,1.81,4.29,2.4,6.76l-1.89-.28c1.47.47-.75.86-.24,1.62.99-1.39,2.07.62,3.26.91-.28,1.27.14,2.48.86,3.58.73,1.09,1.65,2.09,2.5,2.89l-1.11.41c2.66,1.33,1.45,4.21,1.77,6.72-.39.41-1.34,1.13-1.01,1.82,2.2.82,2.26,1.55,3.95,3.18.34,1.42.41,3.86.03,5.47,1.92,2.36,2.78,5.03,3.52,7.75.37,1.36.74,2.73,1.11,4.1.37,1.37.82,2.73,1.48,4.07l-1.28.67c1.96,2.44,2.6,5.49,3.04,8.45.22,1.48.39,2.95.65,4.32.23,1.37.51,2.66,1.06,3.77l-2.4-.08c-.51,1.57,1.09,3.24,2.69,2.62-.5,1.58,1.66,3.52-.12,4.73-.22,1.57,1.34,1.69,1.84,2.9-.46,3.14-.07,4.23.74,7.03.03-.24.05-.48.06-.72-.56-.25-1.56-.15-1.61.57.76.98-.23,3.98,2.46,2.6-1.31,3.23,2.04,6.99.16,10.18.74-.33.96.41,1.51.67.3,2.68-.97,5.63.54,7.66-.34.46-1.37-.57-1.34.52.35.62,1.02-.07,1.5.69,1.7,4.25-.95,8.92-.34,12.83.95,3.47,1.35,7.05,1.59,10.61.13,3.55.05,7.08.25,10.44l-.57-.06c2.2,2.21-2.11,5.33,1.18,7.07-.53.54-.22,2.04-1.31,1.66,1.56,1.79-1.34,5.03.64,7.62.06-.24-.06-.37-.31-.65-1.26,2.62.38,4.93-.8,7.69-.24-.28-.41-.79-.97-.88-1.1,1.05,2.34,2.55-.4,3.1.01.61,1.36.45,1.29.08-1.19,6.03.45,12.51.9,18.85-1.9,4.44-4.6.07-2.79,3.72-.54.26,1.03.26.46.28.68,1.41-3.17,1.98-1.8,3.01,1.7-.3.9.68,1.91.77-1.25,2.69-2.8,3.15-1.65,5.4l-.87-.22c2.33,2.7.82,5.56,3.56,7.92-.05,1.76-.04,3.53-.11,5.27-.07,1.75-.14,3.49-.21,5.23-.1,3.48-.21,6.94-.31,10.39-.05,1.73-.1,3.45-.15,5.18l-.09,2.59c-.04.86-.12,1.72-.19,2.58-.28,3.43-.6,6.87-1.01,10.31-.62,3.37-1.11,6.73-1.58,10.1-.57,3.35-1.14,6.7-1.72,10.06-.58,3.35-1.19,6.71-1.91,10.07-.81,3.34-1.79,6.66-2.91,9.98-2.97,2.67-2.96,2.91-2.82,6.61-.33-.23-.37-.47-.76-.31,1.8.61-.37,2.5,1.3,3.26-1.66,4.9-2.37,9.62-3.71,14.75.02-.87-1.37-1.69-1.5-.69l.9,1.33-.55.02c.1.73.81,1.71,1.57,1.19-.54,3.32-1.47,6.53-2.55,9.68-1.1,3.14-2.29,6.23-3.75,9.24-1.41,3.02-2.84,6-4.17,9.02-1.35,3.01-2.74,6-3.79,9.11-1.81,2.63-2.9,6.98-3.88,10.27-.78,1.03-1.55,2.05-2.31,3.06-.78,1-1.55,2-2.31,2.98-1.53,1.98-2.86,3.97-4.26,5.98-1.39,2.01-2.55,4.09-3.77,6.27-.6,1.09-1.13,2.21-1.67,3.38-.28.59-.56,1.18-.82,1.79l-.4.93-.47,1.05s-.2-.25-.49-.7c-.29-.44-.64-1.1-.98-1.85-.74-1.48-1.27-3.43-.79-5.52l.03.03Z"/>
    <path class="st11" d="M253.51,42.95c-.56.83-.41,2.08-1.95,2.01.69-.59,1.18-1.64,1.95-2.01Z"/>
    <path class="st11" d="M258.81,74.11c.27-.08-.19.54-.3.69-.2-.31-1.07-.3-.73-.76.21.31.6.08,1.03.08h0Z"/>
    <path class="st11" d="M261.17,81.27c-.41.1-.92-.16-1.37-.56-.47-.39-.9-.9-1.13-1.31.85.61,1.7,1.22,2.5,1.87Z"/>
    <path class="st11" d="M260.34,89.04c-.46.81-.89.78-1.15.02.4-.21.71-.04,1.15-.02Z"/>
    <path class="st11" d="M262.32,88.84c.22.54-.15.98-.5,1.4.67-.27-.9-1.1.5-1.4Z"/>
    <path class="st11" d="M264.79,103.97c.17.33,1.1.87.28,1.47.54-.56-1.56-1.37-.28-1.47Z"/>
    <path class="st11" d="M267.94,110.39c0,.24-.12.37.18.56-.26.51-.97.25-1.15-.07l.97-.49Z"/>
    <polygon class="st11" points="287.54 238.6 287.11 237.83 287.95 237.94 287.54 238.6"/>
    <path class="st11" d="M285.51,295.94c.45.82-.84.47-.98.59-.02-.7,1.01.34.98-.59Z"/>
    <polygon class="st11" points="286.26 327.23 286.27 327 287.98 327.31 286.26 327.23"/>
  </g>
  <rect class="st3" x="245.79" y="30.37" width="23.81" height="23.81"/>
  <rect class="st3" x="242.48" y="458.13" width="25.45" height="25.45"/>
  <g>
    <line class="st1" x1="466.29" y1="248.17" x2="466.29" y2="462.38"/>
    <g>
      <circle class="st10" cx="466.29" cy="458.35" r="17.54"/>
      <circle class="st5" cx="466.29" cy="458.35" r="17.54"/>
    </g>
  </g>
  <g>
    <line class="st1" x1="466.29" y1="248.8" x2="466.29" y2="34.58"/>
    <circle class="st4" cx="466.29" cy="38.62" r="17.95"/>
  </g>
  <rect class="st2" x="448.34" y="230.74" width="35.9" height="35.9"/>
  <path class="st6" d="M423.57,209.92c-.46,0-.89-.18-1.21-.5-12.34-12.34-28.73-19.14-46.16-19.14s-33.82,6.8-46.16,19.14c-.32.32-.75.5-1.21.5s-.89-.18-1.21-.5c-.67-.67-.67-1.75,0-2.42,12.99-12.99,30.24-20.14,48.58-20.14s35.59,7.15,48.58,20.14c.32.32.5.75.5,1.21s-.18.89-.5,1.21-.75.5-1.21.5h0Z"/>
  <path class="st6" d="M374.53,244.16c-7.9,0-14.32-6.42-14.32-14.32s6.42-14.32,14.32-14.32,14.32,6.43,14.32,14.32-6.42,14.32-14.32,14.32h0Z"/>
  <path class="st9" d="M287.11,355.7c20.98.82,44.47-3.28,65.95-18.49"/>
  <g>
    <path class="st0" d="M237.8,343.21s-.05.01,0,0h0Z"/>
    <path class="st0" d="M260.27,346.55h.02c.04-.18.08-.34.1-.47l-.12.47h0Z"/>
    <path class="st0" d="M263.79,348.15s0,.03.02.05c0-.11.02-.22-.02-.05Z"/>
    <path class="st0" d="M251.63,347.03s-.05.02-.08.08c.03-.04.05-.07.08-.08Z"/>
    <path class="st0" d="M231.16,341.95h.02v-.12l-.03.13h0Z"/>
    <path class="st0" d="M231.34,341.68c.02.16-.12.24-.16.26,0,.27.07.32.19.25.1-.27-.07-.29-.03-.51Z"/>
    <path class="st0" d="M220.04,337.53l.09-.08s-.06.05-.09.08Z"/>
    <path class="st0" d="M249.42,361.13s-.05.03-.07.06c.03.01.05-.02.07-.06Z"/>
    <path class="st0" d="M221.49,338.7l.24-.39c-.11.16-.18.28-.24.39Z"/>
    <path class="st0" d="M260.39,346.08l.05-.18s-.03.1-.05.18Z"/>
    <path class="st0" d="M267.18,348.68v.35h0v-.35Z"/>
    <path class="st0" d="M284.77,356.28c0-.06,0-.12-.02-.18l-.06.33s.06-.08.08-.15Z"/>
    <path class="st0" d="M271.8,350.96s.02-.1.02-.16c-.08-.16-.29-.19-.56-.18l-.04.57.58-.22h0Z"/>
    <path class="st0" d="M276.92,364.28l-.54-1.15c.88-.24,1.52-.08,2.13.04.61.1,1.19.13,1.94-.34l-.08.25c.23.26.29-2.3,2.77.76v.11c.09-.02.08-.25.26.05l-.44-.69c.24-.29.44-.84.77-.93.07.12.11.36.12.54l.81-.21.28.73c.24-.41.06-1.95.76-1.11-.29-1.07.3-.65.2-1.2.04.13.12.33.19.51.39-.14,1.12-.46,1.27-1.02,0,0-1.64-2.22-2.08-3.36.55.28.14-.14.02-.49l-.03.27c-.33-.25-.36-.93-.53-1.12,0,.05,0,.12.02.19l.02-.09c.02.12,0,.2,0,.27,0,.15,0,.26-.09.22v-.07c-.12.1-.35,0-.46-.04l-.02-.57c-.21,1.09-1.65-1.61-1.96-1.63-.33-.71-.71.2-1.11-.15-.64-.17-.33-.82-.65-1.3-.4-.35.09.66-.07.7l-.48-.78c.27-.08.12-.41.07-.63-.41-.09-1.05-1.11-1.17.03-.55-.53-.55-1-.78-1.06.08.21.23.4.23.63-.22-.51-.1.12,0,.23-.34.49-1.72-2.1-1.79-.86v-.23c-.09.93.03,1.83-.21,2.33l-.15-.42-.24.39c-.15-.3-.07-.55-.07-.66-.39.42-.92-.1-1.38-.24l.44,2.54c-.39-.59-1.07-1.79-1.17-.98l-.21-.85c-.74-1.64-.57.69-.87.2l-.36-.93.39.02c-.38-.48-.52-.78-.81-1.39v.02s.03.08.03.14l-.06.02c-.07.46-.28.77-.56.74-.38-.13-.72.52-1.3-.5l-.2.93-.44-.6.04-.75c.45.07,1.32-.13,1.91-.17l.03-.34c-.35,0-.76.3-.98.21-.1-.16-.35-.96-.12-1.45l-.25.72c-1.15,0-1.17.04-2.31-.9l.08.38c-.25.2-.51.4-.53-.21-.71-.17-1.42-.7-1.8-1.68l-.18.88c-.15-.06-.26-1.41-.44-.18l-.36.37c-.2-.08-.37.41-.56-.11h0s-.02-.07-.03-.11v.07c-.43-.45-.07.79-.55.22-.11-.65-.3,1.1-.54.87l-.13-1.3c-.39-.78-.61.48-1.29.4-.28-.49-.31-1.59.02-2.52-.43,1.12-.22.74-.68,1.25,0-.48.05-.58.19-1-.28-.6-.26.41-.52.35-.18.89-.45,2.31-.54,2.35l.07.29c-.34.45-.68.63-.95.14l.07-.45-.38.19.05-.58-.52.12.05.16c-.13.06-.54.22-.72-.11l.05-.32c-.48-1.07-1.16.13-1.9.13l.19-.64c-.14-.69-.22.99-.46.62l.11-.8c-.42,1.01-.3-.28-.41-.7l-.09,1.06-.3-.28c-.31-.41,0-1.36.13-1.9l-.38.78.1-.93c-.36,1.04-.15-.2-.56.32.03-.35.15-.54.07-.71l-.74,1.22.41-.52-.27,1.34c-.51.97-.42-.22-.72.12l.23-.37c-.44.26-.36-.31-.52-.65.02.26.06.65-.13.8-.13.06.02-.48-.06-.65-.19.89-.55,1.32-.73.86.03-.13.06-.25.09-.33-.09.13-.17.36-.24.13l.25-.99-.39.91c-.09-.29-.43.38-.29-.29l.12-.18-1.02-.47.14-.8c-.33,1.07-.49-.54-.74.83-.05-.79-.9.36-.46-1.16-.66-.27-1.37,1.13-2.05.2,0-1.37-.92-1.1-1.42-1.39-1.17.27-1.97.58-3.16.71-.15-1.97-1.79.22-2.18-1.02l-.39.65c-.12-1.27-1.23-.1-1.53-1.4-.25.26-.37.33-.41.35.02.04.02.19-.11.64-.08-.37-.58-.09-.27-.98l.08-.08c.31-.88-.69.25-.64-.59l-.2.99-.29-.27.15-.15c-2.21,1.61-1.82-1.66-3.89-.23.57-.96-.48.44-.07-.69.18-1.53-.75.06-1.18.32-.02.05-.05.12-.1.2l-.44-.33c.85-1.29-.82,1.02-.07-.06-.44-.79-1.17-1.08-1.97-1.31-.78-.25-1.62-.46-2.23-1.02l-.1.38c-.33-.23-1,0-1-.71s-1.02.59-1.16.6c-.6.45-.28-.88-.18-.75-.4,0-1.34,1.09-1.51.33.46-1.21-1.79.46-1.11-.81l-.06.1c-.06-1.18-1.41.01-1.52-1.11,0,0,.07-.08.14-.16-1.12,1.03-2.3,2.02-3.5,2.97-.82,1.38-1.56,2.83-2.31,4.26-.31,1.35-.54,2.76-.78,4.13,1.34.48,2.62.84,3.91,1.21l2.11,2.75,3.54,1.3,3.55,1.15.88-.83c.7,2.27,3.18.84,4.21,2.63l.33-.88c.43.08.22.62.28.81,3.96,1.05,8.25.92,11.51,2.86.21.68,1.33.54,1.46,1.24,1.4-.88,2.6-.59,3.73-.27l-.06.09.58-.09c0,.08,0,.19-.04.26.76-.71,1.58.25,2.29.71l-.06.09c1.1.22,2.19.33,3.28.39,1.09.03,2.18-.02,3.25-.02,2.16-.01,4.27.18,6.41.94,1.94,1.65,4.45-.22,6.73,1.11.4.94,5.19.35,5.61-.09l-.05.07Z"/>
    <path class="st0" d="M283.86,362.92h-.02c0,.4.04.25.02,0Z"/>
    <polygon class="st0" points="274.39 352.17 274.41 352.18 274.32 351.62 274.39 352.17"/>
    <path class="st0" d="M280.23,351.89c-.26-.12-.27-.02-.24.14.1.02.18-.01.24-.14Z"/>
    <path class="st0" d="M286.11,362.1c.15.03.08-.21-.02-.47-.15.05-.25.08-.25.08.09.09.18.3.27.39Z"/>
    <path class="st0" d="M285.29,356.76l.03-.32c-.08.08-.07.2-.03.32Z"/>
  </g>
</svg>