<?xml version="1.0" encoding="UTF-8"?>
<svg id="Layer_1" xmlns="http://www.w3.org/2000/svg" xmlns:xlink="http://www.w3.org/1999/xlink" version="1.1" viewBox="0 0 1910.09 200.55">
  <!-- Generator: Adobe Illustrator 29.6.1, SVG Export Plug-In . SVG Version: 2.1.1 Build 9)  -->
  <defs>
    <style>
      .st0, .st1, .st2, .st3, .st4, .st5, .st6, .st7, .st8 {
        fill: none;
      }

      .st1 {
        stroke: #4b4b4b;
        stroke-width: 2.5px;
      }

      .st1, .st2, .st3, .st4, .st5, .st9, .st6, .st8 {
        stroke-miterlimit: 10;
      }

      .st2, .st3 {
        stroke: #303030;
      }

      .st3 {
        stroke-width: 2.44px;
      }

      .st4 {
        stroke: #e84934;
        stroke-width: 16px;
      }

      .st10 {
        fill: #f05c57;
      }

      .st5 {
        stroke: #316cff;
      }

      .st9 {
        stroke-width: 1.01px;
      }

      .st9, .st11 {
        fill: #fff;
      }

      .st9, .st7 {
        stroke: #d3d3d3;
      }

      .st6 {
        stroke: #ff7171;
        stroke-linecap: round;
        stroke-width: 2.8px;
      }

      .st12 {
        fill: #1d1d1d;
      }

      .st13 {
        isolation: isolate;
      }

      .st7 {
        stroke-linejoin: round;
        stroke-width: 2.1px;
      }

      .st14 {
        fill: #00b1ba;
      }

      .st15 {
        fill: #ebe9e8;
      }

      .st16 {
        fill: #f59371;
      }

      .st17 {
        fill: #d3d3d3;
      }

      .st18 {
        clip-path: url(#clippath);
      }

      .st19 {
        fill: #999;
      }

      .st8 {
        stroke: #fff;
        stroke-width: 2px;
      }
    </style>
    <clipPath id="clippath">
      <path class="st0" d="M981.71,99.63l.35,48.74,41.25-1.4-.35-48.74-41.25,1.4ZM1007.76,109.46h-12.44v-4.41c0-.83.67-1.5,1.5-1.5.45,0,.88-.2,1.16-.55l1.03-1.25c.29-.35.71-.55,1.16-.55h2.72c.45,0,.88.21,1.17.56l.99,1.23c.29.35.72.56,1.17.56h.03c.83,0,1.5.67,1.5,1.5v4.41h0Z"/>
    </clipPath>
  </defs>
  <g>
    <rect class="st4" x="7.86" y="6.94" width="1892.12" height="186.12"/>
    <rect class="st12" x="7.86" y="6.94" width="1892.12" height="186.12"/>
    <rect class="st5" x="7.86" y="6.94" width="1892.12" height="186.12"/>
  </g>
  <g class="st13">
    <g class="st13">
      <path class="st11" d="M32.48,43.13c0,.09-.02.16-.09.17-.57.24-1.37.33-2.34.33-2.9,0-5.87-1.68-5.87-5.94,0-3.47,2.4-5.89,6.09-5.89,1.16,0,1.84.12,2.22.31.05.02.09.07.09.14v1.16c0,.1-.07.1-.12.09-.49-.26-1.27-.4-2.22-.4-2.73,0-4.58,1.77-4.58,4.55,0,3.63,2.73,4.65,4.55,4.65.89,0,1.53-.07,2.17-.31.07-.02.1-.02.1.07v1.06Z"/>
      <path class="st11" d="M34.17,31.11c0-.09.04-.1.12-.1h1.22c.09,0,.1.03.1.1v10.47c0,.68.28.83.7.83.12,0,.19-.02.35-.05.05,0,.07.03.07.1v.9c0,.09-.02.1-.09.14-.16.07-.43.12-.8.12-.85,0-1.67-.29-1.67-1.93v-10.59Z"/>
      <path class="st11" d="M39.21,39.41c-.02,1.65.94,2.95,2.9,2.95.76,0,1.49-.14,2.17-.47.05-.04.09,0,.09.07v.99c0,.1-.03.14-.09.17-.59.29-1.35.5-2.45.5-3,0-4.08-2.21-4.08-4.32,0-2.43,1.42-4.46,3.84-4.46s3.39,2.01,3.39,3.49c0,.43-.04.75-.07.9,0,.05-.05.1-.12.1-.26.05-1.02.07-1.79.07h-3.79ZM42.46,38.34c.85,0,1.06-.02,1.11-.04.02-.05.02-.14.02-.19,0-.62-.42-2.07-2.05-2.07-1.44,0-2.15,1.13-2.31,2.29h3.23Z"/>
      <path class="st11" d="M52.58,41.98c0,.29,0,.56.04.83,0,.04,0,.05-.04.07-1.25.59-2.24.75-3.25.75-1.84,0-3.23-.9-3.23-2.73s1.72-2.66,3.87-2.66c.64,0,1.01.02,1.2.03v-.42c0-.54-.26-1.74-1.96-1.74-.83,0-1.6.19-2.21.52-.05.02-.12,0-.12-.09v-1.06c0-.07.04-.1.09-.14.68-.33,1.55-.52,2.47-.52,2.22,0,3.14,1.46,3.14,3.26v3.87ZM51.18,39.43c-.24-.04-.62-.07-1.15-.07-1.68,0-2.5.57-2.5,1.54,0,.78.54,1.55,2.07,1.55.56,0,1.08-.09,1.58-.3v-2.73Z"/>
      <path class="st11" d="M55.02,36.98c0-.59-.04-1.56-.07-1.86,0-.07.02-.1.1-.1h1.08c.09,0,.12.04.16.1.05.16.07.49.1.87.76-.76,1.65-1.15,2.66-1.15,1.23,0,2.83.61,2.83,3.35v5.14c0,.09-.04.12-.12.12h-1.22c-.09,0-.12-.04-.12-.14v-4.98c0-1.32-.57-2.21-1.79-2.21-.88,0-1.61.4-2.17,1.06v6.15c0,.09-.02.12-.1.12h-1.23c-.07,0-.1-.04-.1-.12v-6.36Z"/>
      <path class="st11" d="M71.03,41.62c0,.92.05,1.35.1,1.74,0,.07-.02.1-.1.1h-1.11c-.09,0-.1-.02-.14-.09-.05-.19-.09-.5-.1-.75-.73.75-1.65,1.01-2.52,1.01-1.48,0-2.87-.75-2.87-3.26v-5.24c0-.09.04-.1.12-.1h1.23c.07,0,.09.04.09.1v5.07c0,1.34.62,2.15,1.84,2.15.83,0,1.49-.31,2.01-.89v-6.34c0-.07.04-.1.12-.1h1.22c.1,0,.1.04.1.1v6.49Z"/>
      <path class="st11" d="M80.77,38.95c0,3.16-2.5,4.69-4.97,4.69-.4,0-.64-.04-.89-.07v3.47c0,.07,0,.1-.09.12-.4.04-1.2.12-1.27.14-.07,0-.09-.02-.09-.1v-10.82c0-.16-.02-.54-.03-.76,0-.02,0-.05.03-.07.61-.23,1.75-.7,3.23-.7,2.57,0,4.06,1.77,4.06,4.1ZM74.92,36.39v5.89c.3.09.66.1.99.1,1.68,0,3.39-1.04,3.39-3.35,0-1.77-1.01-2.92-2.76-2.92-.61,0-1.13.1-1.62.28Z"/>
      <path class="st11" d="M87.46,31.98h1.93c.09,0,.1.03.14.1.59,1.79,2.69,8.02,3.06,9.53h.02c.4-1.44,2.71-7.76,3.3-9.53.02-.07.03-.1.12-.1h1.88c.09,0,.09.02.1.09l.59,11.29c.02.07-.04.1-.1.1h-1.28c-.09,0-.12-.02-.12-.09-.16-3.99-.33-9.32-.33-10.37h-.02c-.42,1.56-2.74,8.13-3.47,10.35-.02.09-.07.1-.14.1h-1.22c-.1,0-.14-.02-.16-.1-.92-2.88-2.74-8.61-3.21-10.37h-.04c-.02,1.51-.33,6.72-.52,10.37,0,.09-.04.1-.12.1h-1.18c-.09,0-.1-.02-.1-.1l.76-11.27c.02-.1.05-.1.12-.1Z"/>
      <path class="st11" d="M106.84,41.98c0,.29,0,.56.04.83,0,.04,0,.05-.04.07-1.25.59-2.24.75-3.25.75-1.84,0-3.23-.9-3.23-2.73s1.72-2.66,3.87-2.66c.64,0,1.01.02,1.2.03v-.42c0-.54-.26-1.74-1.96-1.74-.83,0-1.6.19-2.21.52-.05.02-.12,0-.12-.09v-1.06c0-.07.04-.1.09-.14.68-.33,1.55-.52,2.47-.52,2.22,0,3.14,1.46,3.14,3.26v3.87ZM105.44,39.43c-.24-.04-.62-.07-1.15-.07-1.68,0-2.5.57-2.5,1.54,0,.78.54,1.55,2.07,1.55.56,0,1.08-.09,1.58-.3v-2.73Z"/>
      <path class="st11" d="M111.55,36.04c-1.15,0-1.53.56-1.53,1.08s.31.89,1.62,1.41c1.75.68,2.47,1.39,2.47,2.62,0,1.6-1.3,2.48-3.11,2.48-.96,0-1.82-.21-2.33-.5-.05-.03-.09-.07-.09-.16v-1.16c0-.09.05-.12.1-.09.69.49,1.58.69,2.34.69,1.11,0,1.65-.49,1.65-1.13s-.38-1.02-1.58-1.49c-1.74-.66-2.46-1.37-2.46-2.6s1.06-2.34,2.95-2.34c.96,0,1.67.17,2.03.38.09.03.09.1.09.17v1.06c0,.09-.05.14-.14.09-.49-.29-1.28-.5-2.01-.5Z"/>
      <path class="st11" d="M119.61,43.22c0,.07-.02.14-.1.17-.4.17-.83.24-1.3.24-1.27,0-2.03-.61-2.03-2.28v-5.09h-1.18c-.1-.02-.12-.05-.12-.14v-.99c0-.09.04-.12.12-.12h1.18c.02-.64.09-1.84.16-2.22.02-.07.05-.1.12-.12l1.18-.19c.07-.02.1,0,.1.07-.05.61-.1,1.62-.1,2.47h1.84c.07,0,.1.04.1.12v1.02c0,.07-.04.1-.1.1h-1.84v4.88c0,.8.29,1.25,1.06,1.25.26,0,.52-.03.82-.14.05-.02.1-.02.1.07v.89Z"/>
      <path class="st11" d="M121.92,39.41c-.02,1.65.94,2.95,2.9,2.95.76,0,1.49-.14,2.17-.47.05-.04.09,0,.09.07v.99c0,.1-.04.14-.09.17-.59.29-1.35.5-2.45.5-3,0-4.08-2.21-4.08-4.32,0-2.43,1.42-4.46,3.84-4.46s3.39,2.01,3.39,3.49c0,.43-.03.75-.07.9,0,.05-.05.1-.12.1-.26.05-1.03.07-1.79.07h-3.79ZM125.17,38.34c.85,0,1.06-.02,1.11-.04.02-.05.02-.14.02-.19,0-.62-.42-2.07-2.05-2.07-1.44,0-2.15,1.13-2.31,2.29h3.23Z"/>
      <path class="st11" d="M130.56,35.02c.1,0,.12.04.16.12.07.21.12.82.14,1.2.61-.83,1.68-1.49,2.8-1.49.09,0,.12.02.12.12v1.25c0,.09-.02.1-.12.1-1.2-.02-2.29.57-2.73,1.27l-.02,5.76c0,.09-.03.1-.1.1h-1.23c-.09,0-.12-.04-.12-.12v-5.99c0-.73-.03-1.74-.09-2.22,0-.07.02-.1.09-.1h1.11Z"/>
    </g>
  </g>
  <path class="st2" d="M93.83,81.07h247.32c3.13,0,5.66,2.53,5.66,5.66v71.37c0,3.13-2.53,5.66-5.66,5.66H16.08c-3.13,0-5.66-2.53-5.66-5.66v-71.37c0-3.13,2.53-5.66,5.66-5.66h6.14"/>
  <g class="st13">
    <g class="st13">
      <path class="st11" d="M32.77,86.23c.37-1.23,1.25-3.99,3.4-9.95.02-.07.05-.1.14-.1h1.27c.07,0,.1.03.09.12l-4.13,11.25c-.04.09-.07.1-.16.1h-1.37c-.09,0-.12-.02-.16-.09l-4.22-11.27c-.04-.07-.02-.12.09-.12h1.34c.09,0,.1.02.12.09,2,5.31,3.25,8.84,3.56,9.97h.03Z"/>
      <path class="st11" d="M38.61,76.66c0-.52.36-.88.89-.88.56,0,.87.38.87.88s-.35.89-.89.89-.87-.36-.87-.89ZM38.75,79.33c0-.09.04-.12.12-.12h1.23c.07,0,.1.02.1.1v8.21c0,.09-.02.12-.12.12h-1.2c-.09,0-.14-.04-.14-.14v-8.18Z"/>
      <path class="st11" d="M45.12,80.23c-1.15,0-1.53.56-1.53,1.08s.31.89,1.62,1.41c1.75.68,2.47,1.39,2.47,2.62,0,1.6-1.3,2.48-3.11,2.48-.96,0-1.82-.21-2.33-.5-.05-.03-.09-.07-.09-.16v-1.16c0-.09.05-.12.1-.09.69.49,1.58.69,2.34.69,1.11,0,1.65-.49,1.65-1.13s-.38-1.02-1.58-1.49c-1.74-.66-2.46-1.37-2.46-2.6s1.06-2.34,2.95-2.34c.96,0,1.67.17,2.03.38.09.03.09.1.09.17v1.06c0,.09-.05.14-.14.09-.49-.29-1.28-.5-2.01-.5Z"/>
      <path class="st11" d="M49.27,76.66c0-.52.37-.88.89-.88.56,0,.87.38.87.88s-.35.89-.89.89-.87-.36-.87-.89ZM49.41,79.33c0-.09.04-.12.12-.12h1.23c.07,0,.1.02.1.1v8.21c0,.09-.02.12-.12.12h-1.2c-.09,0-.14-.04-.14-.14v-8.18Z"/>
      <path class="st11" d="M54.66,75.2c.09,0,.12,0,.12.1v4.08c.56-.23,1.18-.35,1.88-.35,2.4,0,3.96,1.72,3.96,4.06,0,3.13-2.36,4.72-4.81,4.72-.87,0-1.63-.1-2.38-.35-.07-.02-.1-.09-.1-.16v-12.02c0-.09.04-.1.12-.1h1.22ZM56.43,80.31c-.75,0-1.21.12-1.65.29v5.83c.33.1.68.14,1.15.14,1.67,0,3.21-1.11,3.21-3.35,0-1.77-1.04-2.92-2.71-2.92Z"/>
      <path class="st11" d="M62.3,76.66c0-.52.37-.88.89-.88.56,0,.87.38.87.88s-.35.89-.89.89-.87-.36-.87-.89ZM62.44,79.33c0-.09.04-.12.12-.12h1.23c.07,0,.1.02.1.1v8.21c0,.09-.02.12-.12.12h-1.2c-.09,0-.14-.04-.14-.14v-8.18Z"/>
      <path class="st11" d="M66.34,75.3c0-.09.04-.1.12-.1h1.22c.09,0,.1.03.1.1v10.47c0,.68.28.83.7.83.12,0,.19-.02.35-.05.05,0,.07.03.07.1v.9c0,.09-.02.1-.09.14-.16.07-.43.12-.8.12-.85,0-1.67-.29-1.67-1.93v-10.59Z"/>
      <path class="st11" d="M70.39,76.66c0-.52.36-.88.89-.88.56,0,.87.38.87.88s-.35.89-.89.89-.87-.36-.87-.89ZM70.53,79.33c0-.09.04-.12.12-.12h1.23c.07,0,.1.02.1.1v8.21c0,.09-.02.12-.12.12h-1.2c-.09,0-.14-.04-.14-.14v-8.18Z"/>
      <path class="st11" d="M78.21,87.41c0,.07-.02.14-.1.17-.4.17-.83.24-1.3.24-1.27,0-2.03-.61-2.03-2.28v-5.09h-1.18c-.1-.02-.12-.05-.12-.14v-.99c0-.09.04-.12.12-.12h1.18c.02-.64.09-1.84.16-2.22.02-.07.05-.1.12-.12l1.18-.19c.07-.02.1,0,.1.07-.05.61-.1,1.62-.1,2.47h1.84c.07,0,.1.04.1.12v1.02c0,.07-.04.1-.1.1h-1.84v4.88c0,.8.29,1.25,1.06,1.25.26,0,.52-.03.82-.14.05-.02.1-.02.1.07v.89Z"/>
      <path class="st11" d="M80.41,79.21c.07,0,.1.04.12.09,1.44,3.82,2.15,5.8,2.4,6.58.56-1.6,1.29-3.59,2.34-6.58.03-.05.07-.09.14-.09h1.23c.09,0,.1.05.07.12-1.29,3.77-3.07,8.21-4.72,11.93-.03.07-.09.1-.19.12l-1.3.1c-.09,0-.09-.05-.05-.14.5-1.06,1.15-2.47,1.72-3.84.04-.07.04-.12,0-.23-.42-1.04-2.15-5.26-3.21-7.97-.03-.07.02-.1.09-.1h1.37Z"/>
    </g>
  </g>
  <line class="st8" x1="149.19" y1="32.6" x2="160.6" y2="32.6"/>
  <line class="st8" x1="149.19" y1="37.35" x2="160.6" y2="37.35"/>
  <line class="st8" x1="149.19" y1="42.1" x2="160.6" y2="42.1"/>
  <rect class="st1" x="23.49" y="92.4" width="94.64" height="62.1" rx="14.01" ry="14.01"/>
  <rect class="st1" x="130.39" y="92.4" width="94.64" height="62.1" rx="14.01" ry="14.01"/>
  <rect class="st1" x="238.61" y="92.4" width="94.64" height="62.1" rx="14.01" ry="14.01"/>
  <g>
    <circle class="st17" cx="287.54" cy="122.43" r="3.96"/>
    <path class="st17" d="M301.15,123.19c-.21,0-.4-.08-.55-.23-3.48-3.48-8.12-5.4-13.06-5.4s-9.58,1.92-13.06,5.4c-.14.15-.34.23-.55.23s-.4-.08-.54-.23-.23-.34-.23-.54.08-.4.23-.54c3.78-3.78,8.81-5.87,14.15-5.87s10.37,2.08,14.15,5.87c.14.15.23.34.23.54s-.08.4-.23.54c-.15.15-.34.23-.54.23Z"/>
    <path class="st17" d="M287.55,128.95c-5.35,0-10.38-2.08-14.15-5.85-.14-.15-.23-.34-.23-.54s.08-.4.23-.54c.14-.15.34-.23.54-.23s.4.08.55.23c3.48,3.48,8.12,5.4,13.06,5.4s9.58-1.92,13.06-5.4c.14-.15.34-.23.55-.23s.4.08.54.23.23.34.23.54-.08.4-.23.54c-3.77,3.77-8.8,5.85-14.15,5.85Z"/>
    <path class="st17" d="M287.54,112.78c-.42,0-.77-.35-.77-.77v-6.07c0-.42.35-.77.77-.77s.77.35.77.77v6.07c0,.42-.35.77-.77.77Z"/>
    <path class="st17" d="M287.54,139.81c-.42,0-.77-.35-.77-.77v-6.07c0-.42.35-.77.77-.77s.77.35.77.77v6.07c0,.42-.35.77-.77.77Z"/>
    <path class="st17" d="M296.52,114.28c-.21,0-.4-.08-.54-.23s-.23-.34-.23-.54.08-.4.23-.54l3.83-3.83c.14-.15.34-.23.55-.23s.4.08.54.23.23.34.23.54-.08.4-.23.54l-3.83,3.83c-.14.15-.34.23-.54.23h0Z"/>
    <path class="st17" d="M274.73,136.07c-.21,0-.4-.08-.54-.23-.3-.3-.3-.79,0-1.09l3.83-3.83c.14-.14.34-.23.54-.23s.4.08.54.23.23.34.23.55-.08.4-.23.54l-3.83,3.83c-.14.14-.34.23-.54.23Z"/>
    <path class="st17" d="M278.55,114.28c-.21,0-.4-.08-.54-.23l-3.83-3.83c-.14-.15-.23-.34-.23-.54s.08-.4.23-.54c.14-.15.34-.23.54-.23s.4.08.54.23l3.83,3.83c.14.15.23.34.23.54s-.08.4-.23.54-.34.23-.54.23Z"/>
    <path class="st17" d="M300.35,136.07c-.21,0-.4-.08-.55-.23l-3.83-3.83c-.3-.3-.3-.79,0-1.09.14-.14.34-.23.54-.23s.4.08.54.23l3.83,3.83c.3.3.3.79,0,1.09-.14.14-.34.23-.54.23h0Z"/>
  </g>
  <g>
    <path class="st17" d="M85.72,120.12c-.21,0-.4-.08-.55-.23-3.49-3.49-8.13-5.42-13.06-5.42s-9.57,1.92-13.06,5.42c-.15.15-.34.23-.54.23s-.4-.08-.54-.23c-.3-.3-.3-.79,0-1.09,3.78-3.78,8.81-5.87,14.15-5.87s10.37,2.08,14.15,5.87c.14.15.23.34.23.54s-.08.4-.23.54-.34.23-.54.23h-.01Z"/>
    <path class="st17" d="M72.11,127.81c-2.61,0-4.73-2.12-4.73-4.73s2.12-4.73,4.73-4.73,4.73,2.12,4.73,4.73-2.12,4.73-4.73,4.73Z"/>
  </g>
  <g>
    <path class="st17" d="M177.5,125.21c-5.35,0-10.38-2.08-14.15-5.85-.14-.15-.23-.34-.23-.54s.08-.4.23-.54c.14-.15.34-.23.54-.23s.4.08.55.23c3.48,3.48,8.12,5.4,13.06,5.4s9.58-1.92,13.06-5.4c.14-.15.34-.23.55-.23s.4.08.54.23.23.34.23.54-.08.4-.23.54c-3.77,3.77-8.8,5.85-14.15,5.85Z"/>
    <path class="st17" d="M177.5,131.75c-.42,0-.77-.35-.77-.77v-6.07c0-.42.35-.77.77-.77s.77.35.77.77v6.07c0,.42-.35.77-.77.77Z"/>
    <path class="st17" d="M169.24,130.12c-.4-.13-.63-.56-.5-.97l1.85-5.78c.13-.4.56-.63.97-.5s.63.56.5.97l-1.85,5.78c-.13.4-.56.63-.97.5Z"/>
    <path class="st17" d="M185.98,130.12c.4-.13.63-.56.5-.97l-1.85-5.78c-.13-.4-.56-.63-.97-.5s-.63.56-.5.97l1.85,5.78c.13.4.56.63.97.5Z"/>
    <path class="st17" d="M162.03,125.9c-.21,0-.4-.08-.54-.23-.3-.3-.3-.79,0-1.09l3.83-3.83c.14-.14.34-.23.54-.23s.4.08.54.23.23.34.23.55-.08.4-.23.54l-3.83,3.83c-.14.14-.34.23-.54.23Z"/>
    <path class="st17" d="M193.41,125.57c-.21,0-.4-.08-.55-.23l-3.83-3.83c-.3-.3-.3-.79,0-1.09.14-.14.34-.23.54-.23s.4.08.54.23l3.83,3.83c.3.3.3.79,0,1.09-.14.14-.34.23-.54.23h0Z"/>
  </g>
  <g>
    <rect class="st1" x="364.33" y="92.67" width="94.64" height="62.1" rx="14.01" ry="14.01"/>
    <rect class="st1" x="496.44" y="92.67" width="94.64" height="62.1" rx="14.01" ry="14.01"/>
    <rect class="st1" x="605.75" y="92.67" width="94.64" height="62.1" rx="14.01" ry="14.01"/>
    <g>
      <path class="st2" d="M422.75,80.76h285.85c3.13,0,5.66,2.53,5.66,5.66v71.68c0,3.13-2.53,5.66-5.66,5.66h-355.68c-3.13,0-5.66-2.53-5.66-5.66v-71.68c0-3.13,2.53-5.66,5.66-5.66h6.14"/>
      <g class="st13">
        <g class="st13">
          <path class="st11" d="M365.85,85.91c-.1,0-.14-.05-.14-.14v-11.22c0-.07.02-.12.1-.12h1.25c.07,0,.09.03.09.1v10.05h5.38c.09,0,.1.05.09.1l-.21,1.11c-.02.09-.07.1-.14.1h-6.43Z"/>
          <path class="st11" d="M374.14,74.92c0-.52.37-.88.89-.88.55,0,.87.38.87.88s-.35.89-.88.89-.87-.36-.87-.89ZM374.28,77.59c0-.09.04-.12.12-.12h1.23c.07,0,.1.02.1.1v8.21c0,.09-.02.12-.12.12h-1.2c-.09,0-.14-.04-.14-.14v-8.18Z"/>
          <path class="st11" d="M378.19,79.43c0-.59-.04-1.56-.07-1.86,0-.07.02-.1.1-.1h1.08c.09,0,.12.04.16.1.05.16.07.49.1.87.76-.76,1.65-1.15,2.66-1.15,1.23,0,2.83.61,2.83,3.35v5.14c0,.09-.04.12-.12.12h-1.22c-.09,0-.12-.04-.12-.14v-4.98c0-1.32-.57-2.21-1.79-2.21-.88,0-1.61.4-2.17,1.06v6.15c0,.09-.02.12-.1.12h-1.23c-.07,0-.1-.04-.1-.12v-6.36Z"/>
          <path class="st11" d="M394.15,77.47c.09,0,.12.07.05.14-.49.54-3.11,3.07-3.75,3.7-.02.02,0,.05,0,.07,1.13,1.18,3.02,3.14,4.29,4.41.05.05.02.12-.07.12h-1.65c-.09,0-.12-.04-.17-.09-.9-.92-3.09-3.21-3.92-4.12v4.08c0,.09-.02.12-.1.12h-1.22c-.1,0-.12-.04-.12-.12v-12.22c0-.07.02-.1.12-.1h1.22c.07,0,.1.03.1.1v7.78c.82-.82,3.21-3.3,3.66-3.79.07-.07.1-.09.17-.09h1.39Z"/>
          <path class="st11" d="M395.61,74.92c0-.52.37-.88.89-.88.56,0,.87.38.87.88s-.35.89-.89.89-.87-.36-.87-.89ZM395.75,77.59c0-.09.04-.12.12-.12h1.23c.07,0,.1.02.1.1v8.21c0,.09-.02.12-.12.12h-1.2c-.09,0-.14-.04-.14-.14v-8.18Z"/>
          <path class="st11" d="M399.65,79.43c0-.59-.04-1.56-.07-1.86,0-.07.02-.1.1-.1h1.08c.09,0,.12.04.16.1.05.16.07.49.1.87.76-.76,1.65-1.15,2.66-1.15,1.23,0,2.83.61,2.83,3.35v5.14c0,.09-.04.12-.12.12h-1.22c-.09,0-.12-.04-.12-.14v-4.98c0-1.32-.57-2.21-1.79-2.21-.88,0-1.61.4-2.17,1.06v6.15c0,.09-.02.12-.1.12h-1.23c-.07,0-.1-.04-.1-.12v-6.36Z"/>
          <path class="st11" d="M412.54,84.49c2.15.1,3.37.89,3.37,2.41,0,1.74-1.65,3.11-4.2,3.11s-3.84-1.35-3.84-2.64c0-.59.5-1.37,1.7-2.38-.28-.38-.42-.83-.42-1.3,0-.38.1-.76.29-1.09-.71-.47-1.18-1.25-1.18-2.34,0-1.61,1.2-2.95,3.25-2.95.54,0,.99.07,1.3.14.16.03.26.03.36.03h2.45c.09,0,.1.04.1.1v.99c0,.07-.02.1-.1.1-.45,0-1.18-.03-1.6-.07.31.33.61.89.61,1.68,0,1.91-1.42,2.87-3.14,2.87-.33,0-.64-.04-.96-.1-.09.21-.12.43-.09.64.03.26.14.5.31.71l1.77.09ZM410.41,85.65c-.71.5-1.16,1.23-1.16,1.62,0,.8.96,1.62,2.55,1.62,1.91,0,2.76-.9,2.76-1.77,0-1.02-1.08-1.3-2.31-1.37l-1.84-.09ZM409.69,80.23c0,1.06.62,1.82,1.79,1.82,1.09,0,1.77-.66,1.77-1.79,0-1.01-.54-1.86-1.75-1.86-1.09,0-1.81.71-1.81,1.82Z"/>
        </g>
      </g>
      <line class="st3" x1="478.89" y1="90.7" x2="478.89" y2="152.8"/>
      <g>
        <path class="st17" d="M558.49,142.93c-3.03,0-5.49-2.47-5.49-5.49s2.47-5.49,5.49-5.49,5.5,2.47,5.5,5.49-2.47,5.49-5.5,5.49Z"/>
        <path class="st17" d="M544.87,131.75c-.42,0-.77-.35-.77-.77s.35-.77.77-.77h5.41l-6.75-6.75c-.14-.14-.23-.34-.23-.54s.08-.4.23-.55.34-.23.54-.23.4.08.54.23l6.75,6.75v-5.41c0-.42.35-.77.77-.77s.77.35.77.77v7.27c0,.1-.02.2-.06.3-.08.18-.23.34-.42.41-.1.04-.2.06-.29.06h-7.27.01Z"/>
        <path class="st17" d="M524.31,120.63c-.1,0-.2-.02-.3-.06-.18-.08-.34-.23-.41-.42-.04-.09-.06-.19-.06-.29v-16.75c0-.1.02-.2.06-.29.08-.19.23-.34.42-.42.1-.04.19-.06.29-.06h16.75c.1,0,.2.02.29.06.19.08.34.23.42.42.04.1.06.2.06.29v16.75c0,.1-.02.2-.06.3-.08.18-.23.33-.42.41-.1.04-.2.06-.29.06h-16.75ZM526.17,119.09h13.03l-6.52-6.52-6.52,6.52h0ZM533.78,111.48l6.52,6.52v-13.03l-6.52,6.52h0ZM525.08,118l6.52-6.52-6.52-6.52v13.03h0ZM532.69,110.4l6.52-6.52h-13.03l6.52,6.52h0Z"/>
      </g>
      <g>
        <path class="st17" d="M657.05,136.95c.23-.55.23-1.18,0-1.73h9.84v-14.79l-3.66,3.66c-.16.16-.38.25-.61.25s-.45-.09-.61-.25-.25-.38-.25-.61.09-.45.25-.61l5.14-5.14c.16-.16.38-.25.61-.25s.45.09.61.25l5.14,5.14c.16.16.25.38.25.61s-.09.45-.25.61-.38.25-.61.25-.45-.09-.61-.25l-3.66-3.66v15.66c0,.48-.39.87-.87.87h-10.71Z"/>
        <path class="st17" d="M666.89,111h-12.87v-1.74h13.73c.48,0,.87.39.87.87v5.93c-.27-.11-.57-.17-.87-.17s-.6.06-.87.17v-5.06h0Z"/>
        <path class="st17" d="M649.64,142.09c-.23,0-.45-.09-.61-.25-.34-.34-.34-.89,0-1.23l3.66-3.66h-10.88c-.48,0-.87-.39-.87-.87v-13.73h1.74v12.87h10.01l-3.66-3.66c-.16-.16-.25-.38-.25-.61s.09-.45.25-.61.38-.25.61-.25.45.09.61.25l5.14,5.14c.34.34.34.89,0,1.23l-5.14,5.14c-.16.16-.38.25-.61.25h0Z"/>
        <path class="st17" d="M633.16,119.03c-.1,0-.2-.02-.3-.06-.19-.08-.34-.23-.41-.42-.04-.1-.06-.19-.06-.29v-16.75c0-.1.02-.2.06-.29.08-.19.23-.34.42-.42.1-.04.2-.06.29-.06h16.75c.1,0,.2.02.3.06.18.08.34.23.42.42.04.09.06.19.06.29v16.75c0,.1-.02.2-.06.3-.08.19-.23.34-.42.41-.1.04-.2.06-.29.06h-16.76ZM635.02,117.49h13.04l-6.52-6.52-6.52,6.52h0ZM642.62,109.88l6.52,6.52v-13.03l-6.52,6.52h0ZM633.93,116.4l6.52-6.52-6.52-6.52v13.03h0ZM641.53,108.8l6.52-6.52h-13.04l6.52,6.52h0Z"/>
      </g>
      <g>
        <path class="st17" d="M407.34,126.24c-.42,0-.77-.35-.77-.77s.35-.77.77-.77h5.41l-5.91-5.91c-.15-.14-.23-.34-.23-.54s.08-.4.23-.54.34-.23.54-.23.4.08.54.23l5.91,5.91v-5.41c0-.42.35-.77.77-.77s.77.35.77.77v8.04h-8.04.01Z"/>
        <path class="st17" d="M416.32,144.64l-.18-.02-.06.02c-.18-.02-.34-.09-.47-.22-.15-.15-.22-.35-.22-.57v-16.65c0-.27.08-.47.23-.62.18-.18.4-.22.54-.22h16.71c.26,0,.45.08.59.22.15.15.22.35.22.57v16.62c0,.31-.08.51-.23.65-.13.13-.3.21-.49.22l-.17-.02-.07.02h-16.4ZM418.01,143.1h13.03l-6.52-6.52-6.52,6.52h0ZM425.62,135.49l6.52,6.52v-13.03l-6.52,6.52h0ZM416.92,142.01l6.52-6.52-6.52-6.52v13.03h0ZM424.53,134.41l6.52-6.52h-13.03l6.52,6.52h0Z"/>
        <path class="st17" d="M396.25,108.74h-4.28l3.7-5.98,2.88,4.13h2.04l-4.28-6.13c-.16-.23-.43-.34-.71-.36-.28,0-.54.16-.69.4l-5.16,8.34c-.16.26-.17.58-.02.85s.43.43.73.43h5.78v-1.67h.01Z"/>
        <path class="st17" d="M400.57,113.07c-.16-.16-.34-.29-.52-.43-.05-.04-.09-.08-.14-.12-.2-.15-.41-.29-.62-.41-.11-.07-.23-.13-.34-.2-.17-.09-.34-.16-.52-.23-.18-.07-.36-.14-.55-.2-.13-.04-.27-.07-.4-.1-.23-.05-.47-.1-.71-.12-.11,0-.21-.02-.32-.03-.14,0-.28-.04-.42-.04-.11,0-.21.03-.32.03-.15,0-.3.03-.45.05-.25.03-.5.06-.74.12-.09.02-.18.06-.27.08-2.66.78-4.62,3.21-4.62,6.11,0,3.11,2.23,5.7,5.18,6.27v-.02c2.01.39,4.17-.17,5.73-1.73,2.49-2.49,2.49-6.55,0-9.04h.03ZM399.39,120.93c-1,1-2.34,1.43-3.64,1.34-.22,0-.44-.04-.66-.08-.12-.03-.24-.06-.36-.1-.16-.05-.32-.1-.47-.16s-.29-.14-.44-.22c-.11-.06-.23-.12-.33-.19-.17-.11-.34-.24-.5-.38-1.01-.86-1.67-2.13-1.67-3.56,0-1.35.58-2.56,1.49-3.43h0c1.38-1.31,3.37-1.63,5.04-.94,1.65.69,2.83,2.31,2.9,4.2h0c.05,1.26-.4,2.54-1.36,3.51h0Z"/>
        <path class="st17" d="M406.21,106.89h-9.13c-.46,0-.83.37-.83.83v3.49c.07,0,.14,0,.21.02.11,0,.21.02.32.03.24.03.47.07.71.12.13.03.27.07.4.1.01,0,.02,0,.03,0v-2.94h7.46v6.9h-3.33c.19.54.3,1.1.34,1.67h3.82c.46,0,.83-.37.83-.83v-8.57c0-.46-.37-.83-.83-.83h0Z"/>
      </g>
    </g>
  </g>
  <g>
    <path class="st2" d="M820.97,81.52h1006.38c3.13,0,5.66,2.53,5.66,5.66v70.92c0,3.13-2.53,5.66-5.66,5.66H721.04c-3.13,0-5.66-2.53-5.66-5.66v-70.92c0-3.13,2.53-5.66,5.66-5.66h6.14"/>
    <g class="st13">
      <g class="st13">
        <path class="st11" d="M743.6,81.27c.02,3.73-2.19,5.97-5.19,5.97-3.32,0-5.26-2.52-5.26-5.94s2.21-5.89,5.23-5.89c3.26,0,5.21,2.57,5.23,5.85ZM738.44,85.94c2.31,0,3.68-1.88,3.66-4.64,0-2.69-1.48-4.58-3.75-4.58-2.08,0-3.73,1.62-3.73,4.58,0,2.52,1.32,4.64,3.82,4.64Z"/>
        <path class="st11" d="M749.53,86.83c0,.07-.02.14-.1.17-.4.17-.83.24-1.3.24-1.27,0-2.03-.61-2.03-2.28v-5.09h-1.18c-.1-.02-.12-.05-.12-.14v-.99c0-.09.03-.12.12-.12h1.18c.02-.64.09-1.84.16-2.22.02-.07.05-.1.12-.12l1.18-.19c.07-.02.1,0,.1.07-.05.61-.1,1.62-.1,2.47h1.84c.07,0,.1.04.1.12v1.02c0,.07-.04.1-.1.1h-1.84v4.88c0,.8.29,1.25,1.06,1.25.26,0,.52-.03.82-.14.05-.02.1-.02.1.07v.89Z"/>
        <path class="st11" d="M752.55,86.97c0,.09-.02.1-.1.1h-1.22c-.09,0-.12-.04-.12-.12v-12.22c0-.07.02-.1.1-.1h1.25c.07,0,.09.02.09.09l.02,4.76c.71-.66,1.55-1.01,2.57-1.01,1.23,0,2.83.61,2.83,3.35v5.14c0,.09-.04.12-.12.12h-1.22c-.09,0-.12-.04-.12-.14v-4.97c0-1.34-.57-2.22-1.79-2.22-.85,0-1.62.35-2.17.96v6.27Z"/>
        <path class="st11" d="M761.27,83.02c-.02,1.65.94,2.95,2.9,2.95.76,0,1.49-.14,2.17-.47.05-.04.09,0,.09.07v.99c0,.1-.04.14-.09.17-.59.29-1.35.5-2.45.5-3,0-4.08-2.21-4.08-4.32,0-2.43,1.42-4.46,3.84-4.46s3.39,2.01,3.39,3.49c0,.43-.03.75-.07.9,0,.05-.05.1-.12.1-.26.05-1.02.07-1.79.07h-3.79ZM764.52,81.95c.85,0,1.06-.02,1.11-.04.02-.05.02-.14.02-.19,0-.62-.42-2.07-2.05-2.07-1.44,0-2.15,1.13-2.31,2.29h3.23Z"/>
        <path class="st11" d="M769.9,78.63c.1,0,.12.04.16.12.07.21.12.82.14,1.2.61-.83,1.68-1.49,2.79-1.49.09,0,.12.02.12.12v1.25c0,.09-.02.1-.12.1-1.2-.02-2.29.57-2.73,1.27l-.02,5.76c0,.09-.04.1-.1.1h-1.23c-.09,0-.12-.04-.12-.12v-5.99c0-.73-.03-1.74-.09-2.22,0-.07.02-.1.09-.1h1.11Z"/>
        <path class="st11" d="M780.88,76.91h-3.72c-.07,0-.1-.04-.09-.12l.17-1.09c.02-.07.05-.1.14-.1h8.49c.09,0,.12.03.14.12l.12,1.08c.02.09-.02.12-.09.12h-3.72v10.02c0,.1-.03.14-.12.14h-1.2c-.09,0-.14-.04-.14-.12v-10.04Z"/>
        <path class="st11" d="M793,82.83c0,2.64-1.63,4.41-3.96,4.41-2.8,0-3.99-2.26-3.99-4.39,0-2.45,1.56-4.39,3.99-4.39s3.96,1.88,3.96,4.38ZM786.51,82.82c0,1.77.92,3.18,2.57,3.18,1.23,0,2.45-.97,2.45-3.13,0-1.62-.75-3.16-2.55-3.16-1.46,0-2.47,1.25-2.47,3.11Z"/>
        <path class="st11" d="M802.29,82.83c0,2.64-1.63,4.41-3.96,4.41-2.8,0-3.99-2.26-3.99-4.39,0-2.45,1.56-4.39,3.99-4.39s3.96,1.88,3.96,4.38ZM795.8,82.82c0,1.77.92,3.18,2.57,3.18,1.23,0,2.45-.97,2.45-3.13,0-1.62-.75-3.16-2.55-3.16-1.46,0-2.47,1.25-2.47,3.11Z"/>
        <path class="st11" d="M804.1,74.72c0-.09.04-.1.12-.1h1.22c.09,0,.1.03.1.1v10.47c0,.68.28.83.7.83.12,0,.19-.02.35-.05.05,0,.07.03.07.1v.9c0,.09-.02.1-.09.14-.16.07-.43.12-.8.12-.85,0-1.67-.29-1.67-1.93v-10.59Z"/>
        <path class="st11" d="M810.75,79.65c-1.15,0-1.53.56-1.53,1.08s.31.89,1.62,1.41c1.75.68,2.47,1.39,2.47,2.62,0,1.6-1.3,2.48-3.11,2.48-.96,0-1.82-.21-2.33-.5-.05-.03-.09-.07-.09-.16v-1.16c0-.09.05-.12.1-.09.69.49,1.58.69,2.34.69,1.11,0,1.65-.49,1.65-1.13s-.38-1.02-1.58-1.49c-1.74-.66-2.46-1.37-2.46-2.6s1.06-2.34,2.95-2.34c.96,0,1.67.17,2.03.38.09.03.09.1.09.17v1.06c0,.09-.05.14-.14.09-.49-.29-1.28-.5-2.01-.5Z"/>
      </g>
    </g>
    <rect class="st1" x="728.45" y="91.82" width="97.27" height="62.1" rx="14.01" ry="14.01"/>
    <rect class="st1" x="838.71" y="91.82" width="97.27" height="62.1" rx="14.01" ry="14.01"/>
    <rect class="st1" x="948.97" y="91.82" width="97.27" height="62.1" rx="14.01" ry="14.01"/>
    <rect class="st1" x="1059.22" y="91.82" width="97.27" height="62.1" rx="14.01" ry="14.01"/>
    <rect class="st1" x="1169.48" y="91.82" width="97.27" height="62.1" rx="14.01" ry="14.01"/>
    <g>
      <polygon class="st14" points="1860.27 106.47 1868.78 106.47 1868.78 114.98 1860.27 106.47"/>
      <polygon class="st16" points="1860.27 106.47 1851.76 97.96 1868.78 97.96 1860.27 106.47"/>
      <polygon class="st15" points="1860.27 106.47 1868.78 114.98 1851.76 114.98 1860.27 106.47"/>
      <polygon class="st10" points="1860.27 106.47 1851.76 114.98 1851.76 97.96 1860.27 106.47"/>
    </g>
    <g>
      <circle class="st17" cx="1860.27" cy="137.58" r="11.44"/>
      <g class="st13">
        <g class="st13">
          <path d="M1857.27,131.31c.8-.86,1.91-1.28,3.31-1.28,1.3,0,2.34.37,3.12,1.1.78.73,1.17,1.67,1.17,2.81,0,.69-.14,1.25-.42,1.68s-.86,1.06-1.74,1.89c-.64.61-1.05,1.12-1.25,1.54s-.29,1.04-.29,1.86h-1.74c0-.93.11-1.68.33-2.25.22-.57.71-1.22,1.48-1.96l.8-.77c.24-.22.43-.45.58-.69.27-.42.41-.86.41-1.32,0-.64-.19-1.19-.58-1.66s-1.03-.7-1.93-.7c-1.11,0-1.88.4-2.3,1.21-.24.45-.38,1.1-.41,1.94h-1.74c0-1.41.4-2.54,1.21-3.39ZM1859.39,142.53h1.94v2.03h-1.94v-2.03Z"/>
        </g>
      </g>
    </g>
    <g>
      <path class="st17" d="M895.6,113.67c-.43,0-.77.35-.77.77v15.14h-16.36c-.42,0-.77.35-.77.77v8.2c0,.43.35.77.77.77h24.11c.42,0,.77-.35.77-.77v-24.11c0-.43-.35-.77-.77-.77h-6.98ZM879.24,131.12h16.36c.42,0,.77-.35.77-.77v-15.14h5.44v22.57h-22.57v-6.66Z"/>
      <polygon class="st0" points="898.87 115.14 901.88 118.15 901.88 115.14 898.87 115.14"/>
      <path class="st17" d="M872.48,106.46c-.42,0-.77.35-.77.77v23.12c0,.42.35.77.77.77h23.12c.42,0,.77-.35.77-.77v-23.12c0-.42-.35-.77-.77-.77h-23.12ZM873.25,108h21.58v21.58h-21.58v-21.58Z"/>
      <polygon class="st17" points="886.14 131.05 884.06 131.05 890.77 137.85 892.94 137.85 886.14 131.05"/>
      <polygon class="st17" points="886.18 137.85 884.1 137.85 879.17 132.82 879.24 131.12 879.48 131.05 886.18 137.85"/>
      <polygon class="st17" points="897.43 137.85 899.51 137.85 892.71 131.05 890.63 131.05 897.43 137.85"/>
      <polygon class="st17" points="901.88 135.54 896.3 129.96 896.3 127.88 901.88 133.46 901.88 135.54"/>
      <polygon class="st17" points="901.88 128.88 896.3 123.39 896.3 121.21 901.88 126.8 901.88 128.88"/>
      <polygon class="st17" points="901.88 122.21 896.3 116.73 896.37 115.21 896.89 115.14 901.88 120.13 901.88 122.21"/>
    </g>
    <g>
      <path class="st17" d="M1090.77,108.85c-2.42,0-4.4-1.97-4.4-4.4s1.97-4.4,4.4-4.4,4.4,1.97,4.4,4.4-1.97,4.4-4.4,4.4Z"/>
      <path class="st17" d="M1125.75,109.18c-2.42,0-4.4-1.97-4.4-4.4s1.97-4.4,4.4-4.4,4.4,1.97,4.4,4.4-1.97,4.4-4.4,4.4Z"/>
      <path class="st17" d="M1108.41,127.59c-3.03,0-5.49-2.47-5.49-5.49s2.47-5.49,5.49-5.49,5.5,2.47,5.5,5.49-2.47,5.49-5.5,5.49Z"/>
      <path class="st17" d="M1091.1,143.89c-2.42,0-4.4-1.97-4.4-4.4s1.97-4.4,4.4-4.4,4.4,1.97,4.4,4.4-1.97,4.4-4.4,4.4Z"/>
      <path class="st17" d="M1125.58,143.89c-2.42,0-4.4-1.97-4.4-4.4s1.97-4.4,4.4-4.4,4.4,1.97,4.4,4.4-1.97,4.4-4.4,4.4Z"/>
      <g>
        <path class="st17" d="M1102.71,117.4c-.21,0-.42-.08-.57-.24l-6.65-6.65c-.15-.15-.24-.35-.24-.57s.08-.42.24-.57.35-.24.57-.24.42.08.57.24l6.65,6.65c.15.15.24.35.24.57s-.08.42-.24.57-.35.24-.57.24Z"/>
        <path class="st17" d="M1096.35,117.4c-.44,0-.8-.36-.8-.8s.36-.8.8-.8h5.55v-5.55c0-.44.36-.8.8-.8s.8.36.8.8v7.16h-7.16.01Z"/>
      </g>
      <g>
        <path class="st17" d="M1102.54,127.06c-.21,0-.42.08-.57.24l-6.65,6.65c-.15.15-.24.35-.24.57s.08.42.24.57.35.24.57.24.42-.08.57-.24l6.65-6.65c.15-.15.24-.35.24-.57s-.08-.42-.24-.57-.35-.24-.57-.24Z"/>
        <path class="st17" d="M1096.19,127.06c-.44,0-.8.36-.8.8s.36.8.8.8h5.55v5.55c0,.44.36.8.8.8s.8-.36.8-.8v-7.16h-7.16.01Z"/>
      </g>
      <g>
        <path class="st17" d="M1114.69,117.56c.21,0,.42-.08.57-.24l6.65-6.65c.15-.15.24-.35.24-.57s-.08-.42-.24-.57-.35-.24-.57-.24-.42.08-.57.24l-6.65,6.65c-.15.15-.24.35-.24.57s.08.42.24.57.35.24.57.24Z"/>
        <path class="st17" d="M1121.04,117.56c.44,0,.8-.36.8-.8s-.36-.8-.8-.8h-5.55v-5.55c0-.44-.36-.8-.8-.8s-.8.36-.8.8v7.16h7.16-.01Z"/>
      </g>
      <g>
        <path class="st17" d="M1114.69,126.9c.21,0,.42.08.57.24l6.65,6.65c.15.15.24.35.24.57s-.08.42-.24.57-.35.24-.57.24-.42-.08-.57-.24l-6.65-6.65c-.15-.15-.24-.35-.24-.57s.08-.42.24-.57.35-.24.57-.24Z"/>
        <path class="st17" d="M1121.04,126.9c.44,0,.8.36.8.8s-.36.8-.8.8h-5.55v5.55c0,.44-.36.8-.8.8s-.8-.36-.8-.8v-7.16h7.16-.01Z"/>
      </g>
    </g>
    <g>
      <g>
        <polygon class="st17" points="791.05 107.16 788.27 104.63 786.07 104.63 786.07 102.49 789.1 102.49 790.98 104.2 792.7 102.49 795.72 102.49 795.72 104.63 793.58 104.63 791.05 107.16"/>
        <polygon class="st17" points="795.72 142.49 792.7 142.49 790.98 140.78 789.1 142.49 786.07 142.49 786.07 140.35 788.27 140.35 791.05 137.82 793.58 140.35 795.72 140.35 795.72 142.49"/>
        <rect class="st17" x="789.82" y="105.36" width="2.14" height="35.1"/>
      </g>
      <g>
        <path class="st17" d="M759.65,110.92h6.41l1.73,1.73v9.12l-1.53,1.53,1.73,9.55h-2.68l-1.7-9.35h-1.18v9.35h-2.77v-21.93h0ZM765.02,120.67v-6.87l-.58-.58h-2.02v8.02h2.02l.58-.58h0Z"/>
        <path class="st17" d="M769.75,110.92h6.84v2.37h-4.07v7.27h3.55v2.37h-3.55v7.56h4.13v2.37h-6.9v-21.93h0Z"/>
        <path class="st17" d="M778.12,135.21v-2.37h9.35v2.37h-9.35Z"/>
      </g>
    </g>
    <g>
      <rect class="st1" x="1281.4" y="91.99" width="97.27" height="62.1" rx="14.01" ry="14.01"/>
      <rect class="st1" x="1391.66" y="91.99" width="97.27" height="62.1" rx="14.01" ry="14.01"/>
      <rect class="st1" x="1501.92" y="91.99" width="97.27" height="62.1" rx="14.01" ry="14.01"/>
      <rect class="st1" x="1612.17" y="91.99" width="97.27" height="62.1" rx="14.01" ry="14.01"/>
      <rect class="st1" x="1722.43" y="91.99" width="97.27" height="62.1" rx="14.01" ry="14.01"/>
      <path class="st17" d="M1661.08,136.37c-5.04,0-9.15-4.1-9.15-9.15v-8.48c0-2.02.66-3.94,1.9-5.56l.05-.06c1.78-2.25,4.39-3.53,7.2-3.53,5.04,0,9.15,4.1,9.15,9.15v8.48c0,1.94-.61,3.81-1.78,5.39-1.73,2.35-4.48,3.75-7.37,3.75h0ZM1654.01,116c-.35.9-.53,1.83-.53,2.74v8.48c0,4.19,3.41,7.61,7.61,7.61,1.99,0,3.87-.77,5.31-2.17l.43-.42-12.33-17.46-.47,1.21h-.02ZM1661.08,111.14c-1.88,0-3.7.72-5.12,2.02l-.45.42,12.3,17.4.44-1.29c.3-.86.44-1.66.44-2.46v-8.48c0-4.19-3.41-7.61-7.61-7.61Z"/>
      <g>
        <path class="st0" d="M1461.38,143.86h-2.37v-2.37h2.37v-2.37h-2.37v-2.37h2.37v-2.37h-2.37v-2.37h2.37v-2.37h-2.37v-2.37h2.37v2.37h.52v-2.05c0-.59-.48-1.08-1.08-1.08h-15.59c-.59,0-1.08.48-1.08,1.08v15.59c0,.59.48,1.08,1.08,1.08h1.86v-.36h-2.37v-2.37h2.37v-2.37h-2.37v-2.37h2.37v-2.37h-2.37v-2.37h2.37v-2.37h-2.37v-2.37h2.37v2.37h2.37v2.37h-2.37v2.37h2.37v2.37h-2.37v2.37h2.37v2.37h-2.37v2.37h2.37v.36h2.38v-.36h-2.37v-2.37h2.37v-2.37h-2.37v-2.37h2.37v-2.37h-2.37v-2.37h2.37v-2.37h-2.37v-2.37h2.37v2.37h2.37v2.37h-2.37v2.37h2.37v2.37h-2.37v2.37h2.37v2.37h-2.37v2.37h2.37v.36h2.38v-.36h-2.37v-2.37h2.37v-2.37h-2.37v-2.37h2.37v-2.37h-2.37v-2.37h2.37v-2.37h-2.37v-2.37h2.37v2.37h2.37v2.37h-2.37v2.37h2.37v2.37h-2.37v2.37h2.37v2.37h-2.37v2.37h2.37v.36h1.83c.21,0,.39-.07.56-.18v-.18l.03-.04Z"/>
        <g>
          <path class="st0" d="M1461.66,144.07h.25c.18-.2.3-.46.3-.75v-1.73h-.54v2.47h-.01Z"/>
          <rect class="st0" x="1461.66" y="136.66" width=".54" height="2.47"/>
          <rect class="st0" x="1461.66" y="131.72" width=".54" height="2.47"/>
          <rect class="st17" x="1444.33" y="141.6" width="2.47" height="2.47"/>
          <rect class="st17" x="1449.28" y="141.6" width="2.47" height="2.47"/>
          <rect class="st17" x="1454.23" y="141.6" width="2.47" height="2.47"/>
          <rect class="st17" x="1459.18" y="141.6" width="2.47" height="2.47"/>
          <rect class="st17" x="1446.8" y="144.07" width="2.47" height=".38"/>
          <rect class="st17" x="1451.75" y="144.07" width="2.47" height=".38"/>
          <rect class="st17" x="1456.7" y="144.07" width="2.47" height=".38"/>
          <rect class="st17" x="1444.33" y="136.66" width="2.47" height="2.47"/>
          <rect class="st17" x="1449.28" y="136.66" width="2.47" height="2.47"/>
          <rect class="st17" x="1454.23" y="136.66" width="2.47" height="2.47"/>
          <rect class="st17" x="1459.18" y="136.66" width="2.47" height="2.47"/>
          <rect class="st17" x="1446.8" y="139.13" width="2.47" height="2.47"/>
          <rect class="st17" x="1451.75" y="139.13" width="2.47" height="2.47"/>
          <rect class="st17" x="1456.7" y="139.13" width="2.47" height="2.47"/>
          <rect class="st17" x="1461.66" y="139.13" width=".54" height="2.47"/>
          <rect class="st17" x="1444.33" y="131.72" width="2.47" height="2.47"/>
          <rect class="st17" x="1449.28" y="131.72" width="2.47" height="2.47"/>
          <rect class="st17" x="1454.23" y="131.72" width="2.47" height="2.47"/>
          <rect class="st17" x="1459.18" y="131.72" width="2.47" height="2.47"/>
          <rect class="st17" x="1446.8" y="134.19" width="2.47" height="2.47"/>
          <rect class="st17" x="1451.75" y="134.19" width="2.47" height="2.47"/>
          <rect class="st17" x="1456.7" y="134.19" width="2.47" height="2.47"/>
          <rect class="st17" x="1461.66" y="134.19" width=".54" height="2.47"/>
          <rect class="st17" x="1444.33" y="126.78" width="2.47" height="2.47"/>
          <rect class="st17" x="1449.28" y="126.78" width="2.47" height="2.47"/>
          <rect class="st17" x="1454.23" y="126.78" width="2.47" height="2.47"/>
          <rect class="st17" x="1459.18" y="126.78" width="2.47" height="2.47"/>
          <rect class="st17" x="1446.8" y="129.25" width="2.47" height="2.47"/>
          <rect class="st17" x="1451.75" y="129.25" width="2.47" height="2.47"/>
          <rect class="st17" x="1456.7" y="129.25" width="2.47" height="2.47"/>
          <rect class="st17" x="1461.66" y="129.25" width=".54" height="2.47"/>
        </g>
        <circle class="st17" cx="1453.03" cy="135.35" r="4.92"/>
        <polygon class="st17" points="1422.72 113.78 1418.06 109.1 1424.58 108.05 1427.59 102.18 1430.6 108.05 1437.11 109.1 1432.46 113.78 1433.47 120.3 1427.59 117.31 1421.7 120.3 1422.72 113.78"/>
        <path class="st17" d="M1442.81,126.09c-.21,0-.42-.08-.57-.24l-7.04-7.04c-.15-.15-.24-.35-.24-.57s.08-.42.24-.57.35-.24.57-.24.42.08.57.24l7.04,7.04c.15.15.24.35.24.57s-.08.42-.24.57-.35.24-.57.24Z"/>
        <path class="st17" d="M1436.46,126.09c-.44,0-.8-.36-.8-.8s.36-.8.8-.8h5.55v-5.55c0-.44.36-.8.8-.8s.8.36.8.8v7.16h-7.16,0Z"/>
        <path class="st17" d="M1445.24,144.51c-.75,0-1.37-.61-1.37-1.37v-15.59c0-.75.61-1.37,1.37-1.37h15.59c.75,0,1.37.61,1.37,1.37v15.59c0,.75-.61,1.37-1.37,1.37h-15.59ZM1444.45,143.87l17.1.06.05-.79v-16.31l-17.1-.06-.06,17.1h0Z"/>
      </g>
      <g>
        <g>
          <polygon class="st17" points="1331.18 103.71 1332.1 105.29 1332.1 135.58 1331.18 135.17 1331.18 103.71"/>
          <polygon class="st17" points="1333.69 136.27 1333.69 134.2 1341.38 137.57 1340.38 127.51 1347.1 119.96 1337.23 117.8 1333.69 111.76 1333.69 108 1338.45 116.12 1350.67 118.8 1342.35 128.15 1343.59 140.61 1333.69 136.27"/>
        </g>
        <rect class="st9" x="1340.04" y="126.03" width="3.12" height="3.12"/>
        <rect class="st9" x="1347.56" y="117.51" width="3.12" height="3.12"/>
        <rect class="st9" x="1336.08" y="115.41" width="3.12" height="3.12"/>
        <rect class="st9" x="1341.53" y="137.9" width="3.12" height="3.12"/>
        <polygon class="st17" points="1316.07 124.93 1308.82 120.15 1317.52 119.31 1312.78 113.18 1320.98 114.99 1320.03 106.72 1326.24 112.46 1327.54 109.53 1327.54 114.23 1326.91 115.66 1322.5 111.59 1323.18 117.42 1317.49 116.16 1321.13 120.87 1314.35 121.52 1319.72 125.05 1314.97 127.72 1321.15 128.99 1317.13 133.39 1323.8 131.83 1321.28 138.51 1327.54 134.62 1327.54 136.86 1317.53 143.08 1320.77 134.49 1311.59 136.63 1317.5 130.18 1309.62 128.56 1316.07 124.93"/>
        <rect class="st9" x="1317.92" y="139.51" width="3.12" height="3.12"/>
        <rect class="st9" x="1312.16" y="133.49" width="3.12" height="3.12"/>
        <rect class="st9" x="1309.65" y="126.48" width="3.12" height="3.12"/>
        <rect class="st9" x="1309.52" y="119.46" width="3.12" height="3.12"/>
        <rect class="st9" x="1313.36" y="113.05" width="3.12" height="3.12"/>
        <rect class="st9" x="1319.5" y="107.06" width="3.12" height="3.12"/>
        <path class="st17" d="M1330.61,102.13c.82,0,1.49.67,1.49,1.49v40.96c0,.82-.67,1.49-1.49,1.49s-1.49-.67-1.49-1.49v-40.96c0-.82.67-1.49,1.49-1.49Z"/>
      </g>
      <path class="st7" d="M1559.2,126.39c-.57,0-1.13.06-1.68.16v-10.33h-10l-7.27-12.59-9.79,16.95h11.08v11.62h8.89c-.48,1.14-.75,2.39-.75,3.7,0,5.26,4.26,9.52,9.52,9.52s9.52-4.26,9.52-9.52-4.26-9.52-9.52-9.52h0Z"/>
      <g>
        <path class="st17" d="M1759.99,134.13c-.28,0-.54-.11-.73-.3l-10.45-10.45,10.45-10.45c.2-.2.46-.3.73-.3s.54.11.73.3.3.46.3.73-.11.54-.3.73l-8.99,8.99,8.99,8.99c.2.2.3.46.3.73s-.11.54-.3.73-.46.3-.73.3Z"/>
        <path class="st17" d="M1782.52,134.13c-.28,0-.54-.11-.73-.3s-.3-.46-.3-.73.11-.54.3-.73l8.99-8.99-8.99-8.99c-.2-.19-.3-.46-.3-.73s.11-.54.3-.73.46-.3.73-.3.54.11.73.3l10.45,10.45-10.45,10.45c-.2.2-.46.3-.73.3Z"/>
        <g>
          <line class="st6" x1="1764.24" y1="116.36" x2="1778.27" y2="130.38"/>
          <line class="st6" x1="1778.27" y1="116.36" x2="1764.24" y2="130.38"/>
        </g>
      </g>
    </g>
    <g>
      <rect class="st17" x="995.28" y="116.02" width="12.61" height="1.71"/>
      <polygon class="st17" points="996.72 124.45 995.28 125.88 995.28 126.16 1007.9 126.16 1007.9 124.45 996.72 124.45"/>
      <rect class="st17" x="995.28" y="128.66" width="12.61" height="1.71"/>
      <polygon class="st17" points="995.63 120.24 996.04 120.64 997.09 121.7 997.34 121.94 1007.9 121.94 1007.9 120.24 995.63 120.24"/>
      <g class="st18">
        <g>
          <rect class="st17" x="987.07" y="121.39" width="1.85" height="2.99"/>
          <path class="st17" d="M1015.39,103.33h-29.15c-.16,0-.58.42-.58.92v7.2c.55.14,1.05.41,1.46.82l.38.38.03-7.65,26.92.17.35,35.59h-27.3v-7.67l-.38.38c-.41.41-.92.68-1.46.82v7.39c0,.51.42.92.92.92h29.15c.51,0,.92-.42.92-.92v-37.44c0-.51-.42-.92-1.27-.92h0Z"/>
        </g>
      </g>
      <path class="st17" d="M984.89,132.74c.38,0,.77-.15,1.06-.44l9.42-9.42-1.06-1.06-8.36-8.36c-.29-.29-.67-.44-1.06-.44s-.77.15-1.06.44c-.58.58-.58,1.53,0,2.11l5.81,5.81h-13.89c-.4,0-.78.15-1.06.44s-.44.66-.44,1.06.16.78.44,1.06.66.44,1.06.44h13.89l-5.81,5.81c-.58.58-.58,1.53,0,2.11.29.29.67.44,1.06.44h0Z"/>
      <g>
        <g>
          <path class="st17" d="M991.37,109.02h3.95v-1.68h-4.26c-.76,0-1.37.61-1.37,1.37v5.48l1.68,1.68v-6.85Z"/>
          <path class="st17" d="M1011.2,107.34h-3.45v1.68h3.14v21.88h-4.16c-.79,0-1.43.64-1.43,1.43v4.36h-13.94v-6.79l-1.68,1.68v5.47c0,.73.59,1.32,1.32,1.32h15.48l6.08-6.08v-23.56c0-.76-.62-1.38-1.38-1.38h.02ZM1006.99,135.5v-2.92h2.92l-2.92,2.92Z"/>
        </g>
        <path class="st17" d="M1008.6,109.89h-14.11v-5.25c0-1.29,1.05-2.34,2.34-2.34.2,0,.39-.09.51-.24l1.03-1.25c.45-.54,1.11-.85,1.81-.85h2.72c.71,0,1.38.32,1.82.87l.99,1.23c.13.16.31.25.52.25,1.32,0,2.37,1.05,2.37,2.34v5.25h0ZM996.16,108.21h10.76v-3.57c0-.37-.3-.66-.66-.66-.74,0-1.41-.32-1.85-.87l-.99-1.23c-.13-.16-.31-.25-.52-.25h-2.72c-.2,0-.39.09-.51.24l-1.03,1.25c-.45.54-1.11.85-1.81.85-.37,0-.66.3-.66.66v3.57h-.01Z"/>
      </g>
    </g>
    <g>
      <rect class="st19" x="1206.96" y="113.5" width="19.99" height="19.99" transform="translate(269.39 897.02) rotate(-45.02)"/>
      <polygon class="st17" points="1231.07 123.47 1216.94 137.61 1216.8 137.47 1216.8 109.48 1216.94 109.34 1231.07 123.47"/>
    </g>
  </g>
</svg>