<?xml version="1.0" encoding="UTF-8"?>
<svg id="Layer_1" xmlns="http://www.w3.org/2000/svg" version="1.1" viewBox="0 0 718.15 250.49">
  <!-- Generator: Adobe Illustrator 29.6.1, SVG Export Plug-In . SVG Version: 2.1.1 Build 9)  -->
  <defs>
    <style>
      .st0, .st1 {
        stroke: #303030;
      }

      .st0, .st1, .st2 {
        fill: none;
      }

      .st0, .st1, .st2, .st3 {
        stroke-miterlimit: 10;
      }

      .st1 {
        stroke-width: 2.44px;
      }

      .st4 {
        fill: #e84934;
      }

      .st5 {
        font-family: AdobeClean-Medium, 'Adobe Clean';
        font-size: 17.37px;
        font-weight: 500;
        isolation: isolate;
      }

      .st5, .st3 {
        fill: #1d1d1d;
      }

      .st2 {
        stroke: #e84934;
        stroke-width: 2px;
      }

      .st3 {
        stroke: #4b4b4b;
        stroke-width: 2.5px;
      }

      .st6 {
        fill: #d3d3d3;
      }
    </style>
  </defs>
  <g>
    <path class="st0" d="M112.31,25.85h484.87c3.13,0,5.66,2.53,5.66,5.66v83.73c0,3.13-2.53,5.66-5.66,5.66H42.48c-3.13,0-5.66-2.53-5.66-5.66V31.51c0-3.13,2.53-5.66,5.66-5.66h6.14"/>
    <text class="st5" transform="translate(53.89 31)"><tspan x="0" y="0">Linking</tspan></text>
    <line class="st1" x1="228.03" y1="35.79" x2="228.03" y2="97.89"/>
    <g>
      <rect class="st3" x="244.74" y="35.79" width="163.57" height="62.1" rx="13.77" ry="13.77"/>
      <g>
        <path class="st6" d="M340.27,88.02c-3.03,0-5.49-2.47-5.49-5.49s2.47-5.49,5.49-5.49,5.5,2.47,5.5,5.49-2.47,5.49-5.5,5.49Z"/>
        <path class="st6" d="M326.65,76.84c-.42,0-.77-.35-.77-.77s.35-.77.77-.77h5.41l-6.75-6.75c-.14-.14-.23-.34-.23-.54s.08-.4.23-.55.34-.23.54-.23.4.08.54.23l6.75,6.75v-5.41c0-.42.35-.77.77-.77s.77.35.77.77v7.27c0,.1-.02.2-.06.3-.08.18-.23.34-.42.41-.1.04-.2.06-.29.06h-7.27.01Z"/>
        <path class="st6" d="M306.09,65.72c-.1,0-.2-.02-.3-.06-.18-.08-.34-.23-.41-.42-.04-.09-.06-.19-.06-.29v-16.75c0-.1.02-.2.06-.29.08-.19.23-.34.42-.42.1-.04.19-.06.29-.06h16.75c.1,0,.2.02.29.06.19.08.34.23.42.42.04.1.06.2.06.29v16.75c0,.1-.02.2-.06.3-.08.18-.23.33-.42.41-.1.04-.2.06-.29.06h-16.75ZM307.95,64.18h13.03l-6.52-6.52-6.52,6.52h0ZM315.56,56.57l6.52,6.52v-13.03l-6.52,6.52h0ZM306.86,63.09l6.52-6.52-6.52-6.52v13.03h0ZM314.47,55.49l6.52-6.52h-13.03l6.52,6.52h0Z"/>
      </g>
    </g>
    <g>
      <rect class="st3" x="421.22" y="35.79" width="164.24" height="62.1" rx="13.79" ry="13.79"/>
      <g>
        <path class="st6" d="M506.91,82.04c.23-.55.23-1.18,0-1.73h9.84v-14.79l-3.66,3.66c-.16.16-.38.25-.61.25s-.45-.09-.61-.25-.25-.38-.25-.61.09-.45.25-.61l5.14-5.14c.16-.16.38-.25.61-.25s.45.09.61.25l5.14,5.14c.16.16.25.38.25.61s-.09.45-.25.61-.38.25-.61.25-.45-.09-.61-.25l-3.66-3.66v15.66c0,.48-.39.87-.87.87h-10.71Z"/>
        <path class="st6" d="M516.75,56.09h-12.87v-1.74h13.73c.48,0,.87.39.87.87v5.93c-.27-.11-.57-.17-.87-.17s-.6.06-.87.17v-5.06h0Z"/>
        <path class="st6" d="M499.5,87.18c-.23,0-.45-.09-.61-.25-.34-.34-.34-.89,0-1.23l3.66-3.66h-10.88c-.48,0-.87-.39-.87-.87v-13.73h1.74v12.87h10.01l-3.66-3.66c-.16-.16-.25-.38-.25-.61s.09-.45.25-.61.38-.25.61-.25.45.09.61.25l5.14,5.14c.34.34.34.89,0,1.23l-5.14,5.14c-.16.16-.38.25-.61.25h0Z"/>
        <path class="st6" d="M483.02,64.12c-.1,0-.2-.02-.3-.06-.19-.08-.34-.23-.41-.42-.04-.1-.06-.19-.06-.29v-16.75c0-.1.02-.2.06-.29.08-.19.23-.34.42-.42.1-.04.2-.06.29-.06h16.75c.1,0,.2.02.3.06.18.08.34.23.42.42.04.09.06.19.06.29v16.75c0,.1-.02.2-.06.3-.08.19-.23.34-.42.41-.1.04-.2.06-.29.06h-16.76ZM484.88,62.58h13.04l-6.52-6.52-6.52,6.52h0ZM492.48,54.97l6.52,6.52v-13.03l-6.52,6.52h0ZM483.79,61.49l6.52-6.52-6.52-6.52v13.03h0ZM491.39,53.89l6.52-6.52h-13.04l6.52,6.52h0Z"/>
      </g>
    </g>
    <g>
      <rect class="st3" x="51.53" y="35.79" width="161.76" height="62.1" rx="13.69" ry="13.69"/>
      <g>
        <path class="st6" d="M127.95,71.33c-.42,0-.77-.35-.77-.77s.35-.77.77-.77h5.41l-5.91-5.91c-.15-.14-.23-.34-.23-.54s.08-.4.23-.54.34-.23.54-.23.4.08.54.23l5.91,5.91v-5.41c0-.42.35-.77.77-.77s.77.35.77.77v8.04h-8.04.01Z"/>
        <path class="st6" d="M136.93,89.73l-.18-.02-.06.02c-.18-.02-.34-.09-.47-.22-.15-.15-.22-.35-.22-.57v-16.65c0-.27.08-.47.23-.62.18-.18.4-.22.54-.22h16.71c.26,0,.45.08.59.22.15.15.22.35.22.57v16.62c0,.31-.08.51-.23.65-.13.13-.3.21-.49.22l-.17-.02-.07.02h-16.4ZM138.62,88.19h13.03l-6.52-6.52-6.52,6.52h0ZM146.23,80.58l6.52,6.52v-13.03l-6.52,6.52h0ZM137.53,87.1l6.52-6.52-6.52-6.52v13.03h0ZM145.14,79.5l6.52-6.52h-13.03l6.52,6.52h0Z"/>
        <path class="st6" d="M116.86,53.83h-4.28l3.7-5.98,2.88,4.13h2.04l-4.28-6.13c-.16-.23-.43-.34-.71-.36-.28,0-.54.16-.69.4l-5.16,8.34c-.16.26-.17.58-.02.85s.43.43.73.43h5.78v-1.67h.01Z"/>
        <path class="st6" d="M121.18,58.16c-.16-.16-.34-.29-.52-.43-.05-.04-.09-.08-.14-.12-.2-.15-.41-.29-.62-.41-.11-.07-.23-.13-.34-.2-.17-.09-.34-.16-.52-.23-.18-.07-.36-.14-.55-.2-.13-.04-.27-.07-.4-.1-.23-.05-.47-.1-.71-.12-.11,0-.21-.02-.32-.03-.14,0-.28-.04-.42-.04-.11,0-.21.03-.32.03-.15,0-.3.03-.45.05-.25.03-.5.06-.74.12-.09.02-.18.06-.27.08-2.66.78-4.62,3.21-4.62,6.11,0,3.11,2.23,5.7,5.18,6.27v-.02c2.01.39,4.17-.17,5.73-1.73,2.49-2.49,2.49-6.55,0-9.04h.03ZM120,66.02c-1,1-2.34,1.43-3.64,1.34-.22,0-.44-.04-.66-.08-.12-.03-.24-.06-.36-.1-.16-.05-.32-.1-.47-.16s-.29-.14-.44-.22c-.11-.06-.23-.12-.33-.19-.17-.11-.34-.24-.5-.38-1.01-.86-1.67-2.13-1.67-3.56,0-1.35.58-2.56,1.49-3.43h0c1.38-1.31,3.37-1.63,5.04-.94,1.65.69,2.83,2.31,2.9,4.2h0c.05,1.26-.4,2.54-1.36,3.51h0Z"/>
        <path class="st6" d="M126.82,51.98h-9.13c-.46,0-.83.37-.83.83v3.49c.07,0,.14,0,.21.02.11,0,.21.02.32.03.24.03.47.07.71.12.13.03.27.07.4.1.01,0,.02,0,.03,0v-2.94h7.46v6.9h-3.33c.19.54.3,1.1.34,1.67h3.82c.46,0,.83-.37.83-.83v-8.57c0-.46-.37-.83-.83-.83h0Z"/>
      </g>
    </g>
  </g>
  <g>
    <path d="M107.89,222.6v-2.26h2.65v-6.97h-2.28v-1.73c.67-.13,1.23-.28,1.69-.46.46-.18.91-.39,1.34-.65h2.07v9.8h2.28v2.26h-7.75Z"/>
    <path d="M119.55,222.82c-.49,0-.89-.17-1.22-.5-.33-.34-.49-.75-.49-1.24s.16-.93.49-1.26.73-.5,1.22-.5.89.17,1.22.5c.33.34.49.76.49,1.26s-.16.91-.49,1.24c-.33.33-.73.5-1.22.5Z"/>
    <path d="M128.35,222.6v-15.09h4.34c.85,0,1.63.08,2.33.23.7.15,1.3.4,1.8.75.5.34.88.8,1.16,1.37.28.57.42,1.27.42,2.09s-.14,1.49-.41,2.07c-.27.58-.65,1.07-1.15,1.45-.5.38-1.09.67-1.78.86-.69.19-1.45.29-2.29.29h-2.51v5.98h-1.93ZM130.28,215.05h2.28c1.33,0,2.32-.25,2.96-.75.64-.5.96-1.28.96-2.36s-.34-1.84-1.01-2.26c-.67-.42-1.68-.63-3.01-.63h-2.18v6Z"/>
    <path d="M142.91,222.87c-.94,0-1.73-.28-2.36-.83s-.94-1.33-.94-2.35c0-1.23.55-2.17,1.65-2.82,1.1-.65,2.86-1.11,5.27-1.37,0-.35-.04-.7-.1-1.04-.07-.34-.19-.64-.36-.9-.17-.26-.41-.47-.71-.63s-.68-.24-1.15-.24c-.65,0-1.26.12-1.83.37-.57.25-1.08.52-1.53.83l-.74-1.31c.53-.34,1.17-.66,1.93-.98s1.59-.47,2.51-.47c1.38,0,2.38.42,3,1.25s.93,1.95.93,3.35v6.85h-1.58l-.16-1.33h-.07c-.54.45-1.12.82-1.74,1.14-.62.31-1.28.47-2,.47ZM143.47,221.35c.54,0,1.05-.13,1.53-.38.48-.25.99-.62,1.53-1.12v-3.1c-.94.12-1.74.27-2.38.44-.64.17-1.16.37-1.56.6-.4.23-.68.49-.86.79s-.27.62-.27.98c0,.64.19,1.1.58,1.38.39.28.86.41,1.42.41Z"/>
    <path d="M152.02,222.6v-11.18h1.58l.16,2.02h.07c.39-.71.86-1.26,1.41-1.68.55-.41,1.15-.62,1.8-.62.45,0,.85.08,1.21.23l-.37,1.66c-.19-.06-.36-.11-.51-.14-.15-.03-.35-.05-.58-.05-.48,0-.98.19-1.5.58-.52.38-.97,1.05-1.36,2v7.18h-1.9Z"/>
    <path d="M164.41,222.87c-.76,0-1.47-.13-2.12-.4-.66-.27-1.23-.65-1.72-1.15-.49-.5-.87-1.11-1.15-1.83-.28-.72-.42-1.54-.42-2.46s.14-1.74.43-2.47c.29-.73.67-1.35,1.14-1.85.47-.51,1.01-.89,1.61-1.16.6-.27,1.23-.4,1.88-.4.71,0,1.35.12,1.92.37.56.25,1.04.6,1.42,1.06.38.46.67,1.01.87,1.66.2.64.3,1.37.3,2.16,0,.2,0,.39-.01.59,0,.19-.03.36-.06.49h-7.62c.08,1.2.45,2.14,1.13,2.84.67.7,1.55,1.05,2.63,1.05.54,0,1.04-.08,1.5-.24.46-.16.89-.37,1.31-.63l.67,1.24c-.5.31-1.04.58-1.65.8-.6.23-1.29.35-2.07.35ZM160.86,216.11h6.04c0-1.13-.24-2-.73-2.59-.49-.59-1.17-.89-2.05-.89-.4,0-.79.08-1.15.23-.36.15-.69.38-.99.68s-.54.66-.73,1.09c-.19.43-.32.92-.38,1.47Z"/>
    <path d="M171.36,222.6v-11.18h1.58l.16,1.61h.07c.54-.54,1.11-.98,1.71-1.34.6-.36,1.29-.54,2.08-.54,1.19,0,2.06.37,2.61,1.1.55.74.82,1.82.82,3.27v7.08h-1.9v-6.83c0-1.06-.17-1.82-.51-2.29s-.88-.7-1.62-.7c-.59,0-1.11.15-1.56.44-.45.29-.96.72-1.53,1.29v8.1h-1.9Z"/>
    <path d="M187.61,222.87c-.6,0-1.11-.09-1.52-.28s-.74-.44-1-.76c-.26-.32-.44-.71-.55-1.17s-.16-.97-.16-1.52v-6.19h-1.67v-1.43l1.76-.11.23-3.13h1.6v3.13h3.04v1.54h-3.04v6.21c0,.69.13,1.22.38,1.6.26.38.71.56,1.36.56.2,0,.42-.03.65-.09.23-.06.44-.13.63-.21l.37,1.43c-.31.11-.65.2-1.01.29s-.72.13-1.08.13Z"/>
    <path d="M200.96,222.87c-1.07,0-2.06-.2-2.97-.6-.91-.4-1.7-.94-2.37-1.63l1.16-1.33c.54.57,1.18,1.02,1.92,1.37.74.35,1.5.52,2.29.52,1.01,0,1.79-.23,2.34-.68.56-.45.84-1.05.84-1.78,0-.38-.07-.71-.2-.98-.13-.27-.31-.5-.53-.69-.22-.19-.49-.36-.8-.52s-.64-.31-1-.48l-2.18-.94c-.36-.15-.72-.34-1.09-.55-.37-.21-.7-.47-1-.78s-.53-.67-.72-1.09-.28-.91-.28-1.46.12-1.1.36-1.59c.24-.49.57-.92,1-1.28s.93-.64,1.51-.84c.58-.2,1.22-.3,1.92-.3.91,0,1.76.17,2.53.52s1.43.79,1.97,1.35l-1.04,1.24c-.46-.44-.98-.79-1.54-1.05-.57-.25-1.2-.38-1.92-.38-.85,0-1.54.2-2.05.59-.52.39-.78.93-.78,1.62,0,.37.07.68.22.93.15.25.34.48.59.67.25.19.52.36.81.51s.6.28.91.4l2.16.92c.43.18.84.39,1.23.63.39.24.72.51,1,.83.28.31.5.68.66,1.1.16.42.24.91.24,1.46,0,.6-.12,1.16-.36,1.68-.24.52-.58.98-1.03,1.37-.45.39-.99.7-1.63.92-.63.22-1.35.33-2.16.33Z"/>
    <path d="M208.95,222.6v-16.38h1.9v4.46l-.07,2.3c.54-.51,1.11-.94,1.7-1.3.59-.36,1.28-.54,2.07-.54,1.19,0,2.06.37,2.61,1.1.55.74.82,1.82.82,3.27v7.08h-1.9v-6.83c0-1.06-.17-1.82-.51-2.29s-.88-.7-1.62-.7c-.59,0-1.11.15-1.56.44-.45.29-.96.72-1.53,1.29v8.1h-1.9Z"/>
    <path d="M224.18,222.87c-.94,0-1.73-.28-2.36-.83s-.94-1.33-.94-2.35c0-1.23.55-2.17,1.65-2.82,1.1-.65,2.86-1.11,5.27-1.37,0-.35-.04-.7-.1-1.04-.07-.34-.19-.64-.36-.9-.17-.26-.41-.47-.71-.63s-.68-.24-1.15-.24c-.65,0-1.26.12-1.83.37-.57.25-1.08.52-1.53.83l-.74-1.31c.53-.34,1.17-.66,1.93-.98s1.59-.47,2.51-.47c1.38,0,2.38.42,3,1.25s.93,1.95.93,3.35v6.85h-1.58l-.16-1.33h-.07c-.54.45-1.12.82-1.74,1.14-.62.31-1.28.47-2,.47ZM224.74,221.35c.54,0,1.05-.13,1.53-.38.48-.25.99-.62,1.53-1.12v-3.1c-.94.12-1.74.27-2.38.44-.64.17-1.16.37-1.56.6-.4.23-.68.49-.86.79s-.27.62-.27.98c0,.64.19,1.1.58,1.38.39.28.86.41,1.42.41Z"/>
    <path d="M233.28,227.31v-15.89h1.58l.16,1.29h.07c.51-.43,1.07-.8,1.68-1.1s1.25-.46,1.92-.46c.73,0,1.37.13,1.93.4.56.27,1.02.65,1.39,1.15.37.5.65,1.1.85,1.79.19.7.29,1.48.29,2.36,0,.95-.13,1.8-.39,2.54-.26.74-.62,1.38-1.07,1.9-.45.52-.97.92-1.56,1.18-.59.27-1.21.4-1.86.4-.53,0-1.05-.12-1.57-.35-.52-.23-1.04-.54-1.57-.94l.05,1.96v3.77h-1.9ZM237.95,221.29c.46,0,.89-.1,1.29-.31.4-.21.74-.5,1.02-.87.29-.38.51-.84.67-1.39.16-.55.24-1.17.24-1.86,0-.61-.05-1.17-.16-1.68s-.28-.94-.52-1.3-.55-.64-.93-.84c-.38-.2-.83-.3-1.36-.3-.48,0-.96.13-1.45.39-.49.26-1.01.64-1.57,1.13v5.86c.51.43,1.01.73,1.49.91.48.18.91.26,1.28.26Z"/>
    <path d="M250.74,222.87c-.76,0-1.47-.13-2.12-.4-.66-.27-1.23-.65-1.72-1.15-.49-.5-.87-1.11-1.15-1.83-.28-.72-.42-1.54-.42-2.46s.14-1.74.43-2.47c.29-.73.67-1.35,1.14-1.85.47-.51,1.01-.89,1.61-1.16.6-.27,1.23-.4,1.88-.4.71,0,1.35.12,1.92.37.56.25,1.04.6,1.42,1.06.38.46.67,1.01.87,1.66.2.64.3,1.37.3,2.16,0,.2,0,.39-.01.59,0,.19-.03.36-.06.49h-7.62c.08,1.2.45,2.14,1.13,2.84.67.7,1.55,1.05,2.63,1.05.54,0,1.04-.08,1.5-.24.46-.16.89-.37,1.31-.63l.67,1.24c-.5.31-1.04.58-1.65.8-.6.23-1.29.35-2.07.35ZM247.19,216.11h6.04c0-1.13-.24-2-.73-2.59-.49-.59-1.17-.89-2.05-.89-.4,0-.79.08-1.15.23-.36.15-.69.38-.99.68s-.54.66-.73,1.09c-.19.43-.32.92-.38,1.47Z"/>
    <path d="M268.5,222.87c-1.01,0-1.93-.18-2.77-.53s-1.57-.86-2.17-1.53-1.08-1.49-1.42-2.46c-.34-.97-.51-2.07-.51-3.3s.17-2.3.52-3.27c.35-.97.83-1.79,1.45-2.46.62-.67,1.36-1.19,2.22-1.55s1.79-.54,2.8-.54c.53,0,1.01.05,1.45.16s.84.25,1.21.43c.36.18.69.38.97.6.29.22.54.45.75.68l-1.07,1.24c-.39-.4-.84-.74-1.35-1.01-.51-.28-1.15-.41-1.93-.41s-1.47.14-2.09.42c-.62.28-1.15.69-1.58,1.22-.43.53-.77,1.17-1.01,1.92-.24.75-.36,1.59-.36,2.53s.11,1.81.34,2.56.55,1.41.98,1.94c.42.54.95.95,1.58,1.24s1.35.44,2.17.44c.54,0,1.06-.08,1.54-.24.49-.16.89-.38,1.2-.66v-3.93h-3.23v-1.59h4.99v6.35c-.5.51-1.15.92-1.95,1.25-.8.33-1.72.5-2.74.5Z"/>
    <path d="M276.65,222.6v-11.18h1.58l.16,2.02h.07c.39-.71.86-1.26,1.41-1.68.55-.41,1.15-.62,1.8-.62.45,0,.85.08,1.21.23l-.37,1.66c-.19-.06-.36-.11-.51-.14-.15-.03-.35-.05-.58-.05-.48,0-.98.19-1.5.58-.52.38-.97,1.05-1.36,2v7.18h-1.9Z"/>
    <path d="M288.87,222.87c-.7,0-1.36-.13-1.98-.39s-1.18-.64-1.66-1.14c-.48-.5-.86-1.11-1.15-1.84-.29-.73-.43-1.55-.43-2.47s.14-1.77.43-2.5c.29-.73.67-1.35,1.15-1.85.48-.51,1.03-.89,1.66-1.15.63-.26,1.29-.39,1.98-.39s1.36.13,1.99.39c.63.26,1.18.64,1.66,1.15.48.51.86,1.12,1.15,1.85s.43,1.56.43,2.5-.14,1.75-.43,2.47c-.29.73-.67,1.34-1.15,1.84-.48.5-1.03.88-1.66,1.14s-1.29.39-1.99.39ZM288.87,221.31c.48,0,.92-.1,1.32-.31.4-.21.75-.5,1.03-.87.29-.38.51-.82.66-1.35.16-.52.23-1.1.23-1.75s-.08-1.23-.23-1.76c-.15-.53-.38-.99-.66-1.37-.29-.38-.63-.68-1.03-.88-.4-.21-.84-.31-1.32-.31s-.92.1-1.32.31-.75.5-1.03.88c-.29.38-.51.84-.66,1.37-.16.53-.23,1.12-.23,1.76s.08,1.23.23,1.75c.15.52.38.97.66,1.35.29.38.63.67,1.03.87s.84.31,1.32.31Z"/>
    <path d="M300.36,222.87c-1.21,0-2.09-.37-2.64-1.1s-.82-1.82-.82-3.27v-7.08h1.93v6.83c0,1.06.17,1.82.5,2.29s.87.7,1.61.7c.59,0,1.11-.15,1.56-.45.45-.3.94-.78,1.49-1.44v-7.93h1.9v11.18h-1.58l-.16-1.75h-.07c-.53.61-1.08,1.1-1.66,1.47-.58.37-1.27.55-2.05.55Z"/>
    <path d="M309.7,227.31v-15.89h1.58l.16,1.29h.07c.51-.43,1.07-.8,1.68-1.1s1.25-.46,1.92-.46c.73,0,1.37.13,1.93.4.56.27,1.02.65,1.39,1.15.37.5.65,1.1.85,1.79.19.7.29,1.48.29,2.36,0,.95-.13,1.8-.39,2.54-.26.74-.62,1.38-1.07,1.9-.45.52-.97.92-1.56,1.18-.59.27-1.21.4-1.86.4-.53,0-1.05-.12-1.57-.35-.52-.23-1.04-.54-1.57-.94l.05,1.96v3.77h-1.9ZM314.36,221.29c.46,0,.89-.1,1.29-.31.4-.21.74-.5,1.02-.87.29-.38.51-.84.67-1.39.16-.55.24-1.17.24-1.86,0-.61-.05-1.17-.16-1.68s-.28-.94-.52-1.3-.55-.64-.93-.84c-.38-.2-.83-.3-1.36-.3-.48,0-.96.13-1.45.39-.49.26-1.01.64-1.57,1.13v5.86c.51.43,1.01.73,1.49.91.48.18.91.26,1.28.26Z"/>
    <path d="M325.53,222.87c-.8,0-1.57-.15-2.3-.44s-1.36-.66-1.9-1.1l.95-1.27c.5.4,1,.72,1.52.97.52.25,1.12.37,1.8.37.74,0,1.3-.17,1.67-.51.37-.34.56-.75.56-1.24,0-.29-.08-.54-.23-.76-.15-.21-.35-.4-.59-.56s-.51-.3-.82-.43c-.31-.12-.62-.25-.93-.37-.4-.14-.8-.3-1.21-.47-.4-.18-.76-.39-1.08-.64s-.58-.55-.78-.88c-.2-.34-.3-.74-.3-1.22,0-.44.09-.86.27-1.25.18-.39.43-.73.77-1.01.33-.28.74-.51,1.22-.67.48-.16,1.02-.24,1.62-.24.71,0,1.37.12,1.96.37s1.11.54,1.54.9l-.91,1.2c-.39-.29-.79-.53-1.21-.71s-.88-.28-1.37-.28c-.71,0-1.23.16-1.57.48s-.5.7-.5,1.13c0,.26.07.49.21.68.14.19.33.36.56.51.23.15.5.28.8.39.3.12.62.23.94.36.4.15.81.31,1.22.48s.78.38,1.1.63.59.56.8.93c.21.37.31.81.31,1.33,0,.46-.09.89-.27,1.29-.18.4-.44.75-.79,1.06-.35.31-.78.55-1.3.72-.52.18-1.11.26-1.78.26Z"/>
    <path d="M340.51,222.87c-.6,0-1.11-.09-1.52-.28s-.74-.44-1-.76c-.26-.32-.44-.71-.55-1.17s-.16-.97-.16-1.52v-6.19h-1.67v-1.43l1.76-.11.23-3.13h1.6v3.13h3.04v1.54h-3.04v6.21c0,.69.13,1.22.38,1.6.26.38.71.56,1.36.56.2,0,.42-.03.65-.09.23-.06.44-.13.63-.21l.37,1.43c-.31.11-.65.2-1.01.29s-.72.13-1.08.13Z"/>
    <path d="M348.87,222.87c-.7,0-1.36-.13-1.98-.39s-1.18-.64-1.66-1.14c-.48-.5-.86-1.11-1.15-1.84-.29-.73-.43-1.55-.43-2.47s.14-1.77.43-2.5c.29-.73.67-1.35,1.15-1.85.48-.51,1.03-.89,1.66-1.15.63-.26,1.29-.39,1.98-.39s1.36.13,1.99.39c.63.26,1.18.64,1.66,1.15.48.51.86,1.12,1.15,1.85s.43,1.56.43,2.5-.14,1.75-.43,2.47c-.29.73-.67,1.34-1.15,1.84-.48.5-1.03.88-1.66,1.14s-1.29.39-1.99.39ZM348.87,221.31c.48,0,.92-.1,1.32-.31.4-.21.75-.5,1.03-.87.29-.38.51-.82.66-1.35.16-.52.23-1.1.23-1.75s-.08-1.23-.23-1.76c-.15-.53-.38-.99-.66-1.37-.29-.38-.63-.68-1.03-.88-.4-.21-.84-.31-1.32-.31s-.92.1-1.32.31-.75.5-1.03.88c-.29.38-.51.84-.66,1.37-.16.53-.23,1.12-.23,1.76s.08,1.23.23,1.75c.15.52.38.97.66,1.35.29.38.63.67,1.03.87s.84.31,1.32.31Z"/>
    <path d="M361.89,222.6v-15.09h2l5.5,9.48,1.65,3.13h.09c-.05-.77-.1-1.56-.15-2.38-.05-.82-.08-1.63-.08-2.43v-7.8h1.83v15.09h-2l-5.53-9.5-1.65-3.1h-.09c.06.77.12,1.54.17,2.33.05.79.08,1.58.08,2.38v7.89h-1.83Z"/>
    <path d="M380.03,222.87c-1.21,0-2.09-.37-2.64-1.1s-.82-1.82-.82-3.27v-7.08h1.93v6.83c0,1.06.17,1.82.5,2.29s.87.7,1.61.7c.59,0,1.11-.15,1.56-.45.45-.3.94-.78,1.49-1.44v-7.93h1.9v11.18h-1.58l-.16-1.75h-.07c-.53.61-1.08,1.1-1.66,1.47-.58.37-1.27.55-2.05.55Z"/>
    <path d="M391.38,222.87c-.73,0-1.25-.21-1.56-.64-.31-.43-.46-1.06-.46-1.89v-14.12h1.9v14.26c0,.31.05.52.16.64s.23.18.37.18h.17c.05,0,.13-.01.24-.05l.26,1.43c-.12.06-.27.11-.44.14-.17.03-.39.05-.65.05Z"/>
    <path d="M397.3,222.87c-.73,0-1.25-.21-1.56-.64-.31-.43-.46-1.06-.46-1.89v-14.12h1.9v14.26c0,.31.05.52.16.64s.23.18.37.18h.17c.05,0,.13-.01.24-.05l.26,1.43c-.12.06-.27.11-.44.14-.17.03-.39.05-.65.05Z"/>
  </g>
  <g>
    <path d="M289.07,186.1v-1.6c.78-.72,1.49-1.4,2.14-2.02.65-.63,1.2-1.22,1.67-1.77.47-.55.83-1.06,1.09-1.54.26-.47.39-.93.39-1.36,0-.59-.15-1.05-.46-1.36-.31-.31-.73-.47-1.27-.47-.45,0-.84.12-1.19.37-.34.25-.67.54-.98.86l-1.54-1.5c.6-.63,1.21-1.11,1.84-1.43.63-.32,1.37-.48,2.24-.48.6,0,1.15.09,1.64.28s.92.44,1.28.78c.36.34.63.74.83,1.21.19.47.29,1,.29,1.58,0,.51-.11,1.02-.33,1.55-.22.53-.51,1.05-.87,1.58s-.78,1.05-1.25,1.58c-.47.53-.95,1.04-1.45,1.55.31-.04.65-.07,1.03-.1.38-.03.71-.05,1.01-.05h2.46v2.36h-8.57Z"/>
    <path d="M301.37,186.33c-.49,0-.89-.17-1.22-.5-.33-.34-.49-.75-.49-1.24s.16-.93.49-1.26.73-.5,1.22-.5.89.17,1.22.5c.33.34.49.76.49,1.26s-.16.91-.49,1.24c-.33.33-.73.5-1.22.5Z"/>
    <path d="M315.93,186.38c-.96,0-1.84-.18-2.65-.53s-1.51-.86-2.1-1.53-1.06-1.49-1.39-2.46c-.33-.97-.5-2.07-.5-3.3s.17-2.3.51-3.27c.34-.97.81-1.79,1.42-2.46.6-.67,1.32-1.19,2.14-1.55s1.72-.54,2.69-.54,1.75.19,2.45.56c.7.38,1.28.81,1.73,1.3l-1.04,1.24c-.4-.43-.86-.77-1.37-1.04-.51-.26-1.09-.39-1.74-.39-.73,0-1.39.14-1.97.42-.59.28-1.09.69-1.51,1.22-.42.53-.74,1.17-.96,1.92-.22.75-.34,1.59-.34,2.53s.11,1.81.34,2.56.54,1.41.94,1.94c.4.54.89.95,1.47,1.24.58.29,1.23.44,1.96.44s1.39-.15,1.95-.45,1.08-.72,1.58-1.25l1.07,1.2c-.6.69-1.29,1.23-2.04,1.61s-1.63.58-2.62.58Z"/>
    <path d="M323.25,186.1v-11.18h1.58l.16,2.02h.07c.39-.71.86-1.26,1.41-1.68.55-.41,1.15-.62,1.8-.62.45,0,.85.08,1.21.23l-.37,1.66c-.19-.06-.36-.11-.51-.14-.15-.03-.35-.05-.58-.05-.48,0-.98.19-1.5.58-.52.38-.97,1.05-1.36,2v7.18h-1.9Z"/>
    <path d="M335.64,186.38c-.76,0-1.47-.13-2.12-.4-.66-.27-1.23-.65-1.72-1.15-.49-.5-.87-1.11-1.15-1.83-.28-.72-.42-1.54-.42-2.46s.14-1.74.43-2.47c.29-.73.67-1.35,1.14-1.85.47-.51,1.01-.89,1.61-1.16.6-.27,1.23-.4,1.88-.4.71,0,1.35.12,1.92.37.56.25,1.04.6,1.42,1.06.38.46.67,1.01.87,1.66.2.64.3,1.37.3,2.16,0,.2,0,.39-.01.59,0,.19-.03.36-.06.49h-7.62c.08,1.2.45,2.14,1.13,2.84.67.7,1.55,1.05,2.63,1.05.54,0,1.04-.08,1.5-.24.46-.16.89-.37,1.31-.63l.67,1.24c-.5.31-1.04.58-1.65.8-.6.23-1.29.35-2.07.35ZM332.09,179.62h6.04c0-1.13-.24-2-.73-2.59-.49-.59-1.17-.89-2.05-.89-.4,0-.79.08-1.15.23-.36.15-.69.38-.99.68s-.54.66-.73,1.09c-.19.43-.32.92-.38,1.47Z"/>
    <path d="M344.86,186.38c-.94,0-1.73-.28-2.36-.83s-.94-1.33-.94-2.35c0-1.23.55-2.17,1.65-2.82,1.1-.65,2.86-1.11,5.27-1.37,0-.35-.04-.7-.1-1.04-.07-.34-.19-.64-.36-.9-.17-.26-.41-.47-.71-.63s-.68-.24-1.15-.24c-.65,0-1.26.12-1.83.37-.57.25-1.08.52-1.53.83l-.74-1.31c.53-.34,1.17-.66,1.93-.98s1.59-.47,2.51-.47c1.38,0,2.38.42,3,1.25s.93,1.95.93,3.35v6.85h-1.58l-.16-1.33h-.07c-.54.45-1.12.82-1.74,1.14-.62.31-1.28.47-2,.47ZM345.42,184.86c.54,0,1.05-.13,1.53-.38.48-.25.99-.62,1.53-1.12v-3.1c-.94.12-1.74.27-2.38.44-.64.17-1.16.37-1.56.6-.4.23-.68.49-.86.79s-.27.62-.27.98c0,.64.19,1.1.58,1.38.39.28.86.41,1.42.41Z"/>
    <path d="M357.19,186.38c-.6,0-1.11-.09-1.52-.28s-.74-.44-1-.76c-.26-.32-.44-.71-.55-1.17s-.16-.97-.16-1.52v-6.19h-1.67v-1.43l1.76-.11.23-3.13h1.6v3.13h3.04v1.54h-3.04v6.21c0,.69.13,1.22.38,1.6.26.38.71.56,1.36.56.2,0,.42-.03.65-.09.23-.06.44-.13.63-.21l.37,1.43c-.31.11-.65.2-1.01.29s-.72.13-1.08.13Z"/>
    <path d="M365.74,186.38c-.76,0-1.47-.13-2.12-.4-.66-.27-1.23-.65-1.72-1.15-.49-.5-.87-1.11-1.15-1.83-.28-.72-.42-1.54-.42-2.46s.14-1.74.43-2.47c.29-.73.67-1.35,1.14-1.85.47-.51,1.01-.89,1.61-1.16.6-.27,1.23-.4,1.88-.4.71,0,1.35.12,1.92.37.56.25,1.04.6,1.42,1.06.38.46.67,1.01.87,1.66.2.64.3,1.37.3,2.16,0,.2,0,.39-.01.59,0,.19-.03.36-.06.49h-7.62c.08,1.2.45,2.14,1.13,2.84.67.7,1.55,1.05,2.63,1.05.54,0,1.04-.08,1.5-.24.46-.16.89-.37,1.31-.63l.67,1.24c-.5.31-1.04.58-1.65.8-.6.23-1.29.35-2.07.35ZM362.18,179.62h6.04c0-1.13-.24-2-.73-2.59-.49-.59-1.17-.89-2.05-.89-.4,0-.79.08-1.15.23-.36.15-.69.38-.99.68s-.54.66-.73,1.09c-.19.43-.32.92-.38,1.47Z"/>
    <path d="M377.51,186.1v-15.09h2l5.5,9.48,1.65,3.13h.09c-.05-.77-.1-1.56-.15-2.38-.05-.82-.08-1.63-.08-2.43v-7.8h1.83v15.09h-2l-5.53-9.5-1.65-3.1h-.09c.06.77.12,1.54.17,2.33.05.79.08,1.58.08,2.38v7.89h-1.83Z"/>
    <path d="M395.64,186.38c-1.21,0-2.09-.37-2.64-1.1s-.82-1.82-.82-3.27v-7.08h1.93v6.83c0,1.06.17,1.82.5,2.29s.87.7,1.61.7c.59,0,1.11-.15,1.56-.45.45-.3.94-.78,1.49-1.44v-7.93h1.9v11.18h-1.58l-.16-1.75h-.07c-.53.61-1.08,1.1-1.66,1.47-.58.37-1.27.55-2.05.55Z"/>
    <path d="M407,186.38c-.73,0-1.25-.21-1.56-.64-.31-.43-.46-1.06-.46-1.89v-14.12h1.9v14.26c0,.31.05.52.16.64s.23.18.37.18h.17c.05,0,.13-.01.24-.05l.26,1.43c-.12.06-.27.11-.44.14-.17.03-.39.05-.65.05Z"/>
    <path d="M412.92,186.38c-.73,0-1.25-.21-1.56-.64-.31-.43-.46-1.06-.46-1.89v-14.12h1.9v14.26c0,.31.05.52.16.64s.23.18.37.18h.17c.05,0,.13-.01.24-.05l.26,1.43c-.12.06-.27.11-.44.14-.17.03-.39.05-.65.05Z"/>
    <path d="M419.77,186.38c-.8,0-1.57-.15-2.3-.44s-1.36-.66-1.9-1.1l.95-1.27c.5.4,1,.72,1.52.97.52.25,1.12.37,1.8.37.74,0,1.3-.17,1.67-.51.37-.34.56-.75.56-1.24,0-.29-.08-.54-.23-.76-.15-.21-.35-.4-.59-.56s-.51-.3-.82-.43c-.31-.12-.62-.25-.93-.37-.4-.14-.8-.3-1.21-.47-.4-.18-.76-.39-1.08-.64s-.58-.55-.78-.88c-.2-.34-.3-.74-.3-1.22,0-.44.09-.86.27-1.25.18-.39.43-.73.77-1.01.33-.28.74-.51,1.22-.67.48-.16,1.02-.24,1.62-.24.71,0,1.37.12,1.96.37s1.11.54,1.54.9l-.91,1.2c-.39-.29-.79-.53-1.21-.71s-.88-.28-1.37-.28c-.71,0-1.23.16-1.57.48s-.5.7-.5,1.13c0,.26.07.49.21.68.14.19.33.36.56.51.23.15.5.28.8.39.3.12.62.23.94.36.4.15.81.31,1.22.48s.78.38,1.1.63.59.56.8.93c.21.37.31.81.31,1.33,0,.46-.09.89-.27,1.29-.18.4-.44.75-.79,1.06-.35.31-.78.55-1.3.72-.52.18-1.11.26-1.78.26Z"/>
    <path d="M434.74,186.38c-.6,0-1.11-.09-1.52-.28s-.74-.44-1-.76c-.26-.32-.44-.71-.55-1.17s-.16-.97-.16-1.52v-6.19h-1.67v-1.43l1.76-.11.23-3.13h1.6v3.13h3.04v1.54h-3.04v6.21c0,.69.13,1.22.38,1.6.26.38.71.56,1.36.56.2,0,.42-.03.65-.09.23-.06.44-.13.63-.21l.37,1.43c-.31.11-.65.2-1.01.29s-.72.13-1.08.13Z"/>
    <path d="M443.1,186.38c-.7,0-1.36-.13-1.98-.39s-1.18-.64-1.66-1.14c-.48-.5-.86-1.11-1.15-1.84-.29-.73-.43-1.55-.43-2.47s.14-1.77.43-2.5c.29-.73.67-1.35,1.15-1.85.48-.51,1.03-.89,1.66-1.15.63-.26,1.29-.39,1.98-.39s1.36.13,1.99.39c.63.26,1.18.64,1.66,1.15.48.51.86,1.12,1.15,1.85s.43,1.56.43,2.5-.14,1.75-.43,2.47c-.29.73-.67,1.34-1.15,1.84-.48.5-1.03.88-1.66,1.14s-1.29.39-1.99.39ZM443.1,184.81c.48,0,.92-.1,1.32-.31.4-.21.75-.5,1.03-.87.29-.38.51-.82.66-1.35.16-.52.23-1.1.23-1.75s-.08-1.23-.23-1.76c-.15-.53-.38-.99-.66-1.37-.29-.38-.63-.68-1.03-.88-.4-.21-.84-.31-1.32-.31s-.92.1-1.32.31-.75.5-1.03.88c-.29.38-.51.84-.66,1.37-.16.53-.23,1.12-.23,1.76s.08,1.23.23,1.75c.15.52.38.97.66,1.35.29.38.63.67,1.03.87s.84.31,1.32.31Z"/>
    <path d="M456.13,186.1v-15.09h8.78v1.61h-6.85v5.11h5.81v1.61h-5.81v6.76h-1.93Z"/>
    <path d="M471.48,186.38c-.7,0-1.36-.13-1.98-.39s-1.18-.64-1.66-1.14c-.48-.5-.86-1.11-1.15-1.84-.29-.73-.43-1.55-.43-2.47s.14-1.77.43-2.5c.29-.73.67-1.35,1.15-1.85.48-.51,1.03-.89,1.66-1.15.63-.26,1.29-.39,1.98-.39s1.36.13,1.99.39c.63.26,1.18.64,1.66,1.15.48.51.86,1.12,1.15,1.85s.43,1.56.43,2.5-.14,1.75-.43,2.47c-.29.73-.67,1.34-1.15,1.84-.48.5-1.03.88-1.66,1.14s-1.29.39-1.99.39ZM471.48,184.81c.48,0,.92-.1,1.32-.31.4-.21.75-.5,1.03-.87.29-.38.51-.82.66-1.35.16-.52.23-1.1.23-1.75s-.08-1.23-.23-1.76c-.15-.53-.38-.99-.66-1.37-.29-.38-.63-.68-1.03-.88-.4-.21-.84-.31-1.32-.31s-.92.1-1.32.31-.75.5-1.03.88c-.29.38-.51.84-.66,1.37-.16.53-.23,1.12-.23,1.76s.08,1.23.23,1.75c.15.52.38.97.66,1.35.29.38.63.67,1.03.87s.84.31,1.32.31Z"/>
    <path d="M481.69,186.38c-.73,0-1.25-.21-1.56-.64-.31-.43-.46-1.06-.46-1.89v-14.12h1.9v14.26c0,.31.05.52.16.64s.23.18.37.18h.17c.05,0,.13-.01.24-.05l.26,1.43c-.12.06-.27.11-.44.14-.17.03-.39.05-.65.05Z"/>
    <path d="M487.61,186.38c-.73,0-1.25-.21-1.56-.64-.31-.43-.46-1.06-.46-1.89v-14.12h1.9v14.26c0,.31.05.52.16.64s.23.18.37.18h.17c.05,0,.13-.01.24-.05l.26,1.43c-.12.06-.27.11-.44.14-.17.03-.39.05-.65.05Z"/>
    <path d="M495.9,186.38c-.7,0-1.36-.13-1.98-.39s-1.18-.64-1.66-1.14c-.48-.5-.86-1.11-1.15-1.84-.29-.73-.43-1.55-.43-2.47s.14-1.77.43-2.5c.29-.73.67-1.35,1.15-1.85.48-.51,1.03-.89,1.66-1.15.63-.26,1.29-.39,1.98-.39s1.36.13,1.99.39c.63.26,1.18.64,1.66,1.15.48.51.86,1.12,1.15,1.85s.43,1.56.43,2.5-.14,1.75-.43,2.47c-.29.73-.67,1.34-1.15,1.84-.48.5-1.03.88-1.66,1.14s-1.29.39-1.99.39ZM495.9,184.81c.48,0,.92-.1,1.32-.31.4-.21.75-.5,1.03-.87.29-.38.51-.82.66-1.35.16-.52.23-1.1.23-1.75s-.08-1.23-.23-1.76c-.15-.53-.38-.99-.66-1.37-.29-.38-.63-.68-1.03-.88-.4-.21-.84-.31-1.32-.31s-.92.1-1.32.31-.75.5-1.03.88c-.29.38-.51.84-.66,1.37-.16.53-.23,1.12-.23,1.76s.08,1.23.23,1.75c.15.52.38.97.66,1.35.29.38.63.67,1.03.87s.84.31,1.32.31Z"/>
    <path d="M505.79,186.1l-3.13-11.18h1.95l1.67,6.46c.12.54.24,1.06.35,1.56.11.51.22,1.02.33,1.54h.09c.12-.52.25-1.04.37-1.55s.25-1.03.39-1.55l1.74-6.46h1.86l1.76,6.46c.14.54.28,1.06.41,1.56.13.51.26,1.02.38,1.54h.09c.12-.52.24-1.03.35-1.54.11-.51.22-1.03.35-1.56l1.65-6.46h1.81l-3.02,11.18h-2.32l-1.62-6c-.14-.54-.27-1.07-.38-1.59s-.24-1.07-.38-1.63h-.09c-.12.57-.25,1.12-.37,1.64-.12.53-.26,1.06-.42,1.6l-1.58,5.98h-2.23Z"/>
    <path d="M525.51,186.1v-15.09h4.34c.85,0,1.63.08,2.33.23.7.15,1.3.4,1.8.75.5.34.88.8,1.16,1.37.28.57.42,1.27.42,2.09s-.14,1.49-.41,2.07c-.27.58-.65,1.07-1.15,1.45-.5.38-1.09.67-1.78.86-.69.19-1.45.29-2.29.29h-2.51v5.98h-1.93ZM527.43,178.56h2.28c1.33,0,2.32-.25,2.96-.75.64-.5.96-1.28.96-2.36s-.34-1.84-1.01-2.26c-.67-.42-1.68-.63-3.01-.63h-2.18v6Z"/>
    <path d="M542.29,186.38c-.7,0-1.36-.13-1.98-.39s-1.18-.64-1.66-1.14c-.48-.5-.86-1.11-1.15-1.84-.29-.73-.43-1.55-.43-2.47s.14-1.77.43-2.5c.29-.73.67-1.35,1.15-1.85.48-.51,1.03-.89,1.66-1.15.63-.26,1.29-.39,1.98-.39s1.36.13,1.99.39c.63.26,1.18.64,1.66,1.15.48.51.86,1.12,1.15,1.85s.43,1.56.43,2.5-.14,1.75-.43,2.47c-.29.73-.67,1.34-1.15,1.84-.48.5-1.03.88-1.66,1.14s-1.29.39-1.99.39ZM542.29,184.81c.48,0,.92-.1,1.32-.31.4-.21.75-.5,1.03-.87.29-.38.51-.82.66-1.35.16-.52.23-1.1.23-1.75s-.08-1.23-.23-1.76c-.15-.53-.38-.99-.66-1.37-.29-.38-.63-.68-1.03-.88-.4-.21-.84-.31-1.32-.31s-.92.1-1.32.31-.75.5-1.03.88c-.29.38-.51.84-.66,1.37-.16.53-.23,1.12-.23,1.76s.08,1.23.23,1.75c.15.52.38.97.66,1.35.29.38.63.67,1.03.87s.84.31,1.32.31Z"/>
    <path d="M551.47,172.62c-.37,0-.68-.12-.94-.35-.25-.23-.38-.52-.38-.87s.13-.66.38-.88c.26-.22.57-.33.94-.33s.69.11.94.33c.26.22.38.52.38.88s-.13.64-.38.87c-.25.23-.57.35-.94.35ZM550.49,186.1v-11.18h1.9v11.18h-1.9Z"/>
    <path d="M556.2,186.1v-11.18h1.58l.16,1.61h.07c.54-.54,1.11-.98,1.71-1.34.6-.36,1.29-.54,2.08-.54,1.19,0,2.06.37,2.61,1.1.55.74.82,1.82.82,3.27v7.08h-1.9v-6.83c0-1.06-.17-1.82-.51-2.29s-.88-.7-1.62-.7c-.59,0-1.11.15-1.56.44-.45.29-.96.72-1.53,1.29v8.1h-1.9Z"/>
    <path d="M572.46,186.38c-.6,0-1.11-.09-1.52-.28s-.74-.44-1-.76c-.26-.32-.44-.71-.55-1.17s-.16-.97-.16-1.52v-6.19h-1.67v-1.43l1.76-.11.23-3.13h1.6v3.13h3.04v1.54h-3.04v6.21c0,.69.13,1.22.38,1.6.26.38.71.56,1.36.56.2,0,.42-.03.65-.09.23-.06.44-.13.63-.21l.37,1.43c-.31.11-.65.2-1.01.29s-.72.13-1.08.13Z"/>
    <path d="M579.47,186.38c-.8,0-1.57-.15-2.3-.44s-1.36-.66-1.9-1.1l.95-1.27c.5.4,1,.72,1.52.97.52.25,1.12.37,1.8.37.74,0,1.3-.17,1.67-.51.37-.34.56-.75.56-1.24,0-.29-.08-.54-.23-.76-.15-.21-.35-.4-.59-.56s-.51-.3-.82-.43c-.31-.12-.62-.25-.93-.37-.4-.14-.8-.3-1.21-.47-.4-.18-.76-.39-1.08-.64s-.58-.55-.78-.88c-.2-.34-.3-.74-.3-1.22,0-.44.09-.86.27-1.25.18-.39.43-.73.77-1.01.33-.28.74-.51,1.22-.67.48-.16,1.02-.24,1.62-.24.71,0,1.37.12,1.96.37s1.11.54,1.54.9l-.91,1.2c-.39-.29-.79-.53-1.21-.71s-.88-.28-1.37-.28c-.71,0-1.23.16-1.57.48s-.5.7-.5,1.13c0,.26.07.49.21.68.14.19.33.36.56.51.23.15.5.28.8.39.3.12.62.23.94.36.4.15.81.31,1.22.48s.78.38,1.1.63.59.56.8.93c.21.37.31.81.31,1.33,0,.46-.09.89-.27,1.29-.18.4-.44.75-.79,1.06-.35.31-.78.55-1.3.72-.52.18-1.11.26-1.78.26Z"/>
  </g>
  <g>
    <path d="M471.72,149.79c-1,0-1.84-.16-2.53-.46-.69-.31-1.26-.73-1.71-1.25l1.3-1.77c.37.35.78.65,1.22.87s.92.34,1.45.34c.6,0,1.08-.12,1.44-.37.36-.25.54-.6.54-1.05,0-.27-.05-.51-.14-.72-.1-.22-.27-.4-.51-.54s-.58-.26-1-.34-.97-.12-1.63-.12v-1.98c.55,0,1.01-.04,1.37-.11.36-.08.66-.19.88-.33s.38-.32.48-.51.14-.42.14-.66c0-.42-.13-.74-.38-.98-.26-.23-.63-.35-1.11-.35-.43,0-.83.1-1.18.29-.35.19-.72.45-1.1.78l-1.42-1.71c.56-.48,1.15-.86,1.77-1.13.62-.27,1.31-.41,2.06-.41.63,0,1.2.07,1.72.22s.96.36,1.32.65.65.63.85,1.04c.21.41.31.87.31,1.41,0,.63-.18,1.17-.53,1.61-.35.44-.85.79-1.51,1.07v.08c.7.2,1.28.55,1.74,1.04s.68,1.12.68,1.91c0,.56-.12,1.05-.36,1.49-.24.44-.57.8-.98,1.1s-.89.53-1.44.68-1.13.24-1.75.24Z"/>
    <path d="M480.06,149.79c-.49,0-.89-.17-1.22-.5-.33-.34-.49-.75-.49-1.24s.16-.93.49-1.26.73-.5,1.22-.5.89.17,1.22.5c.33.34.49.76.49,1.26s-.16.91-.49,1.24c-.33.33-.73.5-1.22.5Z"/>
    <path d="M492.02,149.56v-13.48h-4.6v-1.61h11.15v1.61h-4.6v13.48h-1.95Z"/>
    <path d="M500.06,149.56v-11.18h1.58l.16,2.02h.07c.39-.71.86-1.26,1.41-1.68.55-.41,1.15-.62,1.8-.62.45,0,.85.08,1.21.23l-.37,1.66c-.19-.06-.36-.11-.51-.14-.15-.03-.35-.05-.58-.05-.48,0-.98.19-1.5.58-.52.38-.97,1.05-1.36,2v7.18h-1.9Z"/>
    <path d="M510.16,149.84c-.94,0-1.73-.28-2.36-.83s-.94-1.33-.94-2.35c0-1.23.55-2.17,1.65-2.82,1.1-.65,2.86-1.11,5.27-1.37,0-.35-.04-.7-.1-1.04-.07-.34-.19-.64-.36-.9-.17-.26-.41-.47-.71-.63s-.68-.24-1.15-.24c-.65,0-1.26.12-1.83.37-.57.25-1.08.52-1.53.83l-.74-1.31c.53-.34,1.17-.66,1.93-.98s1.59-.47,2.51-.47c1.38,0,2.38.42,3,1.25s.93,1.95.93,3.35v6.85h-1.58l-.16-1.33h-.07c-.54.45-1.12.82-1.74,1.14-.62.31-1.28.47-2,.47ZM510.71,148.32c.54,0,1.05-.13,1.53-.38.48-.25.99-.62,1.53-1.12v-3.1c-.94.12-1.74.27-2.38.44-.64.17-1.16.37-1.56.6-.4.23-.68.49-.86.79s-.27.62-.27.98c0,.64.19,1.1.58,1.38.39.28.86.41,1.42.41Z"/>
    <path d="M523.72,149.84c-.74,0-1.44-.13-2.09-.39s-1.21-.64-1.68-1.14c-.47-.5-.84-1.11-1.11-1.84-.27-.73-.41-1.55-.41-2.47s.15-1.77.44-2.5.69-1.35,1.18-1.85,1.07-.89,1.73-1.15c.66-.26,1.35-.39,2.08-.39s1.38.13,1.9.39c.53.26.99.57,1.39.92l-.98,1.24c-.33-.29-.67-.53-1.03-.71-.36-.18-.77-.28-1.22-.28-.51,0-.98.1-1.42.31s-.8.5-1.11.88c-.31.38-.55.84-.73,1.37-.18.53-.27,1.12-.27,1.76s.08,1.23.25,1.75c.17.52.41.97.71,1.35.3.38.67.67,1.1.87.43.21.91.31,1.42.31s1.01-.11,1.45-.33c.44-.22.84-.49,1.2-.79l.84,1.26c-.51.45-1.08.79-1.7,1.05s-1.27.38-1.95.38Z"/>
    <path d="M533.93,149.84c-.76,0-1.47-.13-2.12-.4-.66-.27-1.23-.65-1.72-1.15-.49-.5-.87-1.11-1.15-1.83-.28-.72-.42-1.54-.42-2.46s.14-1.74.43-2.47c.29-.73.67-1.35,1.14-1.85.47-.51,1.01-.89,1.61-1.16.6-.27,1.23-.4,1.88-.4.71,0,1.35.12,1.92.37.56.25,1.04.6,1.42,1.06.38.46.67,1.01.87,1.66.2.64.3,1.37.3,2.16,0,.2,0,.39-.01.59,0,.19-.03.36-.06.49h-7.62c.08,1.2.45,2.14,1.13,2.84.67.7,1.55,1.05,2.63,1.05.54,0,1.04-.08,1.5-.24.46-.16.89-.37,1.31-.63l.67,1.24c-.5.31-1.04.58-1.65.8-.6.23-1.29.35-2.07.35ZM530.38,143.07h6.04c0-1.13-.24-2-.73-2.59-.49-.59-1.17-.89-2.05-.89-.4,0-.79.08-1.15.23-.36.15-.69.38-.99.68s-.54.66-.73,1.09c-.19.43-.32.92-.38,1.47Z"/>
    <path d="M545.71,149.56v-15.09h4.34c.85,0,1.63.08,2.33.23.7.15,1.3.4,1.8.75.5.34.88.8,1.16,1.37.28.57.42,1.27.42,2.09s-.14,1.49-.41,2.07c-.27.58-.65,1.07-1.15,1.45-.5.38-1.09.67-1.78.86-.69.19-1.45.29-2.29.29h-2.51v5.98h-1.93ZM547.63,142.02h2.28c1.33,0,2.32-.25,2.96-.75.64-.5.96-1.28.96-2.36s-.34-1.84-1.01-2.26c-.67-.42-1.68-.63-3.01-.63h-2.18v6Z"/>
    <path d="M560.26,149.84c-.94,0-1.73-.28-2.36-.83s-.94-1.33-.94-2.35c0-1.23.55-2.17,1.65-2.82,1.1-.65,2.86-1.11,5.27-1.37,0-.35-.04-.7-.1-1.04-.07-.34-.19-.64-.36-.9-.17-.26-.41-.47-.71-.63s-.68-.24-1.15-.24c-.65,0-1.26.12-1.83.37-.57.25-1.08.52-1.53.83l-.74-1.31c.53-.34,1.17-.66,1.93-.98s1.59-.47,2.51-.47c1.38,0,2.38.42,3,1.25s.93,1.95.93,3.35v6.85h-1.58l-.16-1.33h-.07c-.54.45-1.12.82-1.74,1.14-.62.31-1.28.47-2,.47ZM560.82,148.32c.54,0,1.05-.13,1.53-.38.48-.25.99-.62,1.53-1.12v-3.1c-.94.12-1.74.27-2.38.44-.64.17-1.16.37-1.56.6-.4.23-.68.49-.86.79s-.27.62-.27.98c0,.64.19,1.1.58,1.38.39.28.86.41,1.42.41Z"/>
    <path d="M572.59,149.84c-.6,0-1.11-.09-1.52-.28s-.74-.44-1-.76c-.26-.32-.44-.71-.55-1.17s-.16-.97-.16-1.52v-6.19h-1.67v-1.43l1.76-.11.23-3.13h1.6v3.13h3.04v1.54h-3.04v6.21c0,.69.13,1.22.38,1.6.26.38.71.56,1.36.56.2,0,.42-.03.65-.09.23-.06.44-.13.63-.21l.37,1.43c-.31.11-.65.2-1.01.29s-.72.13-1.08.13Z"/>
    <path d="M576.89,149.56v-16.38h1.9v4.46l-.07,2.3c.54-.51,1.11-.94,1.7-1.3.59-.36,1.28-.54,2.07-.54,1.19,0,2.06.37,2.61,1.1.55.74.82,1.82.82,3.27v7.08h-1.9v-6.83c0-1.06-.17-1.82-.51-2.29s-.88-.7-1.62-.7c-.59,0-1.11.15-1.56.44-.45.29-.96.72-1.53,1.29v8.1h-1.9Z"/>
  </g>
  <polyline class="st2" points="76.44 99.19 76.44 215.48 97.52 215.48"/>
  <polyline class="st2" points="256.77 99.19 256.77 179.25 277.85 179.25"/>
  <polyline class="st2" points="436.52 99.19 436.52 143.07 457.6 143.07"/>
  <circle class="st4" cx="97.52" cy="215.48" r="3.63"/>
  <circle class="st4" cx="277.85" cy="179.63" r="3.63"/>
  <circle class="st4" cx="457.6" cy="143.07" r="3.63"/>
</svg>