<?xml version="1.0" encoding="UTF-8"?>
<svg id="Layer_1" xmlns="http://www.w3.org/2000/svg" width="111.35" height="1324.06" xmlns:xlink="http://www.w3.org/1999/xlink" version="1.1" viewBox="0 0 111.35 1324.06">
  <!-- Generator: Adobe Illustrator 29.8.2, SVG Export Plug-In . SVG Version: 2.1.1 Build 3)  -->
  <defs>
    <style>
      .st0, .st1, .st2, .st3, .st4, .st5, .st6, .st7 {
        fill: none;
      }

      .st1 {
        stroke: #4b4b4b;
        stroke-width: 2.5px;
      }

      .st1, .st2, .st3, .st4, .st5, .st8, .st6 {
        stroke-miterlimit: 10;
      }

      .st2, .st3 {
        stroke: #303030;
      }

      .st3 {
        stroke-width: 2.44px;
      }

      .st4 {
        stroke: #e84934;
        stroke-width: 16px;
      }

      .st9 {
        fill: #f05c57;
      }

      .st5 {
        stroke: #316cff;
      }

      .st8 {
        fill: #fff;
        stroke-width: 1.01px;
      }

      .st8, .st7 {
        stroke: #d3d3d3;
      }

      .st6 {
        stroke: #ff7171;
        stroke-linecap: round;
        stroke-width: 2.8px;
      }

      .st10 {
        fill: #1d1d1d;
      }

      .st11 {
        isolation: isolate;
      }

      .st7 {
        stroke-linejoin: round;
        stroke-width: 2.1px;
      }

      .st12 {
        fill: #00b1ba;
      }

      .st13 {
        fill: #ebe9e8;
      }

      .st14 {
        fill: #f59371;
      }

      .st15 {
        fill: #d3d3d3;
      }

      .st16 {
        clip-path: url(#clippath);
      }

      .st17 {
        fill: #999;
      }
    </style>
    <clipPath id="clippath">
      <path class="st0" d="M37.65,647.41l.35,48.74,41.25-1.4-.35-48.74-41.25,1.4ZM63.7,657.24h-12.44v-4.41c0-.83.67-1.5,1.5-1.5.45,0,.88-.2,1.16-.55l1.03-1.25c.29-.35.71-.55,1.16-.55h2.72c.45,0,.88.21,1.17.56l.99,1.23c.29.35.72.56,1.17.56h.03c.83,0,1.5.67,1.5,1.5v4.41h.01Z"/>
    </clipPath>
  </defs>
  <g>
    <rect class="st4" x="7.86" y="8.79" width="95.76" height="1307.5"/>
    <rect class="st10" x="7.86" y="8.79" width="95.76" height="1307.5"/>
    <rect class="st5" x="7.86" y="8.79" width="95.76" height="1307.5"/>
  </g>
  <path class="st2" d="M45.98,251.26h48.79c3.13,0,5.66,2.53,5.66,5.66v217.1c0,3.13-2.53,5.66-5.66,5.66H17.08c-3.13,0-5.66-2.53-5.66-5.66v-217.1c0-3.13,2.53-5.66,5.66-5.66h6.14"/>
  <path class="st2" d="M45.98,489.71h48.79c3.13,0,5.66,2.53,5.66,5.66v805.23c0,3.13-2.53,5.66-5.66,5.66H17.08c-3.13,0-5.66-2.53-5.66-5.66V495.37c0-3.13,2.53-5.66,5.66-5.66h6.14"/>
  <path class="st2" d="M45.98,18.82h48.79c3.13,0,5.66,2.53,5.66,5.66v211.09c0,3.13-2.53,5.66-5.66,5.66H17.08c-3.13,0-5.66-2.53-5.66-5.66V24.48c0-3.13,2.53-5.66,5.66-5.66h6.14"/>
  <g>
    <rect class="st1" x="18.1" y="169.37" width="74.63" height="62.1" rx="14.01" ry="14.01"/>
    <g>
      <circle class="st15" cx="57.02" cy="199.4" r="3.96"/>
      <path class="st15" d="M70.64,200.16c-.21,0-.4-.08-.55-.23-3.48-3.48-8.12-5.4-13.06-5.4s-9.58,1.92-13.06,5.4c-.14.15-.34.23-.55.23s-.4-.08-.54-.23-.23-.34-.23-.54.08-.4.23-.54c3.78-3.78,8.81-5.87,14.15-5.87s10.37,2.08,14.15,5.87c.14.15.23.34.23.54s-.08.4-.23.54c-.15.15-.34.23-.54.23Z"/>
      <path class="st15" d="M57.03,205.92c-5.35,0-10.38-2.08-14.15-5.85-.14-.15-.23-.34-.23-.54s.08-.4.23-.54c.14-.15.34-.23.54-.23s.4.08.55.23c3.48,3.48,8.12,5.4,13.06,5.4s9.58-1.92,13.06-5.4c.14-.15.34-.23.55-.23s.4.08.54.23.23.34.23.54-.08.4-.23.54c-3.77,3.77-8.8,5.85-14.15,5.85Z"/>
      <path class="st15" d="M57.02,189.75c-.42,0-.77-.35-.77-.77v-6.07c0-.42.35-.77.77-.77s.77.35.77.77v6.07c0,.42-.35.77-.77.77Z"/>
      <path class="st15" d="M57.02,216.78c-.42,0-.77-.35-.77-.77v-6.07c0-.42.35-.77.77-.77s.77.35.77.77v6.07c0,.42-.35.77-.77.77Z"/>
      <path class="st15" d="M66,191.25c-.21,0-.4-.08-.54-.23s-.23-.34-.23-.54.08-.4.23-.54l3.83-3.83c.14-.15.34-.23.55-.23s.4.08.54.23.23.34.23.54-.08.4-.23.54l-3.83,3.83c-.14.15-.34.23-.54.23h-.01Z"/>
      <path class="st15" d="M44.21,213.04c-.21,0-.4-.08-.54-.23-.3-.3-.3-.79,0-1.09l3.83-3.83c.14-.14.34-.23.54-.23s.4.08.54.23.23.34.23.55-.08.4-.23.54l-3.83,3.83c-.14.14-.34.23-.54.23Z"/>
      <path class="st15" d="M48.04,191.25c-.21,0-.4-.08-.54-.23l-3.83-3.83c-.14-.15-.23-.34-.23-.54s.08-.4.23-.54c.14-.15.34-.23.54-.23s.4.08.54.23l3.83,3.83c.14.15.23.34.23.54s-.08.4-.23.54-.34.23-.54.23Z"/>
      <path class="st15" d="M69.83,213.04c-.21,0-.4-.08-.55-.23l-3.83-3.83c-.3-.3-.3-.79,0-1.09.14-.14.34-.23.54-.23s.4.08.54.23l3.83,3.83c.3.3.3.79,0,1.09-.14.14-.34.23-.54.23h.01Z"/>
    </g>
  </g>
  <g>
    <rect class="st1" x="19.09" y="30.15" width="74.63" height="62.1" rx="14.01" ry="14.01"/>
    <g>
      <path class="st15" d="M71.32,57.87c-.21,0-.4-.08-.55-.23-3.49-3.49-8.13-5.42-13.06-5.42s-9.57,1.92-13.06,5.42c-.15.15-.34.23-.54.23s-.4-.08-.54-.23c-.3-.3-.3-.79,0-1.09,3.78-3.78,8.81-5.87,14.15-5.87s10.37,2.08,14.15,5.87c.14.15.23.34.23.54s-.08.4-.23.54-.34.23-.54.23h-.01,0Z"/>
      <path class="st15" d="M57.71,65.56c-2.61,0-4.73-2.12-4.73-4.73s2.12-4.73,4.73-4.73,4.73,2.12,4.73,4.73-2.12,4.73-4.73,4.73Z"/>
    </g>
  </g>
  <g>
    <rect class="st1" x="19.09" y="99.76" width="74.63" height="62.1" rx="14.01" ry="14.01"/>
    <g>
      <path class="st15" d="M56.19,132.57c-5.35,0-10.38-2.08-14.15-5.85-.14-.15-.23-.34-.23-.54s.08-.4.23-.54c.14-.15.34-.23.54-.23s.4.08.55.23c3.48,3.48,8.12,5.4,13.06,5.4s9.58-1.92,13.06-5.4c.14-.15.34-.23.55-.23s.4.08.54.23.23.34.23.54-.08.4-.23.54c-3.77,3.77-8.8,5.85-14.15,5.85Z"/>
      <path class="st15" d="M56.19,139.11c-.42,0-.77-.35-.77-.77v-6.07c0-.42.35-.77.77-.77s.77.35.77.77v6.07c0,.42-.35.77-.77.77Z"/>
      <path class="st15" d="M47.93,137.48c-.4-.13-.63-.56-.5-.97l1.85-5.78c.13-.4.56-.63.97-.5s.63.56.5.97l-1.85,5.78c-.13.4-.56.63-.97.5Z"/>
      <path class="st15" d="M64.67,137.48c.4-.13.63-.56.5-.97l-1.85-5.78c-.13-.4-.56-.63-.97-.5s-.63.56-.5.97l1.85,5.78c.13.4.56.63.97.5Z"/>
      <path class="st15" d="M40.72,133.26c-.21,0-.4-.08-.54-.23-.3-.3-.3-.79,0-1.09l3.83-3.83c.14-.14.34-.23.54-.23s.4.08.54.23c.14.15.23.34.23.55s-.08.4-.23.54l-3.83,3.83c-.14.14-.34.23-.54.23Z"/>
      <path class="st15" d="M72.1,132.93c-.21,0-.4-.08-.55-.23l-3.83-3.83c-.3-.3-.3-.79,0-1.09.14-.14.34-.23.54-.23s.4.08.54.23l3.83,3.83c.3.3.3.79,0,1.09-.14.14-.34.23-.54.23h.01Z"/>
    </g>
  </g>
  <rect class="st1" x="18.1" y="408.21" width="74.63" height="62.1" rx="14.01" ry="14.01"/>
  <rect class="st1" x="19.09" y="260.99" width="74.63" height="62.1" rx="14.01" ry="14.01"/>
  <rect class="st1" x="19.09" y="338.6" width="74.63" height="62.1" rx="14.01" ry="14.01"/>
  <rect class="st1" x="18.1" y="638.69" width="74.63" height="62.1" rx="14.01" ry="14.01"/>
  <rect class="st1" x="19.09" y="499.47" width="74.63" height="62.1" rx="14.01" ry="14.01"/>
  <rect class="st1" x="19.09" y="569.08" width="74.63" height="62.1" rx="14.01" ry="14.01"/>
  <rect class="st1" x="18.1" y="847.52" width="74.63" height="62.1" rx="14.01" ry="14.01"/>
  <rect class="st1" x="19.09" y="708.3" width="74.63" height="62.1" rx="14.01" ry="14.01"/>
  <rect class="st1" x="19.09" y="777.91" width="74.63" height="62.1" rx="14.01" ry="14.01"/>
  <rect class="st1" x="18.1" y="1125.96" width="74.63" height="62.1" rx="14.01" ry="14.01"/>
  <rect class="st1" x="19.09" y="917.13" width="74.63" height="62.1" rx="14.01" ry="14.01"/>
  <rect class="st1" x="19.09" y="986.74" width="74.63" height="62.1" rx="14.01" ry="14.01"/>
  <rect class="st1" x="19.09" y="1056.35" width="74.63" height="62.1" rx="14.01" ry="14.01"/>
  <rect class="st1" x="19.09" y="1195.57" width="74.63" height="62.1" rx="14.01" ry="14.01"/>
  <line class="st3" x1="87.84" y1="330.6" x2="25.74" y2="330.6"/>
  <g>
    <path class="st15" d="M71.83,389.95c-3.03,0-5.49-2.47-5.49-5.49s2.47-5.49,5.49-5.49,5.5,2.47,5.5,5.49-2.47,5.49-5.5,5.49Z"/>
    <path class="st15" d="M58.21,378.77c-.42,0-.77-.35-.77-.77s.35-.77.77-.77h5.41l-6.75-6.75c-.14-.14-.23-.34-.23-.54s.08-.4.23-.55.34-.23.54-.23.4.08.54.23l6.75,6.75v-5.41c0-.42.35-.77.77-.77s.77.35.77.77v7.27c0,.1-.02.2-.06.3-.08.18-.23.34-.42.41-.1.04-.2.06-.29.06h-7.27.01Z"/>
    <path class="st15" d="M37.65,367.65c-.1,0-.2-.02-.3-.06-.18-.08-.34-.23-.41-.42-.04-.09-.06-.19-.06-.29v-16.75c0-.1.02-.2.06-.29.08-.19.23-.34.42-.42.1-.04.19-.06.29-.06h16.75c.1,0,.2.02.29.06.19.08.34.23.42.42.04.1.06.2.06.29v16.75c0,.1-.02.2-.06.3-.08.18-.23.33-.42.41-.1.04-.2.06-.29.06h-16.75ZM39.51,366.11h13.03l-6.52-6.52-6.52,6.52h.01ZM47.12,358.5l6.52,6.52v-13.03l-6.52,6.52h0ZM38.42,365.02l6.52-6.52-6.52-6.52v13.03h0ZM46.03,357.42l6.52-6.52h-13.03l6.52,6.52h-.01Z"/>
  </g>
  <g>
    <path class="st15" d="M61.08,454.79c.23-.55.23-1.18,0-1.73h9.84v-14.79l-3.66,3.66c-.16.16-.38.25-.61.25s-.45-.09-.61-.25-.25-.38-.25-.61.09-.45.25-.61l5.14-5.14c.16-.16.38-.25.61-.25s.45.09.61.25l5.14,5.14c.16.16.25.38.25.61s-.09.45-.25.61-.38.25-.61.25-.45-.09-.61-.25l-3.66-3.66v15.66c0,.48-.39.87-.87.87h-10.71,0Z"/>
    <path class="st15" d="M70.92,428.84h-12.87v-1.74h13.73c.48,0,.87.39.87.87v5.93c-.27-.11-.57-.17-.87-.17s-.6.06-.87.17v-5.06h.01Z"/>
    <path class="st15" d="M53.67,459.93c-.23,0-.45-.09-.61-.25-.34-.34-.34-.89,0-1.23l3.66-3.66h-10.88c-.48,0-.87-.39-.87-.87v-13.73h1.74v12.87h10.01l-3.66-3.66c-.16-.16-.25-.38-.25-.61s.09-.45.25-.61.38-.25.61-.25.45.09.61.25l5.14,5.14c.34.34.34.89,0,1.23l-5.14,5.14c-.16.16-.38.25-.61.25h0Z"/>
    <path class="st15" d="M37.19,436.87c-.1,0-.2-.02-.3-.06-.19-.08-.34-.23-.41-.42-.04-.1-.06-.19-.06-.29v-16.75c0-.1.02-.2.06-.29.08-.19.23-.34.42-.42.1-.04.2-.06.29-.06h16.75c.1,0,.2.02.3.06.18.08.34.23.42.42.04.09.06.19.06.29v16.75c0,.1-.02.2-.06.3-.08.19-.23.34-.42.41-.1.04-.2.06-.29.06h-16.76,0ZM39.05,435.33h13.04l-6.52-6.52-6.52,6.52h0ZM46.65,427.72l6.52,6.52v-13.03l-6.52,6.52h0ZM37.96,434.24l6.52-6.52-6.52-6.52v13.03h0ZM45.56,426.64l6.52-6.52h-13.04l6.52,6.52h0Z"/>
  </g>
  <g>
    <path class="st15" d="M53.48,295.76c-.42,0-.77-.35-.77-.77s.35-.77.77-.77h5.41l-5.91-5.91c-.15-.14-.23-.34-.23-.54s.08-.4.23-.54.34-.23.54-.23.4.08.54.23l5.91,5.91v-5.41c0-.42.35-.77.77-.77s.77.35.77.77v8.04h-8.04,0Z"/>
    <path class="st15" d="M62.46,314.16l-.18-.02-.06.02c-.18-.02-.34-.09-.47-.22-.15-.15-.22-.35-.22-.57v-16.65c0-.27.08-.47.23-.62.18-.18.4-.22.54-.22h16.71c.26,0,.45.08.59.22.15.15.22.35.22.57v16.62c0,.31-.08.51-.23.65-.13.13-.3.21-.49.22l-.17-.02-.07.02s-16.4,0-16.4,0ZM64.15,312.62h13.03l-6.52-6.52-6.52,6.52h0ZM71.76,305.01l6.52,6.52v-13.03l-6.52,6.52h0ZM63.06,311.53l6.52-6.52-6.52-6.52v13.03h0ZM70.67,303.93l6.52-6.52h-13.03l6.52,6.52h0Z"/>
    <path class="st15" d="M42.39,278.26h-4.28l3.7-5.98,2.88,4.13h2.04l-4.28-6.13c-.16-.23-.43-.34-.71-.36-.28,0-.54.16-.69.4l-5.16,8.34c-.16.26-.17.58-.02.85s.43.43.73.43h5.78v-1.67h0,0Z"/>
    <path class="st15" d="M46.71,282.59c-.16-.16-.34-.29-.52-.43-.05-.04-.09-.08-.14-.12-.2-.15-.41-.29-.62-.41-.11-.07-.23-.13-.34-.2-.17-.09-.34-.16-.52-.23s-.36-.14-.55-.2c-.13-.04-.27-.07-.4-.1-.23-.05-.47-.1-.71-.12-.11,0-.21-.02-.32-.03-.14,0-.28-.04-.42-.04-.11,0-.21.03-.32.03-.15,0-.3.03-.45.05-.25.03-.5.06-.74.12-.09.02-.18.06-.27.08-2.66.78-4.62,3.21-4.62,6.11,0,3.11,2.23,5.7,5.18,6.27v-.02c2.01.39,4.17-.17,5.73-1.73,2.49-2.49,2.49-6.55,0-9.04h.03ZM45.53,290.45c-1,1-2.34,1.43-3.64,1.34-.22,0-.44-.04-.66-.08-.12-.03-.24-.06-.36-.1-.16-.05-.32-.1-.47-.16s-.29-.14-.44-.22c-.11-.06-.23-.12-.33-.19-.17-.11-.34-.24-.5-.38-1.01-.86-1.67-2.13-1.67-3.56,0-1.35.58-2.56,1.49-3.43h0c1.38-1.31,3.37-1.63,5.04-.94,1.65.69,2.83,2.31,2.9,4.2h0c.05,1.26-.4,2.54-1.36,3.51h0Z"/>
    <path class="st15" d="M52.35,276.41h-9.13c-.46,0-.83.37-.83.83v3.49c.07,0,.14,0,.21.02.11,0,.21.02.32.03.24.03.47.07.71.12.13.03.27.07.4.1h.03v-2.94h7.46v6.9h-3.33c.19.54.3,1.1.34,1.67h3.82c.46,0,.83-.37.83-.83v-8.57c0-.46-.37-.83-.83-.83h0Z"/>
  </g>
  <g>
    <polygon class="st12" points="41.74 1279.59 50.25 1279.59 50.25 1288.1 41.74 1279.59"/>
    <polygon class="st14" points="41.74 1279.59 33.23 1271.08 50.25 1271.08 41.74 1279.59"/>
    <polygon class="st13" points="41.74 1279.59 50.25 1288.1 33.23 1288.1 41.74 1279.59"/>
    <polygon class="st9" points="41.74 1279.59 33.23 1288.1 33.23 1271.08 41.74 1279.59"/>
  </g>
  <g>
    <circle class="st15" cx="75.12" cy="1279.59" r="11.44" transform="translate(-1205.03 1344.55) rotate(-89.55)"/>
    <g class="st11">
      <g class="st11">
        <path d="M72.12,1273.32c.8-.86,1.91-1.28,3.31-1.28,1.3,0,2.34.37,3.12,1.1.78.73,1.17,1.67,1.17,2.81,0,.69-.14,1.25-.42,1.68s-.86,1.06-1.74,1.89c-.64.61-1.05,1.12-1.25,1.54s-.29,1.04-.29,1.86h-1.74c0-.93.11-1.68.33-2.25s.71-1.22,1.48-1.96l.8-.77c.24-.22.43-.45.58-.69.27-.42.41-.86.41-1.32,0-.64-.19-1.19-.58-1.66s-1.03-.7-1.93-.7c-1.11,0-1.88.4-2.3,1.21-.24.45-.38,1.1-.41,1.94h-1.74c0-1.41.4-2.54,1.21-3.39h-.01ZM74.24,1284.54h1.94v2.03h-1.94v-2.03Z"/>
      </g>
    </g>
  </g>
  <g>
    <path class="st15" d="M65.78,590.91c-.43,0-.77.35-.77.77v15.14h-16.36c-.42,0-.77.35-.77.77v8.2c0,.43.35.77.77.77h24.11c.42,0,.77-.35.77-.77v-24.11c0-.43-.35-.77-.77-.77h-6.98ZM49.42,608.36h16.36c.42,0,.77-.35.77-.77v-15.14h5.44v22.57h-22.57v-6.66Z"/>
    <polygon class="st0" points="69.05 592.38 72.06 595.39 72.06 592.38 69.05 592.38"/>
    <path class="st15" d="M42.66,583.7c-.42,0-.77.35-.77.77v23.12c0,.42.35.77.77.77h23.12c.42,0,.77-.35.77-.77v-23.12c0-.42-.35-.77-.77-.77,0,0-23.12,0-23.12,0ZM43.43,585.24h21.58v21.58h-21.58v-21.58Z"/>
    <polygon class="st15" points="56.32 608.29 54.24 608.29 60.95 615.09 63.12 615.09 56.32 608.29"/>
    <polygon class="st15" points="56.36 615.09 54.28 615.09 49.35 610.06 49.42 608.36 49.66 608.29 56.36 615.09"/>
    <polygon class="st15" points="67.61 615.09 69.69 615.09 62.89 608.29 60.81 608.29 67.61 615.09"/>
    <polygon class="st15" points="72.06 612.78 66.48 607.2 66.48 605.12 72.06 610.7 72.06 612.78"/>
    <polygon class="st15" points="72.06 606.12 66.48 600.63 66.48 598.45 72.06 604.04 72.06 606.12"/>
    <polygon class="st15" points="72.06 599.45 66.48 593.97 66.55 592.45 67.07 592.38 72.06 597.37 72.06 599.45"/>
  </g>
  <g>
    <path class="st15" d="M40.09,726.23c-2.42,0-4.4-1.97-4.4-4.4s1.97-4.4,4.4-4.4,4.4,1.97,4.4,4.4-1.97,4.4-4.4,4.4Z"/>
    <path class="st15" d="M75.07,726.56c-2.42,0-4.4-1.97-4.4-4.4s1.97-4.4,4.4-4.4,4.4,1.97,4.4,4.4-1.97,4.4-4.4,4.4Z"/>
    <path class="st15" d="M57.73,744.97c-3.03,0-5.49-2.47-5.49-5.49s2.47-5.49,5.49-5.49,5.5,2.47,5.5,5.49-2.47,5.49-5.5,5.49Z"/>
    <path class="st15" d="M40.42,761.27c-2.42,0-4.4-1.97-4.4-4.4s1.97-4.4,4.4-4.4,4.4,1.97,4.4,4.4-1.97,4.4-4.4,4.4Z"/>
    <path class="st15" d="M74.9,761.27c-2.42,0-4.4-1.97-4.4-4.4s1.97-4.4,4.4-4.4,4.4,1.97,4.4,4.4-1.97,4.4-4.4,4.4Z"/>
    <g>
      <path class="st15" d="M52.03,734.78c-.21,0-.42-.08-.57-.24l-6.65-6.65c-.15-.15-.24-.35-.24-.57s.08-.42.24-.57.35-.24.57-.24.42.08.57.24l6.65,6.65c.15.15.24.35.24.57s-.08.42-.24.57-.35.24-.57.24Z"/>
      <path class="st15" d="M45.67,734.78c-.44,0-.8-.36-.8-.8s.36-.8.8-.8h5.55v-5.55c0-.44.36-.8.8-.8s.8.36.8.8v7.16h-7.16.01Z"/>
    </g>
    <g>
      <path class="st15" d="M51.86,744.44c-.21,0-.42.08-.57.24l-6.65,6.65c-.15.15-.24.35-.24.57s.08.42.24.57.35.24.57.24.42-.08.57-.24l6.65-6.65c.15-.15.24-.35.24-.57s-.08-.42-.24-.57-.35-.24-.57-.24Z"/>
      <path class="st15" d="M45.51,744.44c-.44,0-.8.36-.8.8s.36.8.8.8h5.55v5.55c0,.44.36.8.8.8s.8-.36.8-.8v-7.16h-7.16.01Z"/>
    </g>
    <g>
      <path class="st15" d="M64.01,734.94c.21,0,.42-.08.57-.24l6.65-6.65c.15-.15.24-.35.24-.57s-.08-.42-.24-.57-.35-.24-.57-.24-.42.08-.57.24l-6.65,6.65c-.15.15-.24.35-.24.57s.08.42.24.57.35.24.57.24Z"/>
      <path class="st15" d="M70.36,734.94c.44,0,.8-.36.8-.8s-.36-.8-.8-.8h-5.55v-5.55c0-.44-.36-.8-.8-.8s-.8.36-.8.8v7.16h7.16-.01,0Z"/>
    </g>
    <g>
      <path class="st15" d="M64.01,744.28c.21,0,.42.08.57.24l6.65,6.65c.15.15.24.35.24.57s-.08.42-.24.57-.35.24-.57.24-.42-.08-.57-.24l-6.65-6.65c-.15-.15-.24-.35-.24-.57s.08-.42.24-.57.35-.24.57-.24Z"/>
      <path class="st15" d="M70.36,744.28c.44,0,.8.36.8.8s-.36.8-.8.8h-5.55v5.55c0,.44-.36.8-.8.8s-.8-.36-.8-.8v-7.16h7.16-.01,0Z"/>
    </g>
  </g>
  <g>
    <g>
      <polygon class="st15" points="70.16 516.64 67.38 514.11 65.18 514.11 65.18 511.97 68.21 511.97 70.09 513.68 71.81 511.97 74.83 511.97 74.83 514.11 72.69 514.11 70.16 516.64"/>
      <polygon class="st15" points="74.83 551.97 71.81 551.97 70.09 550.26 68.21 551.97 65.18 551.97 65.18 549.83 67.38 549.83 70.16 547.3 72.69 549.83 74.83 549.83 74.83 551.97"/>
      <rect class="st15" x="68.93" y="514.84" width="2.14" height="35.1"/>
    </g>
    <g>
      <path class="st15" d="M38.76,520.4h6.41l1.73,1.73v9.12l-1.53,1.53,1.73,9.55h-2.68l-1.7-9.35h-1.18v9.35h-2.77v-21.93h0ZM44.13,530.15v-6.87l-.58-.58h-2.02v8.02h2.02l.58-.58h0Z"/>
      <path class="st15" d="M48.86,520.4h6.84v2.37h-4.07v7.27h3.55v2.37h-3.55v7.56h4.13v2.37h-6.9v-21.93h0Z"/>
      <path class="st15" d="M57.23,544.69v-2.37h9.35v2.37h-9.35Z"/>
    </g>
  </g>
  <path class="st15" d="M57.06,1170.4c-5.04,0-9.15-4.1-9.15-9.15v-8.48c0-2.02.66-3.94,1.9-5.56l.05-.06c1.78-2.25,4.39-3.53,7.2-3.53,5.04,0,9.15,4.1,9.15,9.15v8.48c0,1.94-.61,3.81-1.78,5.39-1.73,2.35-4.48,3.75-7.37,3.75h0ZM49.99,1150.03c-.35.9-.53,1.83-.53,2.74v8.48c0,4.19,3.41,7.61,7.61,7.61,1.99,0,3.87-.77,5.31-2.17l.43-.42-12.33-17.46-.47,1.21h-.02ZM57.06,1145.17c-1.88,0-3.7.72-5.12,2.02l-.45.42,12.3,17.4.44-1.29c.3-.86.44-1.66.44-2.46v-8.48c0-4.19-3.41-7.61-7.61-7.61h0Z"/>
  <g>
    <path class="st0" d="M77.65,968.04h-2.37v-2.37h2.37v-2.37h-2.37v-2.37h2.37v-2.37h-2.37v-2.37h2.37v-2.37h-2.37v-2.37h2.37v2.37h.52v-2.05c0-.59-.48-1.08-1.08-1.08h-15.59c-.59,0-1.08.48-1.08,1.08v15.59c0,.59.48,1.08,1.08,1.08h1.86v-.36h-2.37v-2.37h2.37v-2.37h-2.37v-2.37h2.37v-2.37h-2.37v-2.37h2.37v-2.37h-2.37v-2.37h2.37v2.37h2.37v2.37h-2.37v2.37h2.37v2.37h-2.37v2.37h2.37v2.37h-2.37v2.37h2.37v.36h2.38v-.36h-2.37v-2.37h2.37v-2.37h-2.37v-2.37h2.37v-2.37h-2.37v-2.37h2.37v-2.37h-2.37v-2.37h2.37v2.37h2.37v2.37h-2.37v2.37h2.37v2.37h-2.37v2.37h2.37v2.37h-2.37v2.37h2.37v.36h2.38v-.36h-2.37v-2.37h2.37v-2.37h-2.37v-2.37h2.37v-2.37h-2.37v-2.37h2.37v-2.37h-2.37v-2.37h2.37v2.37h2.37v2.37h-2.37v2.37h2.37v2.37h-2.37v2.37h2.37v2.37h-2.37v2.37h2.37v.36h1.83c.21,0,.39-.07.56-.18v-.18l.03-.04h0Z"/>
    <g>
      <path class="st0" d="M77.93,968.25h.25c.18-.2.3-.46.3-.75v-1.73h-.54v2.47h-.01Z"/>
      <rect class="st0" x="77.93" y="960.84" width=".54" height="2.47"/>
      <rect class="st0" x="77.93" y="955.9" width=".54" height="2.47"/>
      <rect class="st15" x="60.6" y="965.78" width="2.47" height="2.47"/>
      <rect class="st15" x="65.55" y="965.78" width="2.47" height="2.47"/>
      <rect class="st15" x="70.5" y="965.78" width="2.47" height="2.47"/>
      <rect class="st15" x="75.45" y="965.78" width="2.47" height="2.47"/>
      <rect class="st15" x="63.07" y="968.25" width="2.47" height=".38"/>
      <rect class="st15" x="68.02" y="968.25" width="2.47" height=".38"/>
      <rect class="st15" x="72.97" y="968.25" width="2.47" height=".38"/>
      <rect class="st15" x="60.6" y="960.84" width="2.47" height="2.47"/>
      <rect class="st15" x="65.55" y="960.84" width="2.47" height="2.47"/>
      <rect class="st15" x="70.5" y="960.84" width="2.47" height="2.47"/>
      <rect class="st15" x="75.45" y="960.84" width="2.47" height="2.47"/>
      <rect class="st15" x="63.07" y="963.31" width="2.47" height="2.47"/>
      <rect class="st15" x="68.02" y="963.31" width="2.47" height="2.47"/>
      <rect class="st15" x="72.97" y="963.31" width="2.47" height="2.47"/>
      <rect class="st15" x="77.93" y="963.31" width=".54" height="2.47"/>
      <rect class="st15" x="60.6" y="955.9" width="2.47" height="2.47"/>
      <rect class="st15" x="65.55" y="955.9" width="2.47" height="2.47"/>
      <rect class="st15" x="70.5" y="955.9" width="2.47" height="2.47"/>
      <rect class="st15" x="75.45" y="955.9" width="2.47" height="2.47"/>
      <rect class="st15" x="63.07" y="958.37" width="2.47" height="2.47"/>
      <rect class="st15" x="68.02" y="958.37" width="2.47" height="2.47"/>
      <rect class="st15" x="72.97" y="958.37" width="2.47" height="2.47"/>
      <rect class="st15" x="77.93" y="958.37" width=".54" height="2.47"/>
      <rect class="st15" x="60.6" y="950.96" width="2.47" height="2.47"/>
      <rect class="st15" x="65.55" y="950.96" width="2.47" height="2.47"/>
      <rect class="st15" x="70.5" y="950.96" width="2.47" height="2.47"/>
      <rect class="st15" x="75.45" y="950.96" width="2.47" height="2.47"/>
      <rect class="st15" x="63.07" y="953.43" width="2.47" height="2.47"/>
      <rect class="st15" x="68.02" y="953.43" width="2.47" height="2.47"/>
      <rect class="st15" x="72.97" y="953.43" width="2.47" height="2.47"/>
      <rect class="st15" x="77.93" y="953.43" width=".54" height="2.47"/>
    </g>
    <circle class="st15" cx="69.3" cy="959.53" r="4.92"/>
    <polygon class="st15" points="38.99 937.96 34.33 933.28 40.85 932.23 43.86 926.36 46.87 932.23 53.38 933.28 48.73 937.96 49.74 944.48 43.86 941.49 37.97 944.48 38.99 937.96"/>
    <path class="st15" d="M59.08,950.27c-.21,0-.42-.08-.57-.24l-7.04-7.04c-.15-.15-.24-.35-.24-.57s.08-.42.24-.57.35-.24.57-.24.42.08.57.24l7.04,7.04c.15.15.24.35.24.57s-.08.42-.24.57-.35.24-.57.24Z"/>
    <path class="st15" d="M52.73,950.27c-.44,0-.8-.36-.8-.8s.36-.8.8-.8h5.55v-5.55c0-.44.36-.8.8-.8s.8.36.8.8v7.16h-7.16.01Z"/>
    <path class="st15" d="M61.51,968.69c-.75,0-1.37-.61-1.37-1.37v-15.59c0-.75.61-1.37,1.37-1.37h15.59c.75,0,1.37.61,1.37,1.37v15.59c0,.75-.61,1.37-1.37,1.37h-15.59ZM60.72,968.05l17.1.06.05-.79v-16.31l-17.1-.06-.06,17.1h0Z"/>
  </g>
  <g>
    <g>
      <polygon class="st15" points="59.01 858.18 59.93 859.76 59.93 890.05 59.01 889.64 59.01 858.18"/>
      <polygon class="st15" points="61.52 890.74 61.52 888.67 69.21 892.04 68.21 881.98 74.93 874.43 65.06 872.27 61.52 866.23 61.52 862.47 66.28 870.59 78.5 873.27 70.18 882.62 71.42 895.08 61.52 890.74"/>
    </g>
    <rect class="st8" x="67.87" y="880.5" width="3.12" height="3.12"/>
    <rect class="st8" x="75.39" y="871.98" width="3.12" height="3.12"/>
    <rect class="st8" x="63.91" y="869.88" width="3.12" height="3.12"/>
    <rect class="st8" x="69.36" y="892.37" width="3.12" height="3.12"/>
    <polygon class="st15" points="43.9 879.4 36.65 874.62 45.35 873.78 40.61 867.65 48.81 869.46 47.86 861.19 54.07 866.93 55.37 864 55.37 868.7 54.74 870.13 50.33 866.06 51.01 871.89 45.32 870.63 48.96 875.34 42.18 875.99 47.55 879.52 42.8 882.19 48.98 883.46 44.96 887.86 51.63 886.3 49.11 892.98 55.37 889.09 55.37 891.33 45.36 897.55 48.6 888.96 39.42 891.1 45.33 884.65 37.45 883.03 43.9 879.4"/>
    <rect class="st8" x="45.75" y="893.98" width="3.12" height="3.12"/>
    <rect class="st8" x="39.99" y="887.96" width="3.12" height="3.12"/>
    <rect class="st8" x="37.48" y="880.95" width="3.12" height="3.12"/>
    <rect class="st8" x="37.35" y="873.93" width="3.12" height="3.12"/>
    <rect class="st8" x="41.19" y="867.52" width="3.12" height="3.12"/>
    <rect class="st8" x="47.33" y="861.53" width="3.12" height="3.12"/>
    <path class="st15" d="M58.44,856.6c.82,0,1.49.67,1.49,1.49v40.96c0,.82-.67,1.49-1.49,1.49s-1.49-.67-1.49-1.49v-40.96c0-.82.67-1.49,1.49-1.49Z"/>
  </g>
  <path class="st7" d="M66.56,1089.26c-.57,0-1.13.06-1.68.16v-10.33h-10l-7.27-12.59-9.79,16.95h11.08v11.62h8.89c-.48,1.14-.75,2.39-.75,3.7,0,5.26,4.26,9.52,9.52,9.52s9.52-4.26,9.52-9.52-4.26-9.52-9.52-9.52h0Z"/>
  <g>
    <path class="st15" d="M46.82,1237.19c-.28,0-.54-.11-.73-.3l-10.45-10.45,10.45-10.45c.2-.2.46-.3.73-.3s.54.11.73.3.3.46.3.73-.11.54-.3.73l-8.99,8.99,8.99,8.99c.2.2.3.46.3.73s-.11.54-.3.73-.46.3-.73.3Z"/>
    <path class="st15" d="M69.35,1237.19c-.28,0-.54-.11-.73-.3s-.3-.46-.3-.73.11-.54.3-.73l8.99-8.99-8.99-8.99c-.2-.19-.3-.46-.3-.73s.11-.54.3-.73.46-.3.73-.3.54.11.73.3l10.45,10.45-10.45,10.45c-.2.2-.46.3-.73.3Z"/>
    <g>
      <line class="st6" x1="51.07" y1="1219.42" x2="65.1" y2="1233.44"/>
      <line class="st6" x1="65.1" y1="1219.42" x2="51.07" y2="1233.44"/>
    </g>
  </g>
  <g>
    <rect class="st15" x="51.22" y="663.8" width="12.61" height="1.71"/>
    <polygon class="st15" points="52.66 672.23 51.22 673.66 51.22 673.94 63.84 673.94 63.84 672.23 52.66 672.23"/>
    <rect class="st15" x="51.22" y="676.44" width="12.61" height="1.71"/>
    <polygon class="st15" points="51.57 668.02 51.98 668.42 53.03 669.48 53.28 669.72 63.84 669.72 63.84 668.02 51.57 668.02"/>
    <g class="st16">
      <g>
        <rect class="st15" x="43.01" y="669.17" width="1.85" height="2.99"/>
        <path class="st15" d="M71.33,651.11h-29.15c-.16,0-.58.42-.58.92v7.2c.55.14,1.05.41,1.46.82l.38.38.03-7.65,26.92.17.35,35.59h-27.3v-7.67l-.38.38c-.41.41-.92.68-1.46.82v7.39c0,.51.42.92.92.92h29.15c.51,0,.92-.42.92-.92v-37.44c0-.51-.42-.92-1.27-.92h.01Z"/>
      </g>
    </g>
    <path class="st15" d="M40.83,680.52c.38,0,.77-.15,1.06-.44l9.42-9.42-1.06-1.06-8.36-8.36c-.29-.29-.67-.44-1.06-.44s-.77.15-1.06.44c-.58.58-.58,1.53,0,2.11l5.81,5.81h-13.89c-.4,0-.78.15-1.06.44s-.44.66-.44,1.06.16.78.44,1.06.66.44,1.06.44h13.89l-5.81,5.81c-.58.58-.58,1.53,0,2.11.29.29.67.44,1.06.44h0Z"/>
    <g>
      <g>
        <path class="st15" d="M47.31,656.8h3.95v-1.68h-4.26c-.76,0-1.37.61-1.37,1.37v5.48l1.68,1.68v-6.85Z"/>
        <path class="st15" d="M67.14,655.12h-3.45v1.68h3.14v21.88h-4.16c-.79,0-1.43.64-1.43,1.43v4.36h-13.94v-6.79l-1.68,1.68v5.47c0,.73.59,1.32,1.32,1.32h15.48l6.08-6.08v-23.56c0-.76-.62-1.38-1.38-1.38h.02ZM62.93,683.28v-2.92h2.92l-2.92,2.92Z"/>
      </g>
      <path class="st15" d="M64.54,657.67h-14.11v-5.25c0-1.29,1.05-2.34,2.34-2.34.2,0,.39-.09.51-.24l1.03-1.25c.45-.54,1.11-.85,1.81-.85h2.72c.71,0,1.38.32,1.82.87l.99,1.23c.13.16.31.25.52.25,1.32,0,2.37,1.05,2.37,2.34v5.25h0ZM52.1,655.99h10.76v-3.57c0-.37-.3-.66-.66-.66-.74,0-1.41-.32-1.85-.87l-.99-1.23c-.13-.16-.31-.25-.52-.25h-2.72c-.2,0-.39.09-.51.24l-1.03,1.25c-.45.54-1.11.85-1.81.85-.37,0-.66.3-.66.66v3.57h-.01Z"/>
    </g>
  </g>
  <g>
    <rect class="st17" x="47.07" y="798.98" width="19.99" height="19.99" transform="translate(-555.5 277.51) rotate(-45.02)"/>
    <polygon class="st15" points="71.18 808.96 57.05 823.1 56.91 822.96 56.91 794.97 57.05 794.83 71.18 808.96"/>
  </g>
  <g>
    <path class="st15" d="M38.63,998.73c-.45,0-.81.36-.81.81v24.39c0,.45.36.81.81.81h24.39c.45,0,.81-.36.81-.81v-24.39c0-.45-.36-.81-.81-.81h-24.39ZM39.44,1000.35h22.77v22.77h-22.77v-22.77Z"/>
    <path class="st15" d="M51,1011.1c-.45,0-.81.36-.81.81v24.39c0,.45.36.81.81.81h24.39c.45,0,.81-.36.81-.81v-24.39c0-.45-.36-.81-.81-.81h-24.39ZM51.81,1012.72h22.77v22.77h-22.77v-22.77Z"/>
    <rect class="st15" x="50.82" y="1012.09" width="11.93" height="11.93"/>
  </g>
</svg>