<?xml version="1.0" encoding="UTF-8"?>
<svg id="Layer_1" xmlns="http://www.w3.org/2000/svg" version="1.1" viewBox="0 0 718.15 250.49">
  <!-- Generator: Adobe Illustrator 29.6.1, SVG Export Plug-In . SVG Version: 2.1.1 Build 9)  -->
  <defs>
    <style>
      .st0 {
        stroke: #303030;
      }

      .st0, .st1 {
        fill: none;
      }

      .st0, .st1, .st2 {
        stroke-miterlimit: 10;
      }

      .st3 {
        fill: #e84934;
      }

      .st4 {
        font-family: AdobeClean-Medium, 'Adobe Clean';
        font-size: 17.37px;
        font-weight: 500;
      }

      .st4, .st5 {
        isolation: isolate;
      }

      .st4, .st2 {
        fill: #1d1d1d;
      }

      .st1 {
        stroke: #e84934;
        stroke-width: 2px;
      }

      .st2 {
        stroke: #4b4b4b;
        stroke-width: 2.5px;
      }

      .st6 {
        fill: #d3d3d3;
      }
    </style>
  </defs>
  <path class="st0" d="M121.03,25.76h476.95c3.13,0,5.66,2.53,5.66,5.66v71.37c0,3.13-2.53,5.66-5.66,5.66H43.28c-3.13,0-5.66-2.53-5.66-5.66V31.42c0-3.13,2.53-5.66,5.66-5.66h6.14"/>
  <g class="st5">
    <text class="st4" transform="translate(54.69 32.34)"><tspan x="0" y="0">Visibility</tspan></text>
  </g>
  <g>
    <rect class="st2" x="415.84" y="37.09" width="169.43" height="62.1" rx="14.01" ry="14.01"/>
    <circle class="st6" cx="500.98" cy="67.12" r="3.96"/>
    <path class="st6" d="M514.6,67.88c-.21,0-.4-.08-.55-.23-3.48-3.48-8.12-5.4-13.06-5.4s-9.58,1.92-13.06,5.4c-.14.15-.34.23-.55.23s-.4-.08-.54-.23-.23-.34-.23-.54.08-.4.23-.54c3.78-3.78,8.81-5.87,14.15-5.87s10.37,2.08,14.15,5.87c.14.15.23.34.23.54s-.08.4-.23.54c-.15.15-.34.23-.54.23Z"/>
    <path class="st6" d="M500.99,73.64c-5.35,0-10.38-2.08-14.15-5.85-.14-.15-.23-.34-.23-.54s.08-.4.23-.54c.14-.15.34-.23.54-.23s.4.08.55.23c3.48,3.48,8.12,5.4,13.06,5.4s9.58-1.92,13.06-5.4c.14-.15.34-.23.55-.23s.4.08.54.23.23.34.23.54-.08.4-.23.54c-3.77,3.77-8.8,5.85-14.15,5.85Z"/>
    <path class="st6" d="M500.98,57.47c-.42,0-.77-.35-.77-.77v-6.07c0-.42.35-.77.77-.77s.77.35.77.77v6.07c0,.42-.35.77-.77.77Z"/>
    <path class="st6" d="M500.98,84.5c-.42,0-.77-.35-.77-.77v-6.07c0-.42.35-.77.77-.77s.77.35.77.77v6.07c0,.42-.35.77-.77.77Z"/>
    <path class="st6" d="M509.96,58.97c-.21,0-.4-.08-.54-.23s-.23-.34-.23-.54.08-.4.23-.54l3.83-3.83c.14-.15.34-.23.55-.23s.4.08.54.23.23.34.23.54-.08.4-.23.54l-3.83,3.83c-.14.15-.34.23-.54.23h0Z"/>
    <path class="st6" d="M488.17,80.76c-.21,0-.4-.08-.54-.23-.3-.3-.3-.79,0-1.09l3.83-3.83c.14-.14.34-.23.54-.23s.4.08.54.23.23.34.23.55-.08.4-.23.54l-3.83,3.83c-.14.14-.34.23-.54.23Z"/>
    <path class="st6" d="M492,58.97c-.21,0-.4-.08-.54-.23l-3.83-3.83c-.14-.15-.23-.34-.23-.54s.08-.4.23-.54c.14-.15.34-.23.54-.23s.4.08.54.23l3.83,3.83c.14.15.23.34.23.54s-.08.4-.23.54-.34.23-.54.23Z"/>
    <path class="st6" d="M513.79,80.76c-.21,0-.4-.08-.55-.23l-3.83-3.83c-.3-.3-.3-.79,0-1.09.14-.14.34-.23.54-.23s.4.08.54.23l3.83,3.83c.3.3.3.79,0,1.09-.14.14-.34.23-.54.23h0Z"/>
  </g>
  <g>
    <rect class="st2" x="50.69" y="37.09" width="169.43" height="62.1" rx="14.01" ry="14.01"/>
    <path class="st6" d="M148.32,64.81c-.21,0-.4-.08-.55-.23-3.49-3.49-8.13-5.42-13.06-5.42s-9.57,1.92-13.06,5.42c-.15.15-.34.23-.54.23s-.4-.08-.54-.23c-.3-.3-.3-.79,0-1.09,3.78-3.78,8.81-5.87,14.15-5.87s10.37,2.08,14.15,5.87c.14.15.23.34.23.54s-.08.4-.23.54-.34.23-.54.23h-.01Z"/>
    <path class="st6" d="M134.71,72.5c-2.61,0-4.73-2.12-4.73-4.73s2.12-4.73,4.73-4.73,4.73,2.12,4.73,4.73-2.12,4.73-4.73,4.73Z"/>
  </g>
  <g>
    <rect class="st2" x="233.82" y="37.09" width="169.43" height="62.1" rx="14.01" ry="14.01"/>
    <g>
      <path class="st6" d="M318.54,69.9c-5.35,0-10.38-2.08-14.15-5.85-.14-.15-.23-.34-.23-.54s.08-.4.23-.54c.14-.15.34-.23.54-.23s.4.08.55.23c3.48,3.48,8.12,5.4,13.06,5.4s9.58-1.92,13.06-5.4c.14-.15.34-.23.55-.23s.4.08.54.23.23.34.23.54-.08.4-.23.54c-3.77,3.77-8.8,5.85-14.15,5.85Z"/>
      <path class="st6" d="M318.54,76.44c-.42,0-.77-.35-.77-.77v-6.07c0-.42.35-.77.77-.77s.77.35.77.77v6.07c0,.42-.35.77-.77.77Z"/>
      <path class="st6" d="M310.28,74.81c-.4-.13-.63-.56-.5-.97l1.85-5.78c.13-.4.56-.63.97-.5s.63.56.5.97l-1.85,5.78c-.13.4-.56.63-.97.5Z"/>
      <path class="st6" d="M327.02,74.81c.4-.13.63-.56.5-.97l-1.85-5.78c-.13-.4-.56-.63-.97-.5s-.63.56-.5.97l1.85,5.78c.13.4.56.63.97.5Z"/>
      <path class="st6" d="M303.07,70.59c-.21,0-.4-.08-.54-.23-.3-.3-.3-.79,0-1.09l3.83-3.83c.14-.14.34-.23.54-.23s.4.08.54.23.23.34.23.55-.08.4-.23.54l-3.83,3.83c-.14.14-.34.23-.54.23Z"/>
      <path class="st6" d="M334.45,70.26c-.21,0-.4-.08-.55-.23l-3.83-3.83c-.3-.3-.3-.79,0-1.09.14-.14.34-.23.54-.23s.4.08.54.23l3.83,3.83c.3.3.3.79,0,1.09-.14.14-.34.23-.54.23h0Z"/>
    </g>
  </g>
  <g>
    <path d="M107.89,222.6v-2.26h2.65v-6.97h-2.28v-1.73c.67-.13,1.23-.28,1.69-.46.46-.18.91-.39,1.34-.65h2.07v9.8h2.28v2.26h-7.75Z"/>
    <path d="M119.55,222.82c-.49,0-.89-.17-1.22-.5-.33-.34-.49-.75-.49-1.24s.16-.93.49-1.26.73-.5,1.22-.5.89.17,1.22.5c.33.34.49.76.49,1.26s-.16.91-.49,1.24c-.33.33-.73.5-1.22.5Z"/>
    <path d="M132.58,222.87c-1.07,0-2.06-.2-2.97-.6-.91-.4-1.7-.94-2.37-1.63l1.16-1.33c.54.57,1.18,1.02,1.92,1.37.74.35,1.5.52,2.29.52,1.01,0,1.79-.23,2.34-.68.56-.45.84-1.05.84-1.78,0-.38-.07-.71-.2-.98-.13-.27-.31-.5-.53-.69-.22-.19-.49-.36-.8-.52s-.64-.31-1-.48l-2.18-.94c-.36-.15-.72-.34-1.09-.55-.37-.21-.7-.47-1-.78s-.53-.67-.72-1.09-.28-.91-.28-1.46.12-1.1.36-1.59c.24-.49.57-.92,1-1.28s.93-.64,1.51-.84c.58-.2,1.22-.3,1.92-.3.91,0,1.76.17,2.53.52s1.43.79,1.97,1.35l-1.04,1.24c-.46-.44-.98-.79-1.54-1.05-.57-.25-1.2-.38-1.92-.38-.85,0-1.54.2-2.05.59-.52.39-.78.93-.78,1.62,0,.37.07.68.22.93.15.25.34.48.59.67.25.19.52.36.81.51s.6.28.91.4l2.16.92c.43.18.84.39,1.23.63.39.24.72.51,1,.83.28.31.5.68.66,1.1.16.42.24.91.24,1.46,0,.6-.12,1.16-.36,1.68-.24.52-.58.98-1.03,1.37-.45.39-.99.7-1.63.92-.63.22-1.35.33-2.16.33Z"/>
    <path d="M144.96,222.87c-.7,0-1.36-.13-1.98-.39s-1.18-.64-1.66-1.14c-.48-.5-.86-1.11-1.15-1.84-.29-.73-.43-1.55-.43-2.47s.14-1.77.43-2.5c.29-.73.67-1.35,1.15-1.85.48-.51,1.03-.89,1.66-1.15.63-.26,1.29-.39,1.98-.39s1.36.13,1.99.39c.63.26,1.18.64,1.66,1.15.48.51.86,1.12,1.15,1.85s.43,1.56.43,2.5-.14,1.75-.43,2.47c-.29.73-.67,1.34-1.15,1.84-.48.5-1.03.88-1.66,1.14s-1.29.39-1.99.39ZM144.96,221.31c.48,0,.92-.1,1.32-.31.4-.21.75-.5,1.03-.87.29-.38.51-.82.66-1.35.16-.52.23-1.1.23-1.75s-.08-1.23-.23-1.76c-.15-.53-.38-.99-.66-1.37-.29-.38-.63-.68-1.03-.88-.4-.21-.84-.31-1.32-.31s-.92.1-1.32.31-.75.5-1.03.88c-.29.38-.51.84-.66,1.37-.16.53-.23,1.12-.23,1.76s.08,1.23.23,1.75c.15.52.38.97.66,1.35.29.38.63.67,1.03.87s.84.31,1.32.31Z"/>
    <path d="M155.17,222.87c-.73,0-1.25-.21-1.56-.64-.31-.43-.46-1.06-.46-1.89v-14.12h1.9v14.26c0,.31.05.52.16.64s.23.18.37.18h.17c.05,0,.13-.01.24-.05l.26,1.43c-.12.06-.27.11-.44.14-.17.03-.39.05-.65.05Z"/>
    <path d="M163.46,222.87c-.7,0-1.36-.13-1.98-.39s-1.18-.64-1.66-1.14c-.48-.5-.86-1.11-1.15-1.84-.29-.73-.43-1.55-.43-2.47s.14-1.77.43-2.5c.29-.73.67-1.35,1.15-1.85.48-.51,1.03-.89,1.66-1.15.63-.26,1.29-.39,1.98-.39s1.36.13,1.99.39c.63.26,1.18.64,1.66,1.15.48.51.86,1.12,1.15,1.85s.43,1.56.43,2.5-.14,1.75-.43,2.47c-.29.73-.67,1.34-1.15,1.84-.48.5-1.03.88-1.66,1.14s-1.29.39-1.99.39ZM163.46,221.31c.48,0,.92-.1,1.32-.31.4-.21.75-.5,1.03-.87.29-.38.51-.82.66-1.35.16-.52.23-1.1.23-1.75s-.08-1.23-.23-1.76c-.15-.53-.38-.99-.66-1.37-.29-.38-.63-.68-1.03-.88-.4-.21-.84-.31-1.32-.31s-.92.1-1.32.31-.75.5-1.03.88c-.29.38-.51.84-.66,1.37-.16.53-.23,1.12-.23,1.76s.08,1.23.23,1.75c.15.52.38.97.66,1.35.29.38.63.67,1.03.87s.84.31,1.32.31Z"/>
    <path d="M180.71,222.87c-1.07,0-2.06-.2-2.97-.6-.91-.4-1.7-.94-2.37-1.63l1.16-1.33c.54.57,1.18,1.02,1.92,1.37.74.35,1.5.52,2.29.52,1.01,0,1.79-.23,2.34-.68.56-.45.84-1.05.84-1.78,0-.38-.07-.71-.2-.98-.13-.27-.31-.5-.53-.69-.22-.19-.49-.36-.8-.52s-.64-.31-1-.48l-2.18-.94c-.36-.15-.72-.34-1.09-.55-.37-.21-.7-.47-1-.78s-.53-.67-.72-1.09-.28-.91-.28-1.46.12-1.1.36-1.59c.24-.49.57-.92,1-1.28s.93-.64,1.51-.84c.58-.2,1.22-.3,1.92-.3.91,0,1.76.17,2.53.52s1.43.79,1.97,1.35l-1.04,1.24c-.46-.44-.98-.79-1.54-1.05-.57-.25-1.2-.38-1.92-.38-.85,0-1.54.2-2.05.59-.52.39-.78.93-.78,1.62,0,.37.07.68.22.93.15.25.34.48.59.67.25.19.52.36.81.51s.6.28.91.4l2.16.92c.43.18.84.39,1.23.63.39.24.72.51,1,.83.28.31.5.68.66,1.1.16.42.24.91.24,1.46,0,.6-.12,1.16-.36,1.68-.24.52-.58.98-1.03,1.37-.45.39-.99.7-1.63.92-.63.22-1.35.33-2.16.33Z"/>
    <path d="M193.28,222.87c-.76,0-1.47-.13-2.12-.4-.66-.27-1.23-.65-1.72-1.15-.49-.5-.87-1.11-1.15-1.83-.28-.72-.42-1.54-.42-2.46s.14-1.74.43-2.47c.29-.73.67-1.35,1.14-1.85.47-.51,1.01-.89,1.61-1.16.6-.27,1.23-.4,1.88-.4.71,0,1.35.12,1.92.37.56.25,1.04.6,1.42,1.06.38.46.67,1.01.87,1.66.2.64.3,1.37.3,2.16,0,.2,0,.39-.01.59,0,.19-.03.36-.06.49h-7.62c.08,1.2.45,2.14,1.13,2.84.67.7,1.55,1.05,2.63,1.05.54,0,1.04-.08,1.5-.24.46-.16.89-.37,1.31-.63l.67,1.24c-.5.31-1.04.58-1.65.8-.6.23-1.29.35-2.07.35ZM189.72,216.11h6.04c0-1.13-.24-2-.73-2.59-.49-.59-1.17-.89-2.05-.89-.4,0-.79.08-1.15.23-.36.15-.69.38-.99.68s-.54.66-.73,1.09c-.19.43-.32.92-.38,1.47Z"/>
    <path d="M202.24,222.87c-.73,0-1.25-.21-1.56-.64-.31-.43-.46-1.06-.46-1.89v-14.12h1.9v14.26c0,.31.05.52.16.64s.23.18.37.18h.17c.05,0,.13-.01.24-.05l.26,1.43c-.12.06-.27.11-.44.14-.17.03-.39.05-.65.05Z"/>
    <path d="M210.71,222.87c-.76,0-1.47-.13-2.12-.4-.66-.27-1.23-.65-1.72-1.15-.49-.5-.87-1.11-1.15-1.83-.28-.72-.42-1.54-.42-2.46s.14-1.74.43-2.47c.29-.73.67-1.35,1.14-1.85.47-.51,1.01-.89,1.61-1.16.6-.27,1.23-.4,1.88-.4.71,0,1.35.12,1.92.37.56.25,1.04.6,1.42,1.06.38.46.67,1.01.87,1.66.2.64.3,1.37.3,2.16,0,.2,0,.39-.01.59,0,.19-.03.36-.06.49h-7.62c.08,1.2.45,2.14,1.13,2.84.67.7,1.55,1.05,2.63,1.05.54,0,1.04-.08,1.5-.24.46-.16.89-.37,1.31-.63l.67,1.24c-.5.31-1.04.58-1.65.8-.6.23-1.29.35-2.07.35ZM207.16,216.11h6.04c0-1.13-.24-2-.73-2.59-.49-.59-1.17-.89-2.05-.89-.4,0-.79.08-1.15.23-.36.15-.69.38-.99.68s-.54.66-.73,1.09c-.19.43-.32.92-.38,1.47Z"/>
    <path d="M222.11,222.87c-.74,0-1.44-.13-2.09-.39s-1.21-.64-1.68-1.14c-.47-.5-.84-1.11-1.11-1.84-.27-.73-.41-1.55-.41-2.47s.15-1.77.44-2.5.69-1.35,1.18-1.85,1.07-.89,1.73-1.15c.66-.26,1.35-.39,2.08-.39s1.38.13,1.9.39c.53.26.99.57,1.39.92l-.98,1.24c-.33-.29-.67-.53-1.03-.71-.36-.18-.77-.28-1.22-.28-.51,0-.98.1-1.42.31s-.8.5-1.11.88c-.31.38-.55.84-.73,1.37-.18.53-.27,1.12-.27,1.76s.08,1.23.25,1.75c.17.52.41.97.71,1.35.3.38.67.67,1.1.87.43.21.91.31,1.42.31s1.01-.11,1.45-.33c.44-.22.84-.49,1.2-.79l.84,1.26c-.51.45-1.08.79-1.7,1.05s-1.27.38-1.95.38Z"/>
    <path d="M231.56,222.87c-.6,0-1.11-.09-1.52-.28s-.74-.44-1-.76c-.26-.32-.44-.71-.55-1.17s-.16-.97-.16-1.52v-6.19h-1.67v-1.43l1.76-.11.23-3.13h1.6v3.13h3.04v1.54h-3.04v6.21c0,.69.13,1.22.38,1.6.26.38.71.56,1.36.56.2,0,.42-.03.65-.09.23-.06.44-.13.63-.21l.37,1.43c-.31.11-.65.2-1.01.29s-.72.13-1.08.13Z"/>
    <path d="M240.11,222.87c-.76,0-1.47-.13-2.12-.4-.66-.27-1.23-.65-1.72-1.15-.49-.5-.87-1.11-1.15-1.83-.28-.72-.42-1.54-.42-2.46s.14-1.74.43-2.47c.29-.73.67-1.35,1.14-1.85.47-.51,1.01-.89,1.61-1.16.6-.27,1.23-.4,1.88-.4.71,0,1.35.12,1.92.37.56.25,1.04.6,1.42,1.06.38.46.67,1.01.87,1.66.2.64.3,1.37.3,2.16,0,.2,0,.39-.01.59,0,.19-.03.36-.06.49h-7.62c.08,1.2.45,2.14,1.13,2.84.67.7,1.55,1.05,2.63,1.05.54,0,1.04-.08,1.5-.24.46-.16.89-.37,1.31-.63l.67,1.24c-.5.31-1.04.58-1.65.8-.6.23-1.29.35-2.07.35ZM236.56,216.11h6.04c0-1.13-.24-2-.73-2.59-.49-.59-1.17-.89-2.05-.89-.4,0-.79.08-1.15.23-.36.15-.69.38-.99.68s-.54.66-.73,1.09c-.19.43-.32.92-.38,1.47Z"/>
    <path d="M250.9,222.87c-1.42,0-2.56-.51-3.4-1.52s-1.26-2.45-1.26-4.32c0-.9.13-1.72.41-2.45.27-.73.63-1.35,1.08-1.85s.97-.9,1.56-1.17,1.21-.41,1.86-.41,1.22.12,1.7.34c.48.23.97.54,1.46.94l-.09-1.91v-4.3h1.93v16.38h-1.58l-.16-1.31h-.07c-.45.43-.96.8-1.54,1.12-.58.31-1.2.47-1.87.47ZM251.32,221.29c.53,0,1.02-.13,1.49-.38.46-.25.93-.64,1.39-1.16v-5.84c-.48-.43-.94-.73-1.38-.91-.44-.18-.89-.26-1.36-.26s-.87.1-1.27.31c-.39.21-.74.5-1.03.87-.29.38-.53.82-.7,1.35-.17.52-.25,1.1-.25,1.75,0,1.35.27,2.4.81,3.15.54.75,1.31,1.13,2.3,1.13Z"/>
    <path d="M268.99,222.87c-1.07,0-2.06-.2-2.97-.6-.91-.4-1.7-.94-2.37-1.63l1.16-1.33c.54.57,1.18,1.02,1.92,1.37.74.35,1.5.52,2.29.52,1.01,0,1.79-.23,2.34-.68.56-.45.84-1.05.84-1.78,0-.38-.07-.71-.2-.98-.13-.27-.31-.5-.53-.69-.22-.19-.49-.36-.8-.52s-.64-.31-1-.48l-2.18-.94c-.36-.15-.72-.34-1.09-.55-.37-.21-.7-.47-1-.78s-.53-.67-.72-1.09-.28-.91-.28-1.46.12-1.1.36-1.59c.24-.49.57-.92,1-1.28s.93-.64,1.51-.84c.58-.2,1.22-.3,1.92-.3.91,0,1.76.17,2.53.52s1.43.79,1.97,1.35l-1.04,1.24c-.46-.44-.98-.79-1.54-1.05-.57-.25-1.2-.38-1.92-.38-.85,0-1.54.2-2.05.59-.52.39-.78.93-.78,1.62,0,.37.07.68.22.93.15.25.34.48.59.67.25.19.52.36.81.51s.6.28.91.4l2.16.92c.43.18.84.39,1.23.63.39.24.72.51,1,.83.28.31.5.68.66,1.1.16.42.24.91.24,1.46,0,.6-.12,1.16-.36,1.68-.24.52-.58.98-1.03,1.37-.45.39-.99.7-1.63.92-.63.22-1.35.33-2.16.33Z"/>
    <path d="M276.98,222.6v-16.38h1.9v4.46l-.07,2.3c.54-.51,1.11-.94,1.7-1.3.59-.36,1.28-.54,2.07-.54,1.19,0,2.06.37,2.61,1.1.55.74.82,1.82.82,3.27v7.08h-1.9v-6.83c0-1.06-.17-1.82-.51-2.29s-.88-.7-1.62-.7c-.59,0-1.11.15-1.56.44-.45.29-.96.72-1.53,1.29v8.1h-1.9Z"/>
    <path d="M292.21,222.87c-.94,0-1.73-.28-2.36-.83s-.94-1.33-.94-2.35c0-1.23.55-2.17,1.65-2.82,1.1-.65,2.86-1.11,5.27-1.37,0-.35-.04-.7-.1-1.04-.07-.34-.19-.64-.36-.9-.17-.26-.41-.47-.71-.63s-.68-.24-1.15-.24c-.65,0-1.26.12-1.83.37-.57.25-1.08.52-1.53.83l-.74-1.31c.53-.34,1.17-.66,1.93-.98s1.59-.47,2.51-.47c1.38,0,2.38.42,3,1.25s.93,1.95.93,3.35v6.85h-1.58l-.16-1.33h-.07c-.54.45-1.12.82-1.74,1.14-.62.31-1.28.47-2,.47ZM292.77,221.35c.54,0,1.05-.13,1.53-.38.48-.25.99-.62,1.53-1.12v-3.1c-.94.12-1.74.27-2.38.44-.64.17-1.16.37-1.56.6-.4.23-.68.49-.86.79s-.27.62-.27.98c0,.64.19,1.1.58,1.38.39.28.86.41,1.42.41Z"/>
    <path d="M301.31,227.31v-15.89h1.58l.16,1.29h.07c.51-.43,1.07-.8,1.68-1.1s1.25-.46,1.92-.46c.73,0,1.37.13,1.93.4.56.27,1.02.65,1.39,1.15.37.5.65,1.1.85,1.79.19.7.29,1.48.29,2.36,0,.95-.13,1.8-.39,2.54-.26.74-.62,1.38-1.07,1.9-.45.52-.97.92-1.56,1.18-.59.27-1.21.4-1.86.4-.53,0-1.05-.12-1.57-.35-.52-.23-1.04-.54-1.57-.94l.05,1.96v3.77h-1.9ZM305.98,221.29c.46,0,.89-.1,1.29-.31.4-.21.74-.5,1.02-.87.29-.38.51-.84.67-1.39.16-.55.24-1.17.24-1.86,0-.61-.05-1.17-.16-1.68s-.28-.94-.52-1.3-.55-.64-.93-.84c-.38-.2-.83-.3-1.36-.3-.48,0-.96.13-1.45.39-.49.26-1.01.64-1.57,1.13v5.86c.51.43,1.01.73,1.49.91.48.18.91.26,1.28.26Z"/>
    <path d="M318.77,222.87c-.76,0-1.47-.13-2.12-.4-.66-.27-1.23-.65-1.72-1.15-.49-.5-.87-1.11-1.15-1.83-.28-.72-.42-1.54-.42-2.46s.14-1.74.43-2.47c.29-.73.67-1.35,1.14-1.85.47-.51,1.01-.89,1.61-1.16.6-.27,1.23-.4,1.88-.4.71,0,1.35.12,1.92.37.56.25,1.04.6,1.42,1.06.38.46.67,1.01.87,1.66.2.64.3,1.37.3,2.16,0,.2,0,.39-.01.59,0,.19-.03.36-.06.49h-7.62c.08,1.2.45,2.14,1.13,2.84.67.7,1.55,1.05,2.63,1.05.54,0,1.04-.08,1.5-.24.46-.16.89-.37,1.31-.63l.67,1.24c-.5.31-1.04.58-1.65.8-.6.23-1.29.35-2.07.35ZM315.22,216.11h6.04c0-1.13-.24-2-.73-2.59-.49-.59-1.17-.89-2.05-.89-.4,0-.79.08-1.15.23-.36.15-.69.38-.99.68s-.54.66-.73,1.09c-.19.43-.32.92-.38,1.47Z"/>
    <path d="M328.66,222.87c-.8,0-1.57-.15-2.3-.44s-1.36-.66-1.9-1.1l.95-1.27c.5.4,1,.72,1.52.97.52.25,1.12.37,1.8.37.74,0,1.3-.17,1.67-.51.37-.34.56-.75.56-1.24,0-.29-.08-.54-.23-.76-.15-.21-.35-.4-.59-.56s-.51-.3-.82-.43c-.31-.12-.62-.25-.93-.37-.4-.14-.8-.3-1.21-.47-.4-.18-.76-.39-1.08-.64s-.58-.55-.78-.88c-.2-.34-.3-.74-.3-1.22,0-.44.09-.86.27-1.25.18-.39.43-.73.77-1.01.33-.28.74-.51,1.22-.67.48-.16,1.02-.24,1.62-.24.71,0,1.37.12,1.96.37s1.11.54,1.54.9l-.91,1.2c-.39-.29-.79-.53-1.21-.71s-.88-.28-1.37-.28c-.71,0-1.23.16-1.57.48s-.5.7-.5,1.13c0,.26.07.49.21.68.14.19.33.36.56.51.23.15.5.28.8.39.3.12.62.23.94.36.4.15.81.31,1.22.48s.78.38,1.1.63.59.56.8.93c.21.37.31.81.31,1.33,0,.46-.09.89-.27,1.29-.18.4-.44.75-.79,1.06-.35.31-.78.55-1.3.72-.52.18-1.11.26-1.78.26Z"/>
  </g>
  <g>
    <path d="M289.07,186.1v-1.6c.78-.72,1.49-1.4,2.14-2.02.65-.63,1.2-1.22,1.67-1.77.47-.55.83-1.06,1.09-1.54.26-.47.39-.93.39-1.36,0-.59-.15-1.05-.46-1.36-.31-.31-.73-.47-1.27-.47-.45,0-.84.12-1.19.37-.34.25-.67.54-.98.86l-1.54-1.5c.6-.63,1.21-1.11,1.84-1.43.63-.32,1.37-.48,2.24-.48.6,0,1.15.09,1.64.28s.92.44,1.28.78c.36.34.63.74.83,1.21.19.47.29,1,.29,1.58,0,.51-.11,1.02-.33,1.55-.22.53-.51,1.05-.87,1.58s-.78,1.05-1.25,1.58c-.47.53-.95,1.04-1.45,1.55.31-.04.65-.07,1.03-.1.38-.03.71-.05,1.01-.05h2.46v2.36h-8.57Z"/>
    <path d="M301.37,186.33c-.49,0-.89-.17-1.22-.5-.33-.34-.49-.75-.49-1.24s.16-.93.49-1.26.73-.5,1.22-.5.89.17,1.22.5c.33.34.49.76.49,1.26s-.16.91-.49,1.24c-.33.33-.73.5-1.22.5Z"/>
    <path d="M310.17,186.1v-15.09h1.93v6.33h7.08v-6.33h1.95v15.09h-1.95v-7.11h-7.08v7.11h-1.93Z"/>
    <path d="M326.1,172.62c-.37,0-.68-.12-.94-.35-.25-.23-.38-.52-.38-.87s.13-.66.38-.88c.26-.22.57-.33.94-.33s.69.11.94.33c.26.22.38.52.38.88s-.13.64-.38.87c-.25.23-.57.35-.94.35ZM325.13,186.1v-11.18h1.9v11.18h-1.9Z"/>
    <path d="M334.69,186.38c-1.42,0-2.56-.51-3.4-1.52s-1.26-2.45-1.26-4.32c0-.9.13-1.72.41-2.45.27-.73.63-1.35,1.08-1.85s.97-.9,1.56-1.17,1.21-.41,1.86-.41,1.22.12,1.7.34c.48.23.97.54,1.46.94l-.09-1.91v-4.3h1.93v16.38h-1.58l-.16-1.31h-.07c-.45.43-.96.8-1.54,1.12-.58.31-1.2.47-1.87.47ZM335.11,184.79c.53,0,1.02-.13,1.49-.38.46-.25.93-.64,1.39-1.16v-5.84c-.48-.43-.94-.73-1.38-.91-.44-.18-.89-.26-1.36-.26s-.87.1-1.27.31c-.39.21-.74.5-1.03.87-.29.38-.53.82-.7,1.35-.17.52-.25,1.1-.25,1.75,0,1.35.27,2.4.81,3.15.54.75,1.31,1.13,2.3,1.13Z"/>
    <path d="M348.3,186.38c-.76,0-1.47-.13-2.12-.4-.66-.27-1.23-.65-1.72-1.15-.49-.5-.87-1.11-1.15-1.83-.28-.72-.42-1.54-.42-2.46s.14-1.74.43-2.47c.29-.73.67-1.35,1.14-1.85.47-.51,1.01-.89,1.61-1.16.6-.27,1.23-.4,1.88-.4.71,0,1.35.12,1.92.37.56.25,1.04.6,1.42,1.06.38.46.67,1.01.87,1.66.2.64.3,1.37.3,2.16,0,.2,0,.39-.01.59,0,.19-.03.36-.06.49h-7.62c.08,1.2.45,2.14,1.13,2.84.67.7,1.55,1.05,2.63,1.05.54,0,1.04-.08,1.5-.24.46-.16.89-.37,1.31-.63l.67,1.24c-.5.31-1.04.58-1.65.8-.6.23-1.29.35-2.07.35ZM344.75,179.62h6.04c0-1.13-.24-2-.73-2.59-.49-.59-1.17-.89-2.05-.89-.4,0-.79.08-1.15.23-.36.15-.69.38-.99.68s-.54.66-.73,1.09c-.19.43-.32.92-.38,1.47Z"/>
    <path d="M364.3,186.38c-1.07,0-2.06-.2-2.97-.6-.91-.4-1.7-.94-2.37-1.63l1.16-1.33c.54.57,1.18,1.02,1.92,1.37.74.35,1.5.52,2.29.52,1.01,0,1.79-.23,2.34-.68.56-.45.84-1.05.84-1.78,0-.38-.07-.71-.2-.98-.13-.27-.31-.5-.53-.69-.22-.19-.49-.36-.8-.52s-.64-.31-1-.48l-2.18-.94c-.36-.15-.72-.34-1.09-.55-.37-.21-.7-.47-1-.78s-.53-.67-.72-1.09-.28-.91-.28-1.46.12-1.1.36-1.59c.24-.49.57-.92,1-1.28s.93-.64,1.51-.84c.58-.2,1.22-.3,1.92-.3.91,0,1.76.17,2.53.52s1.43.79,1.97,1.35l-1.04,1.24c-.46-.44-.98-.79-1.54-1.05-.57-.25-1.2-.38-1.92-.38-.85,0-1.54.2-2.05.59-.52.39-.78.93-.78,1.62,0,.37.07.68.22.93.15.25.34.48.59.67.25.19.52.36.81.51s.6.28.91.4l2.16.92c.43.18.84.39,1.23.63.39.24.72.51,1,.83.28.31.5.68.66,1.1.16.42.24.91.24,1.46,0,.6-.12,1.16-.36,1.68-.24.52-.58.98-1.03,1.37-.45.39-.99.7-1.63.92-.63.22-1.35.33-2.16.33Z"/>
    <path d="M376.86,186.38c-.76,0-1.47-.13-2.12-.4-.66-.27-1.23-.65-1.72-1.15-.49-.5-.87-1.11-1.15-1.83-.28-.72-.42-1.54-.42-2.46s.14-1.74.43-2.47c.29-.73.67-1.35,1.14-1.85.47-.51,1.01-.89,1.61-1.16.6-.27,1.23-.4,1.88-.4.71,0,1.35.12,1.92.37.56.25,1.04.6,1.42,1.06.38.46.67,1.01.87,1.66.2.64.3,1.37.3,2.16,0,.2,0,.39-.01.59,0,.19-.03.36-.06.49h-7.62c.08,1.2.45,2.14,1.13,2.84.67.7,1.55,1.05,2.63,1.05.54,0,1.04-.08,1.5-.24.46-.16.89-.37,1.31-.63l.67,1.24c-.5.31-1.04.58-1.65.8-.6.23-1.29.35-2.07.35ZM373.31,179.62h6.04c0-1.13-.24-2-.73-2.59-.49-.59-1.17-.89-2.05-.89-.4,0-.79.08-1.15.23-.36.15-.69.38-.99.68s-.54.66-.73,1.09c-.19.43-.32.92-.38,1.47Z"/>
    <path d="M385.82,186.38c-.73,0-1.25-.21-1.56-.64-.31-.43-.46-1.06-.46-1.89v-14.12h1.9v14.26c0,.31.05.52.16.64s.23.18.37.18h.17c.05,0,.13-.01.24-.05l.26,1.43c-.12.06-.27.11-.44.14-.17.03-.39.05-.65.05Z"/>
    <path d="M394.3,186.38c-.76,0-1.47-.13-2.12-.4-.66-.27-1.23-.65-1.72-1.15-.49-.5-.87-1.11-1.15-1.83-.28-.72-.42-1.54-.42-2.46s.14-1.74.43-2.47c.29-.73.67-1.35,1.14-1.85.47-.51,1.01-.89,1.61-1.16.6-.27,1.23-.4,1.88-.4.71,0,1.35.12,1.92.37.56.25,1.04.6,1.42,1.06.38.46.67,1.01.87,1.66.2.64.3,1.37.3,2.16,0,.2,0,.39-.01.59,0,.19-.03.36-.06.49h-7.62c.08,1.2.45,2.14,1.13,2.84.67.7,1.55,1.05,2.63,1.05.54,0,1.04-.08,1.5-.24.46-.16.89-.37,1.31-.63l.67,1.24c-.5.31-1.04.58-1.65.8-.6.23-1.29.35-2.07.35ZM390.74,179.62h6.04c0-1.13-.24-2-.73-2.59-.49-.59-1.17-.89-2.05-.89-.4,0-.79.08-1.15.23-.36.15-.69.38-.99.68s-.54.66-.73,1.09c-.19.43-.32.92-.38,1.47Z"/>
    <path d="M405.7,186.38c-.74,0-1.44-.13-2.09-.39s-1.21-.64-1.68-1.14c-.47-.5-.84-1.11-1.11-1.84-.27-.73-.41-1.55-.41-2.47s.15-1.77.44-2.5.69-1.35,1.18-1.85,1.07-.89,1.73-1.15c.66-.26,1.35-.39,2.08-.39s1.38.13,1.9.39c.53.26.99.57,1.39.92l-.98,1.24c-.33-.29-.67-.53-1.03-.71-.36-.18-.77-.28-1.22-.28-.51,0-.98.1-1.42.31s-.8.5-1.11.88c-.31.38-.55.84-.73,1.37-.18.53-.27,1.12-.27,1.76s.08,1.23.25,1.75c.17.52.41.97.71,1.35.3.38.67.67,1.1.87.43.21.91.31,1.42.31s1.01-.11,1.45-.33c.44-.22.84-.49,1.2-.79l.84,1.26c-.51.45-1.08.79-1.7,1.05s-1.27.38-1.95.38Z"/>
    <path d="M415.15,186.38c-.6,0-1.11-.09-1.52-.28s-.74-.44-1-.76c-.26-.32-.44-.71-.55-1.17s-.16-.97-.16-1.52v-6.19h-1.67v-1.43l1.76-.11.23-3.13h1.6v3.13h3.04v1.54h-3.04v6.21c0,.69.13,1.22.38,1.6.26.38.71.56,1.36.56.2,0,.42-.03.65-.09.23-.06.44-.13.63-.21l.37,1.43c-.31.11-.65.2-1.01.29s-.72.13-1.08.13Z"/>
    <path d="M423.69,186.38c-.76,0-1.47-.13-2.12-.4-.66-.27-1.23-.65-1.72-1.15-.49-.5-.87-1.11-1.15-1.83-.28-.72-.42-1.54-.42-2.46s.14-1.74.43-2.47c.29-.73.67-1.35,1.14-1.85.47-.51,1.01-.89,1.61-1.16.6-.27,1.23-.4,1.88-.4.71,0,1.35.12,1.92.37.56.25,1.04.6,1.42,1.06.38.46.67,1.01.87,1.66.2.64.3,1.37.3,2.16,0,.2,0,.39-.01.59,0,.19-.03.36-.06.49h-7.62c.08,1.2.45,2.14,1.13,2.84.67.7,1.55,1.05,2.63,1.05.54,0,1.04-.08,1.5-.24.46-.16.89-.37,1.31-.63l.67,1.24c-.5.31-1.04.58-1.65.8-.6.23-1.29.35-2.07.35ZM420.14,179.62h6.04c0-1.13-.24-2-.73-2.59-.49-.59-1.17-.89-2.05-.89-.4,0-.79.08-1.15.23-.36.15-.69.38-.99.68s-.54.66-.73,1.09c-.19.43-.32.92-.38,1.47Z"/>
    <path d="M434.49,186.38c-1.42,0-2.56-.51-3.4-1.52s-1.26-2.45-1.26-4.32c0-.9.13-1.72.41-2.45.27-.73.63-1.35,1.08-1.85s.97-.9,1.56-1.17,1.21-.41,1.86-.41,1.22.12,1.7.34c.48.23.97.54,1.46.94l-.09-1.91v-4.3h1.93v16.38h-1.58l-.16-1.31h-.07c-.45.43-.96.8-1.54,1.12-.58.31-1.2.47-1.87.47ZM434.91,184.79c.53,0,1.02-.13,1.49-.38.46-.25.93-.64,1.39-1.16v-5.84c-.48-.43-.94-.73-1.38-.91-.44-.18-.89-.26-1.36-.26s-.87.1-1.27.31c-.39.21-.74.5-1.03.87-.29.38-.53.82-.7,1.35-.17.52-.25,1.1-.25,1.75,0,1.35.27,2.4.81,3.15.54.75,1.31,1.13,2.3,1.13Z"/>
    <path d="M452.57,186.38c-1.07,0-2.06-.2-2.97-.6-.91-.4-1.7-.94-2.37-1.63l1.16-1.33c.54.57,1.18,1.02,1.92,1.37.74.35,1.5.52,2.29.52,1.01,0,1.79-.23,2.34-.68.56-.45.84-1.05.84-1.78,0-.38-.07-.71-.2-.98-.13-.27-.31-.5-.53-.69-.22-.19-.49-.36-.8-.52s-.64-.31-1-.48l-2.18-.94c-.36-.15-.72-.34-1.09-.55-.37-.21-.7-.47-1-.78s-.53-.67-.72-1.09-.28-.91-.28-1.46.12-1.1.36-1.59c.24-.49.57-.92,1-1.28s.93-.64,1.51-.84c.58-.2,1.22-.3,1.92-.3.91,0,1.76.17,2.53.52s1.43.79,1.97,1.35l-1.04,1.24c-.46-.44-.98-.79-1.54-1.05-.57-.25-1.2-.38-1.92-.38-.85,0-1.54.2-2.05.59-.52.39-.78.93-.78,1.62,0,.37.07.68.22.93.15.25.34.48.59.67.25.19.52.36.81.51s.6.28.91.4l2.16.92c.43.18.84.39,1.23.63.39.24.72.51,1,.83.28.31.5.68.66,1.1.16.42.24.91.24,1.46,0,.6-.12,1.16-.36,1.68-.24.52-.58.98-1.03,1.37-.45.39-.99.7-1.63.92-.63.22-1.35.33-2.16.33Z"/>
    <path d="M460.56,186.1v-16.38h1.9v4.46l-.07,2.3c.54-.51,1.11-.94,1.7-1.3.59-.36,1.28-.54,2.07-.54,1.19,0,2.06.37,2.61,1.1.55.74.82,1.82.82,3.27v7.08h-1.9v-6.83c0-1.06-.17-1.82-.51-2.29s-.88-.7-1.62-.7c-.59,0-1.11.15-1.56.44-.45.29-.96.72-1.53,1.29v8.1h-1.9Z"/>
    <path d="M475.79,186.38c-.94,0-1.73-.28-2.36-.83s-.94-1.33-.94-2.35c0-1.23.55-2.17,1.65-2.82,1.1-.65,2.86-1.11,5.27-1.37,0-.35-.04-.7-.1-1.04-.07-.34-.19-.64-.36-.9-.17-.26-.41-.47-.71-.63s-.68-.24-1.15-.24c-.65,0-1.26.12-1.83.37-.57.25-1.08.52-1.53.83l-.74-1.31c.53-.34,1.17-.66,1.93-.98s1.59-.47,2.51-.47c1.38,0,2.38.42,3,1.25s.93,1.95.93,3.35v6.85h-1.58l-.16-1.33h-.07c-.54.45-1.12.82-1.74,1.14-.62.31-1.28.47-2,.47ZM476.35,184.86c.54,0,1.05-.13,1.53-.38.48-.25.99-.62,1.53-1.12v-3.1c-.94.12-1.74.27-2.38.44-.64.17-1.16.37-1.56.6-.4.23-.68.49-.86.79s-.27.62-.27.98c0,.64.19,1.1.58,1.38.39.28.86.41,1.42.41Z"/>
    <path d="M484.9,190.82v-15.89h1.58l.16,1.29h.07c.51-.43,1.07-.8,1.68-1.1s1.25-.46,1.92-.46c.73,0,1.37.13,1.93.4.56.27,1.02.65,1.39,1.15.37.5.65,1.1.85,1.79.19.7.29,1.48.29,2.36,0,.95-.13,1.8-.39,2.54-.26.74-.62,1.38-1.07,1.9-.45.52-.97.92-1.56,1.18-.59.27-1.21.4-1.86.4-.53,0-1.05-.12-1.57-.35-.52-.23-1.04-.54-1.57-.94l.05,1.96v3.77h-1.9ZM489.56,184.79c.46,0,.89-.1,1.29-.31.4-.21.74-.5,1.02-.87.29-.38.51-.84.67-1.39.16-.55.24-1.17.24-1.86,0-.61-.05-1.17-.16-1.68s-.28-.94-.52-1.3-.55-.64-.93-.84c-.38-.2-.83-.3-1.36-.3-.48,0-.96.13-1.45.39-.49.26-1.01.64-1.57,1.13v5.86c.51.43,1.01.73,1.49.91.48.18.91.26,1.28.26Z"/>
    <path d="M502.36,186.38c-.76,0-1.47-.13-2.12-.4-.66-.27-1.23-.65-1.72-1.15-.49-.5-.87-1.11-1.15-1.83-.28-.72-.42-1.54-.42-2.46s.14-1.74.43-2.47c.29-.73.67-1.35,1.14-1.85.47-.51,1.01-.89,1.61-1.16.6-.27,1.23-.4,1.88-.4.71,0,1.35.12,1.92.37.56.25,1.04.6,1.42,1.06.38.46.67,1.01.87,1.66.2.64.3,1.37.3,2.16,0,.2,0,.39-.01.59,0,.19-.03.36-.06.49h-7.62c.08,1.2.45,2.14,1.13,2.84.67.7,1.55,1.05,2.63,1.05.54,0,1.04-.08,1.5-.24.46-.16.89-.37,1.31-.63l.67,1.24c-.5.31-1.04.58-1.65.8-.6.23-1.29.35-2.07.35ZM498.8,179.62h6.04c0-1.13-.24-2-.73-2.59-.49-.59-1.17-.89-2.05-.89-.4,0-.79.08-1.15.23-.36.15-.69.38-.99.68s-.54.66-.73,1.09c-.19.43-.32.92-.38,1.47Z"/>
    <path d="M512.25,186.38c-.8,0-1.57-.15-2.3-.44s-1.36-.66-1.9-1.1l.95-1.27c.5.4,1,.72,1.52.97.52.25,1.12.37,1.8.37.74,0,1.3-.17,1.67-.51.37-.34.56-.75.56-1.24,0-.29-.08-.54-.23-.76-.15-.21-.35-.4-.59-.56s-.51-.3-.82-.43c-.31-.12-.62-.25-.93-.37-.4-.14-.8-.3-1.21-.47-.4-.18-.76-.39-1.08-.64s-.58-.55-.78-.88c-.2-.34-.3-.74-.3-1.22,0-.44.09-.86.27-1.25.18-.39.43-.73.77-1.01.33-.28.74-.51,1.22-.67.48-.16,1.02-.24,1.62-.24.71,0,1.37.12,1.96.37s1.11.54,1.54.9l-.91,1.2c-.39-.29-.79-.53-1.21-.71s-.88-.28-1.37-.28c-.71,0-1.23.16-1.57.48s-.5.7-.5,1.13c0,.26.07.49.21.68.14.19.33.36.56.51.23.15.5.28.8.39.3.12.62.23.94.36.4.15.81.31,1.22.48s.78.38,1.1.63.59.56.8.93c.21.37.31.81.31,1.33,0,.46-.09.89-.27,1.29-.18.4-.44.75-.79,1.06-.35.31-.78.55-1.3.72-.52.18-1.11.26-1.78.26Z"/>
  </g>
  <g>
    <path d="M471.72,149.79c-1,0-1.84-.16-2.53-.46-.69-.31-1.26-.73-1.71-1.25l1.3-1.77c.37.35.78.65,1.22.87s.92.34,1.45.34c.6,0,1.08-.12,1.44-.37.36-.25.54-.6.54-1.05,0-.27-.05-.51-.14-.72-.1-.22-.27-.4-.51-.54s-.58-.26-1-.34-.97-.12-1.63-.12v-1.98c.55,0,1.01-.04,1.37-.11.36-.08.66-.19.88-.33s.38-.32.48-.51.14-.42.14-.66c0-.42-.13-.74-.38-.98-.26-.23-.63-.35-1.11-.35-.43,0-.83.1-1.18.29-.35.19-.72.45-1.1.78l-1.42-1.71c.56-.48,1.15-.86,1.77-1.13.62-.27,1.31-.41,2.06-.41.63,0,1.2.07,1.72.22s.96.36,1.32.65.65.63.85,1.04c.21.41.31.87.31,1.41,0,.63-.18,1.17-.53,1.61-.35.44-.85.79-1.51,1.07v.08c.7.2,1.28.55,1.74,1.04s.68,1.12.68,1.91c0,.56-.12,1.05-.36,1.49-.24.44-.57.8-.98,1.1s-.89.53-1.44.68-1.13.24-1.75.24Z"/>
    <path d="M480.06,149.79c-.49,0-.89-.17-1.22-.5-.33-.34-.49-.75-.49-1.24s.16-.93.49-1.26.73-.5,1.22-.5.89.17,1.22.5c.33.34.49.76.49,1.26s-.16.91-.49,1.24c-.33.33-.73.5-1.22.5Z"/>
    <path d="M488.86,149.56v-15.09h4.76c.77,0,1.49.07,2.15.22.66.15,1.22.39,1.7.72.47.34.84.77,1.1,1.31.26.54.39,1.2.39,1.98,0,1.18-.31,2.12-.93,2.83-.62.71-1.46,1.19-2.51,1.45l3.88,6.58h-2.18l-3.67-6.37h-2.76v6.37h-1.93ZM490.79,141.63h2.55c1.19,0,2.1-.24,2.74-.72.63-.48.95-1.22.95-2.2s-.32-1.69-.95-2.09c-.63-.4-1.55-.6-2.74-.6h-2.55v5.61Z"/>
    <path d="M506.23,149.84c-.76,0-1.47-.13-2.12-.4-.66-.27-1.23-.65-1.72-1.15-.49-.5-.87-1.11-1.15-1.83-.28-.72-.42-1.54-.42-2.46s.14-1.74.43-2.47c.29-.73.67-1.35,1.14-1.85.47-.51,1.01-.89,1.61-1.16.6-.27,1.23-.4,1.88-.4.71,0,1.35.12,1.92.37.56.25,1.04.6,1.42,1.06.38.46.67,1.01.87,1.66.2.64.3,1.37.3,2.16,0,.2,0,.39-.01.59,0,.19-.03.36-.06.49h-7.62c.08,1.2.45,2.14,1.13,2.84.67.7,1.55,1.05,2.63,1.05.54,0,1.04-.08,1.5-.24.46-.16.89-.37,1.31-.63l.67,1.24c-.5.31-1.04.58-1.65.8-.6.23-1.29.35-2.07.35ZM502.68,143.07h6.04c0-1.13-.24-2-.73-2.59-.49-.59-1.17-.89-2.05-.89-.4,0-.79.08-1.15.23-.36.15-.69.38-.99.68s-.54.66-.73,1.09c-.19.43-.32.92-.38,1.47Z"/>
    <path d="M516.12,149.84c-.8,0-1.57-.15-2.3-.44s-1.36-.66-1.9-1.1l.95-1.27c.5.4,1,.72,1.52.97.52.25,1.12.37,1.8.37.74,0,1.3-.17,1.67-.51.37-.34.56-.75.56-1.24,0-.29-.08-.54-.23-.76-.15-.21-.35-.4-.59-.56s-.51-.3-.82-.43c-.31-.12-.62-.25-.93-.37-.4-.14-.8-.3-1.21-.47-.4-.18-.76-.39-1.08-.64s-.58-.55-.78-.88c-.2-.34-.3-.74-.3-1.22,0-.44.09-.86.27-1.25.18-.39.43-.73.77-1.01.33-.28.74-.51,1.22-.67.48-.16,1.02-.24,1.62-.24.71,0,1.37.12,1.96.37s1.11.54,1.54.9l-.91,1.2c-.39-.29-.79-.53-1.21-.71s-.88-.28-1.37-.28c-.71,0-1.23.16-1.57.48s-.5.7-.5,1.13c0,.26.07.49.21.68.14.19.33.36.56.51.23.15.5.28.8.39.3.12.62.23.94.36.4.15.81.31,1.22.48s.78.38,1.1.63.59.56.8.93c.21.37.31.81.31,1.33,0,.46-.09.89-.27,1.29-.18.4-.44.75-.79,1.06-.35.31-.78.55-1.3.72-.52.18-1.11.26-1.78.26Z"/>
    <path d="M525.99,149.84c-.6,0-1.11-.09-1.52-.28s-.74-.44-1-.76c-.26-.32-.44-.71-.55-1.17s-.16-.97-.16-1.52v-6.19h-1.67v-1.43l1.76-.11.23-3.13h1.6v3.13h3.04v1.54h-3.04v6.21c0,.69.13,1.22.38,1.6.26.38.71.56,1.36.56.2,0,.42-.03.65-.09.23-.06.44-.13.63-.21l.37,1.43c-.31.11-.65.2-1.01.29s-.72.13-1.08.13Z"/>
    <path d="M534.35,149.84c-.7,0-1.36-.13-1.98-.39s-1.18-.64-1.66-1.14c-.48-.5-.86-1.11-1.15-1.84-.29-.73-.43-1.55-.43-2.47s.14-1.77.43-2.5c.29-.73.67-1.35,1.15-1.85.48-.51,1.03-.89,1.66-1.15.63-.26,1.29-.39,1.98-.39s1.36.13,1.99.39c.63.26,1.18.64,1.66,1.15.48.51.86,1.12,1.15,1.85s.43,1.56.43,2.5-.14,1.75-.43,2.47c-.29.73-.67,1.34-1.15,1.84-.48.5-1.03.88-1.66,1.14s-1.29.39-1.99.39ZM534.35,148.27c.48,0,.92-.1,1.32-.31.4-.21.75-.5,1.03-.87.29-.38.51-.82.66-1.35.16-.52.23-1.1.23-1.75s-.08-1.23-.23-1.76c-.15-.53-.38-.99-.66-1.37-.29-.38-.63-.68-1.03-.88-.4-.21-.84-.31-1.32-.31s-.92.1-1.32.31-.75.5-1.03.88c-.29.38-.51.84-.66,1.37-.16.53-.23,1.12-.23,1.76s.08,1.23.23,1.75c.15.52.38.97.66,1.35.29.38.63.67,1.03.87s.84.31,1.32.31Z"/>
    <path d="M542.55,149.56v-11.18h1.58l.16,2.02h.07c.39-.71.86-1.26,1.41-1.68.55-.41,1.15-.62,1.8-.62.45,0,.85.08,1.21.23l-.37,1.66c-.19-.06-.36-.11-.51-.14-.15-.03-.35-.05-.58-.05-.48,0-.98.19-1.5.58-.52.38-.97,1.05-1.36,2v7.18h-1.9Z"/>
    <path d="M554.95,149.84c-.76,0-1.47-.13-2.12-.4-.66-.27-1.23-.65-1.72-1.15-.49-.5-.87-1.11-1.15-1.83-.28-.72-.42-1.54-.42-2.46s.14-1.74.43-2.47c.29-.73.67-1.35,1.14-1.85.47-.51,1.01-.89,1.61-1.16.6-.27,1.23-.4,1.88-.4.71,0,1.35.12,1.92.37.56.25,1.04.6,1.42,1.06.38.46.67,1.01.87,1.66.2.64.3,1.37.3,2.16,0,.2,0,.39-.01.59,0,.19-.03.36-.06.49h-7.62c.08,1.2.45,2.14,1.13,2.84.67.7,1.55,1.05,2.63,1.05.54,0,1.04-.08,1.5-.24.46-.16.89-.37,1.31-.63l.67,1.24c-.5.31-1.04.58-1.65.8-.6.23-1.29.35-2.07.35ZM551.39,143.07h6.04c0-1.13-.24-2-.73-2.59-.49-.59-1.17-.89-2.05-.89-.4,0-.79.08-1.15.23-.36.15-.69.38-.99.68s-.54.66-.73,1.09c-.19.43-.32.92-.38,1.47Z"/>
    <path d="M570.94,149.84c-1.07,0-2.06-.2-2.97-.6-.91-.4-1.7-.94-2.37-1.63l1.16-1.33c.54.57,1.18,1.02,1.92,1.37.74.35,1.5.52,2.29.52,1.01,0,1.79-.23,2.34-.68.56-.45.84-1.05.84-1.78,0-.38-.07-.71-.2-.98-.13-.27-.31-.5-.53-.69-.22-.19-.49-.36-.8-.52s-.64-.31-1-.48l-2.18-.94c-.36-.15-.72-.34-1.09-.55-.37-.21-.7-.47-1-.78s-.53-.67-.72-1.09-.28-.91-.28-1.46.12-1.1.36-1.59c.24-.49.57-.92,1-1.28s.93-.64,1.51-.84c.58-.2,1.22-.3,1.92-.3.91,0,1.76.17,2.53.52s1.43.79,1.97,1.35l-1.04,1.24c-.46-.44-.98-.79-1.54-1.05-.57-.25-1.2-.38-1.92-.38-.85,0-1.54.2-2.05.59-.52.39-.78.93-.78,1.62,0,.37.07.68.22.93.15.25.34.48.59.67.25.19.52.36.81.51s.6.28.91.4l2.16.92c.43.18.84.39,1.23.63.39.24.72.51,1,.83.28.31.5.68.66,1.1.16.42.24.91.24,1.46,0,.6-.12,1.16-.36,1.68-.24.52-.58.98-1.03,1.37-.45.39-.99.7-1.63.92-.63.22-1.35.33-2.16.33Z"/>
    <path d="M578.93,149.56v-16.38h1.9v4.46l-.07,2.3c.54-.51,1.11-.94,1.7-1.3.59-.36,1.28-.54,2.07-.54,1.19,0,2.06.37,2.61,1.1.55.74.82,1.82.82,3.27v7.08h-1.9v-6.83c0-1.06-.17-1.82-.51-2.29s-.88-.7-1.62-.7c-.59,0-1.11.15-1.56.44-.45.29-.96.72-1.53,1.29v8.1h-1.9Z"/>
    <path d="M594.16,149.84c-.94,0-1.73-.28-2.36-.83s-.94-1.33-.94-2.35c0-1.23.55-2.17,1.65-2.82,1.1-.65,2.86-1.11,5.27-1.37,0-.35-.04-.7-.1-1.04-.07-.34-.19-.64-.36-.9-.17-.26-.41-.47-.71-.63s-.68-.24-1.15-.24c-.65,0-1.26.12-1.83.37-.57.25-1.08.52-1.53.83l-.74-1.31c.53-.34,1.17-.66,1.93-.98s1.59-.47,2.51-.47c1.38,0,2.38.42,3,1.25s.93,1.95.93,3.35v6.85h-1.58l-.16-1.33h-.07c-.54.45-1.12.82-1.74,1.14-.62.31-1.28.47-2,.47ZM594.72,148.32c.54,0,1.05-.13,1.53-.38.48-.25.99-.62,1.53-1.12v-3.1c-.94.12-1.74.27-2.38.44-.64.17-1.16.37-1.56.6-.4.23-.68.49-.86.79s-.27.62-.27.98c0,.64.19,1.1.58,1.38.39.28.86.41,1.42.41Z"/>
    <path d="M603.27,154.28v-15.89h1.58l.16,1.29h.07c.51-.43,1.07-.8,1.68-1.1s1.25-.46,1.92-.46c.73,0,1.37.13,1.93.4.56.27,1.02.65,1.39,1.15.37.5.65,1.1.85,1.79.19.7.29,1.48.29,2.36,0,.95-.13,1.8-.39,2.54-.26.74-.62,1.38-1.07,1.9-.45.52-.97.92-1.56,1.18-.59.27-1.21.4-1.86.4-.53,0-1.05-.12-1.57-.35-.52-.23-1.04-.54-1.57-.94l.05,1.96v3.77h-1.9ZM607.93,148.25c.46,0,.89-.1,1.29-.31.4-.21.74-.5,1.02-.87.29-.38.51-.84.67-1.39.16-.55.24-1.17.24-1.86,0-.61-.05-1.17-.16-1.68s-.28-.94-.52-1.3-.55-.64-.93-.84c-.38-.2-.83-.3-1.36-.3-.48,0-.96.13-1.45.39-.49.26-1.01.64-1.57,1.13v5.86c.51.43,1.01.73,1.49.91.48.18.91.26,1.28.26Z"/>
    <path d="M620.73,149.84c-.76,0-1.47-.13-2.12-.4-.66-.27-1.23-.65-1.72-1.15-.49-.5-.87-1.11-1.15-1.83-.28-.72-.42-1.54-.42-2.46s.14-1.74.43-2.47c.29-.73.67-1.35,1.14-1.85.47-.51,1.01-.89,1.61-1.16.6-.27,1.23-.4,1.88-.4.71,0,1.35.12,1.92.37.56.25,1.04.6,1.42,1.06.38.46.67,1.01.87,1.66.2.64.3,1.37.3,2.16,0,.2,0,.39-.01.59,0,.19-.03.36-.06.49h-7.62c.08,1.2.45,2.14,1.13,2.84.67.7,1.55,1.05,2.63,1.05.54,0,1.04-.08,1.5-.24.46-.16.89-.37,1.31-.63l.67,1.24c-.5.31-1.04.58-1.65.8-.6.23-1.29.35-2.07.35ZM617.17,143.07h6.04c0-1.13-.24-2-.73-2.59-.49-.59-1.17-.89-2.05-.89-.4,0-.79.08-1.15.23-.36.15-.69.38-.99.68s-.54.66-.73,1.09c-.19.43-.32.92-.38,1.47Z"/>
    <path d="M635.28,149.56l-4.88-15.09h2.07l2.44,8.14c.28.91.52,1.74.73,2.51.21.77.46,1.6.75,2.48h.09c.28-.89.53-1.72.74-2.48.22-.77.46-1.6.72-2.51l2.44-8.14h1.97l-4.83,15.09h-2.25Z"/>
    <path d="M645.25,136.08c-.37,0-.68-.12-.94-.35-.25-.23-.38-.52-.38-.87s.13-.66.38-.88c.26-.22.57-.33.94-.33s.69.11.94.33c.26.22.38.52.38.88s-.13.64-.38.87c-.25.23-.57.35-.94.35ZM644.27,149.56v-11.18h1.9v11.18h-1.9Z"/>
    <path d="M652.93,149.84c-.8,0-1.57-.15-2.3-.44s-1.36-.66-1.9-1.1l.95-1.27c.5.4,1,.72,1.52.97.52.25,1.12.37,1.8.37.74,0,1.3-.17,1.67-.51.37-.34.56-.75.56-1.24,0-.29-.08-.54-.23-.76-.15-.21-.35-.4-.59-.56s-.51-.3-.82-.43c-.31-.12-.62-.25-.93-.37-.4-.14-.8-.3-1.21-.47-.4-.18-.76-.39-1.08-.64s-.58-.55-.78-.88c-.2-.34-.3-.74-.3-1.22,0-.44.09-.86.27-1.25.18-.39.43-.73.77-1.01.33-.28.74-.51,1.22-.67.48-.16,1.02-.24,1.62-.24.71,0,1.37.12,1.96.37s1.11.54,1.54.9l-.91,1.2c-.39-.29-.79-.53-1.21-.71s-.88-.28-1.37-.28c-.71,0-1.23.16-1.57.48s-.5.7-.5,1.13c0,.26.07.49.21.68.14.19.33.36.56.51.23.15.5.28.8.39.3.12.62.23.94.36.4.15.81.31,1.22.48s.78.38,1.1.63.59.56.8.93c.21.37.31.81.31,1.33,0,.46-.09.89-.27,1.29-.18.4-.44.75-.79,1.06-.35.31-.78.55-1.3.72-.52.18-1.11.26-1.78.26Z"/>
    <path d="M660.69,136.08c-.37,0-.68-.12-.94-.35-.25-.23-.38-.52-.38-.87s.13-.66.38-.88c.26-.22.57-.33.94-.33s.69.11.94.33c.26.22.38.52.38.88s-.13.64-.38.87c-.25.23-.57.35-.94.35ZM659.71,149.56v-11.18h1.9v11.18h-1.9Z"/>
    <path d="M670.41,149.84c-.53,0-1.07-.13-1.64-.38-.56-.25-1.09-.6-1.59-1.05h-.07l-.16,1.15h-1.53v-16.38h1.9v4.46l-.05,2.02c.51-.45,1.07-.82,1.67-1.12.6-.3,1.22-.45,1.86-.45.73,0,1.37.13,1.93.4.56.27,1.03.65,1.41,1.15.38.5.67,1.1.86,1.79.19.7.29,1.48.29,2.33,0,.95-.13,1.8-.39,2.55-.26.75-.62,1.39-1.07,1.91-.45.52-.97.92-1.56,1.18-.59.27-1.21.4-1.86.4ZM670.09,148.25c.46,0,.89-.1,1.29-.31.4-.21.74-.5,1.02-.87.29-.38.51-.84.67-1.39.16-.55.24-1.17.24-1.86,0-.61-.05-1.17-.16-1.68s-.28-.94-.52-1.3-.55-.64-.93-.84c-.38-.2-.83-.3-1.36-.3-.91,0-1.92.51-3.02,1.52v5.86c.5.43.99.73,1.47.91.49.18.92.26,1.29.26Z"/>
    <path d="M679.24,136.08c-.37,0-.68-.12-.94-.35-.25-.23-.38-.52-.38-.87s.13-.66.38-.88c.26-.22.57-.33.94-.33s.69.11.94.33c.26.22.38.52.38.88s-.13.64-.38.87c-.25.23-.57.35-.94.35ZM678.26,149.56v-11.18h1.9v11.18h-1.9Z"/>
    <path d="M685.99,149.84c-.73,0-1.25-.21-1.56-.64-.31-.43-.46-1.06-.46-1.89v-14.12h1.9v14.26c0,.31.05.52.16.64s.23.18.37.18h.17c.05,0,.13-.01.24-.05l.26,1.43c-.12.06-.27.11-.44.14-.17.03-.39.05-.65.05Z"/>
    <path d="M690.87,136.08c-.37,0-.68-.12-.94-.35-.25-.23-.38-.52-.38-.87s.13-.66.38-.88c.26-.22.57-.33.94-.33s.69.11.94.33c.26.22.38.52.38.88s-.13.64-.38.87c-.25.23-.57.35-.94.35ZM689.9,149.56v-11.18h1.9v11.18h-1.9Z"/>
    <path d="M699.16,149.84c-.6,0-1.11-.09-1.52-.28s-.74-.44-1-.76c-.26-.32-.44-.71-.55-1.17s-.16-.97-.16-1.52v-6.19h-1.67v-1.43l1.76-.11.23-3.13h1.6v3.13h3.04v1.54h-3.04v6.21c0,.69.13,1.22.38,1.6.26.38.71.56,1.36.56.2,0,.42-.03.65-.09.23-.06.44-.13.63-.21l.37,1.43c-.31.11-.65.2-1.01.29s-.72.13-1.08.13Z"/>
    <path d="M703.64,154.37c-.26,0-.5-.02-.72-.06s-.42-.1-.6-.17l.37-1.5c.12.03.26.07.42.1.15.04.3.06.44.06.65,0,1.18-.23,1.59-.68s.73-1.02.96-1.71l.26-.83-4.53-11.2h1.97l2.3,6.19c.17.49.35,1.01.55,1.55s.38,1.08.55,1.6h.09c.17-.51.33-1.04.49-1.59s.31-1.07.46-1.56l2.02-6.19h1.86l-4.25,12.1c-.2.55-.43,1.07-.67,1.54-.25.48-.54.89-.88,1.23s-.73.62-1.16.82-.94.3-1.51.3Z"/>
  </g>
  <polyline class="st1" points="76.44 99.19 76.44 215.48 97.52 215.48"/>
  <polyline class="st1" points="256.77 99.19 256.77 179.25 277.85 179.25"/>
  <polyline class="st1" points="436.52 99.19 436.52 143.07 457.6 143.07"/>
  <circle class="st3" cx="97.52" cy="215.48" r="3.63"/>
  <circle class="st3" cx="277.85" cy="179.63" r="3.63"/>
  <circle class="st3" cx="457.6" cy="143.07" r="3.63"/>
</svg>